<?xml version="1.0" encoding="UTF-8" standalone="no"?>
<!DOCTYPE svg PUBLIC "-//W3C//DTD SVG 1.1//EN"
 "http://www.w3.org/Graphics/SVG/1.1/DTD/svg11.dtd">
<!-- Generated by graphviz version 2.49.3 (20211023.0002)
 -->
<!-- Title: G Pages: 1 -->
<svg width="3116pt" height="1461pt"
 viewBox="0.00 0.00 3116.20 1461.20" xmlns="http://www.w3.org/2000/svg" xmlns:xlink="http://www.w3.org/1999/xlink">
<g id="graph0" class="graph" transform="scale(1 1) rotate(0) translate(21.6 1439.6)">
<title>G</title>
<polygon fill="#111111" stroke="transparent" points="-21.6,21.6 -21.6,-1439.6 3094.6,-1439.6 3094.6,21.6 -21.6,21.6"/>
<!-- App.test.tsx -->
<g id="node1" class="node">
<title>App.test.tsx</title>
<path fill="none" stroke="#c6c5fe" d="M187.83,-1018C187.83,-1018 111.17,-1018 111.17,-1018 107.33,-1018 103.5,-1014.17 103.5,-1010.33 103.5,-1010.33 103.5,-1002.67 103.5,-1002.67 103.5,-998.83 107.33,-995 111.17,-995 111.17,-995 187.83,-995 187.83,-995 191.67,-995 195.5,-998.83 195.5,-1002.67 195.5,-1002.67 195.5,-1010.33 195.5,-1010.33 195.5,-1014.17 191.67,-1018 187.83,-1018"/>
<text text-anchor="middle" x="149.5" y="-1002.8" font-family="Arial" font-size="14.00" fill="#c6c5fe">App.test.tsx</text>
</g>
<!-- App.tsx -->
<g id="node2" class="node">
<title>App.tsx</title>
<path fill="none" stroke="#c6c5fe" d="M500.33,-1018C500.33,-1018 450.67,-1018 450.67,-1018 446.83,-1018 443,-1014.17 443,-1010.33 443,-1010.33 443,-1002.67 443,-1002.67 443,-998.83 446.83,-995 450.67,-995 450.67,-995 500.33,-995 500.33,-995 504.17,-995 508,-998.83 508,-1002.67 508,-1002.67 508,-1010.33 508,-1010.33 508,-1014.17 504.17,-1018 500.33,-1018"/>
<text text-anchor="middle" x="475.5" y="-1002.8" font-family="Arial" font-size="14.00" fill="#c6c5fe">App.tsx</text>
</g>
<!-- App.test.tsx&#45;&gt;App.tsx -->
<g id="edge1" class="edge">
<title>App.test.tsx&#45;&gt;App.tsx</title>
<path fill="none" stroke="#757575" d="M195.55,-1006.5C258.5,-1006.5 371.91,-1006.5 432.94,-1006.5"/>
<polygon fill="#757575" stroke="#757575" points="432.98,-1010 442.98,-1006.5 432.98,-1003 432.98,-1010"/>
</g>
<!-- assets/sass/mainStyle.scss -->
<g id="node3" class="node">
<title>assets/sass/mainStyle.scss</title>
<path fill="none" stroke="#c6c5fe" d="M835.33,-1297C835.33,-1297 659.67,-1297 659.67,-1297 655.83,-1297 652,-1293.17 652,-1289.33 652,-1289.33 652,-1281.67 652,-1281.67 652,-1277.83 655.83,-1274 659.67,-1274 659.67,-1274 835.33,-1274 835.33,-1274 839.17,-1274 843,-1277.83 843,-1281.67 843,-1281.67 843,-1289.33 843,-1289.33 843,-1293.17 839.17,-1297 835.33,-1297"/>
<text text-anchor="middle" x="747.5" y="-1281.8" font-family="Arial" font-size="14.00" fill="#c6c5fe">assets/sass/mainStyle.scss</text>
</g>
<!-- App.tsx&#45;&gt;assets/sass/mainStyle.scss -->
<g id="edge2" class="edge">
<title>App.tsx&#45;&gt;assets/sass/mainStyle.scss</title>
<path fill="none" stroke="#757575" d="M508.08,-1012.68C539.63,-1020.44 587.45,-1036.79 616,-1068.5 650.71,-1107.04 626.19,-1134.51 652,-1179.5 671.8,-1214.01 704.19,-1247.14 725.43,-1266.91"/>
<polygon fill="#757575" stroke="#757575" points="723.23,-1269.64 732.97,-1273.81 727.96,-1264.47 723.23,-1269.64"/>
</g>
<!-- lang/local.tsx -->
<g id="node4" class="node">
<title>lang/local.tsx</title>
<path fill="none" stroke="#c6c5fe" d="M2649.33,-693C2649.33,-693 2566.67,-693 2566.67,-693 2562.83,-693 2559,-689.17 2559,-685.33 2559,-685.33 2559,-677.67 2559,-677.67 2559,-673.83 2562.83,-670 2566.67,-670 2566.67,-670 2649.33,-670 2649.33,-670 2653.17,-670 2657,-673.83 2657,-677.67 2657,-677.67 2657,-685.33 2657,-685.33 2657,-689.17 2653.17,-693 2649.33,-693"/>
<text text-anchor="middle" x="2608" y="-677.8" font-family="Arial" font-size="14.00" fill="#c6c5fe">lang/local.tsx</text>
</g>
<!-- App.tsx&#45;&gt;lang/local.tsx -->
<g id="edge3" class="edge">
<title>App.tsx&#45;&gt;lang/local.tsx</title>
<path fill="none" stroke="#757575" d="M505.69,-1018.06C599.09,-1054.65 890.26,-1165.5 990,-1165.5 990,-1165.5 990,-1165.5 1919.5,-1165.5 2029.06,-1165.5 2322.11,-1205.14 2412,-1142.5 2566.28,-1034.98 2599.07,-779.85 2605.52,-703.47"/>
<polygon fill="#757575" stroke="#757575" points="2609.04,-703.41 2606.32,-693.17 2602.06,-702.87 2609.04,-703.41"/>
</g>
<!-- redux/store.tsx -->
<g id="node5" class="node">
<title>redux/store.tsx</title>
<path fill="none" stroke="#c6c5fe" d="M2305.33,-171C2305.33,-171 2210.67,-171 2210.67,-171 2206.83,-171 2203,-167.17 2203,-163.33 2203,-163.33 2203,-155.67 2203,-155.67 2203,-151.83 2206.83,-148 2210.67,-148 2210.67,-148 2305.33,-148 2305.33,-148 2309.17,-148 2313,-151.83 2313,-155.67 2313,-155.67 2313,-163.33 2313,-163.33 2313,-167.17 2309.17,-171 2305.33,-171"/>
<text text-anchor="middle" x="2258" y="-155.8" font-family="Arial" font-size="14.00" fill="#c6c5fe">redux/store.tsx</text>
</g>
<!-- App.tsx&#45;&gt;redux/store.tsx -->
<g id="edge4" class="edge">
<title>App.tsx&#45;&gt;redux/store.tsx</title>
<path fill="none" stroke="#757575" d="M508.1,-1010.24C538.78,-1012.13 585.11,-1010.14 616,-986.5 699.4,-922.68 884.98,-118.5 990,-118.5 990,-118.5 990,-118.5 1569,-118.5 1790.94,-118.5 1846.72,-120.43 2068,-137.5 2109.7,-140.72 2156.37,-146.13 2192.91,-150.78"/>
<polygon fill="#757575" stroke="#757575" points="2192.57,-154.27 2202.93,-152.07 2193.46,-147.33 2192.57,-154.27"/>
</g>
<!-- routing/Layout.tsx -->
<g id="node6" class="node">
<title>routing/Layout.tsx</title>
<path fill="none" stroke="#cfffac" d="M803.33,-977C803.33,-977 691.67,-977 691.67,-977 687.83,-977 684,-973.17 684,-969.33 684,-969.33 684,-961.67 684,-961.67 684,-957.83 687.83,-954 691.67,-954 691.67,-954 803.33,-954 803.33,-954 807.17,-954 811,-957.83 811,-961.67 811,-961.67 811,-969.33 811,-969.33 811,-973.17 807.17,-977 803.33,-977"/>
<text text-anchor="middle" x="747.5" y="-961.8" font-family="Arial" font-size="14.00" fill="#cfffac">routing/Layout.tsx</text>
</g>
<!-- App.tsx&#45;&gt;routing/Layout.tsx -->
<g id="edge5" class="edge">
<title>App.tsx&#45;&gt;routing/Layout.tsx</title>
<path fill="none" stroke="#757575" d="M508.1,-1002.13C536.39,-998.17 578.99,-992.13 616,-986.5 634.75,-983.65 654.99,-980.45 673.81,-977.42"/>
<polygon fill="#757575" stroke="#757575" points="674.49,-980.86 683.81,-975.81 673.38,-973.95 674.49,-980.86"/>
</g>
<!-- routing/Layout/Layout.tsx -->
<g id="node7" class="node">
<title>routing/Layout/Layout.tsx</title>
<path fill="none" stroke="#c6c5fe" d="M826.33,-1018C826.33,-1018 668.67,-1018 668.67,-1018 664.83,-1018 661,-1014.17 661,-1010.33 661,-1010.33 661,-1002.67 661,-1002.67 661,-998.83 664.83,-995 668.67,-995 668.67,-995 826.33,-995 826.33,-995 830.17,-995 834,-998.83 834,-1002.67 834,-1002.67 834,-1010.33 834,-1010.33 834,-1014.17 830.17,-1018 826.33,-1018"/>
<text text-anchor="middle" x="747.5" y="-1002.8" font-family="Arial" font-size="14.00" fill="#c6c5fe">routing/Layout/Layout.tsx</text>
</g>
<!-- App.tsx&#45;&gt;routing/Layout/Layout.tsx -->
<g id="edge6" class="edge">
<title>App.tsx&#45;&gt;routing/Layout/Layout.tsx</title>
<path fill="none" stroke="#757575" d="M508,-1006.5C542.81,-1006.5 600.57,-1006.5 650.53,-1006.5"/>
<polygon fill="#757575" stroke="#757575" points="650.74,-1010 660.74,-1006.5 650.74,-1003 650.74,-1010"/>
</g>
<!-- assets/sass/_Custom.scss -->
<g id="node21" class="node">
<title>assets/sass/_Custom.scss</title>
<path fill="none" stroke="#c6c5fe" d="M1077.33,-1418C1077.33,-1418 904.67,-1418 904.67,-1418 900.83,-1418 897,-1414.17 897,-1410.33 897,-1410.33 897,-1402.67 897,-1402.67 897,-1398.83 900.83,-1395 904.67,-1395 904.67,-1395 1077.33,-1395 1077.33,-1395 1081.17,-1395 1085,-1398.83 1085,-1402.67 1085,-1402.67 1085,-1410.33 1085,-1410.33 1085,-1414.17 1081.17,-1418 1077.33,-1418"/>
<text text-anchor="middle" x="991" y="-1402.8" font-family="Arial" font-size="14.00" fill="#c6c5fe">assets/sass/_Custom.scss</text>
</g>
<!-- assets/sass/mainStyle.scss&#45;&gt;assets/sass/_Custom.scss -->
<g id="edge8" class="edge">
<title>assets/sass/mainStyle.scss&#45;&gt;assets/sass/_Custom.scss</title>
<path fill="none" stroke="#757575" d="M760.74,-1297.08C782.67,-1317.17 830.85,-1358.44 879,-1380.5 889.23,-1385.19 900.39,-1389.07 911.56,-1392.29"/>
<polygon fill="#757575" stroke="#757575" points="910.79,-1395.7 921.36,-1394.94 912.62,-1388.95 910.79,-1395.7"/>
</g>
<!-- assets/sass/_mixins.scss -->
<g id="node22" class="node">
<title>assets/sass/_mixins.scss</title>
<path fill="none" stroke="#cfffac" d="M1334.33,-1398C1334.33,-1398 1171.67,-1398 1171.67,-1398 1167.83,-1398 1164,-1394.17 1164,-1390.33 1164,-1390.33 1164,-1382.67 1164,-1382.67 1164,-1378.83 1167.83,-1375 1171.67,-1375 1171.67,-1375 1334.33,-1375 1334.33,-1375 1338.17,-1375 1342,-1378.83 1342,-1382.67 1342,-1382.67 1342,-1390.33 1342,-1390.33 1342,-1394.17 1338.17,-1398 1334.33,-1398"/>
<text text-anchor="middle" x="1253" y="-1382.8" font-family="Arial" font-size="14.00" fill="#cfffac">assets/sass/_mixins.scss</text>
</g>
<!-- assets/sass/mainStyle.scss&#45;&gt;assets/sass/_mixins.scss -->
<g id="edge12" class="edge">
<title>assets/sass/mainStyle.scss&#45;&gt;assets/sass/_mixins.scss</title>
<path fill="none" stroke="#757575" d="M767.58,-1297.12C792.31,-1311.58 837.22,-1335.76 879,-1347.5 969.89,-1373.03 1077.47,-1382.15 1153.68,-1385.26"/>
<polygon fill="#757575" stroke="#757575" points="1153.63,-1388.76 1163.76,-1385.65 1153.9,-1381.77 1153.63,-1388.76"/>
</g>
<!-- assets/sass/_Fonts.scss -->
<g id="node23" class="node">
<title>assets/sass/_Fonts.scss</title>
<path fill="none" stroke="#cfffac" d="M1070.33,-1338C1070.33,-1338 911.67,-1338 911.67,-1338 907.83,-1338 904,-1334.17 904,-1330.33 904,-1330.33 904,-1322.67 904,-1322.67 904,-1318.83 907.83,-1315 911.67,-1315 911.67,-1315 1070.33,-1315 1070.33,-1315 1074.17,-1315 1078,-1318.83 1078,-1322.67 1078,-1322.67 1078,-1330.33 1078,-1330.33 1078,-1334.17 1074.17,-1338 1070.33,-1338"/>
<text text-anchor="middle" x="991" y="-1322.8" font-family="Arial" font-size="14.00" fill="#cfffac">assets/sass/_Fonts.scss</text>
</g>
<!-- assets/sass/mainStyle.scss&#45;&gt;assets/sass/_Fonts.scss -->
<g id="edge9" class="edge">
<title>assets/sass/mainStyle.scss&#45;&gt;assets/sass/_Fonts.scss</title>
<path fill="none" stroke="#757575" d="M816.41,-1297.03C846.25,-1302.1 881.44,-1308.07 912.32,-1313.31"/>
<polygon fill="#757575" stroke="#757575" points="911.73,-1316.76 922.18,-1314.99 912.9,-1309.86 911.73,-1316.76"/>
</g>
<!-- assets/sass/_Global.scss -->
<g id="node24" class="node">
<title>assets/sass/_Global.scss</title>
<path fill="none" stroke="#cfffac" d="M1072.83,-1297C1072.83,-1297 909.17,-1297 909.17,-1297 905.33,-1297 901.5,-1293.17 901.5,-1289.33 901.5,-1289.33 901.5,-1281.67 901.5,-1281.67 901.5,-1277.83 905.33,-1274 909.17,-1274 909.17,-1274 1072.83,-1274 1072.83,-1274 1076.67,-1274 1080.5,-1277.83 1080.5,-1281.67 1080.5,-1281.67 1080.5,-1289.33 1080.5,-1289.33 1080.5,-1293.17 1076.67,-1297 1072.83,-1297"/>
<text text-anchor="middle" x="991" y="-1281.8" font-family="Arial" font-size="14.00" fill="#cfffac">assets/sass/_Global.scss</text>
</g>
<!-- assets/sass/mainStyle.scss&#45;&gt;assets/sass/_Global.scss -->
<g id="edge10" class="edge">
<title>assets/sass/mainStyle.scss&#45;&gt;assets/sass/_Global.scss</title>
<path fill="none" stroke="#757575" d="M843.25,-1285.5C858.97,-1285.5 875.31,-1285.5 891.12,-1285.5"/>
<polygon fill="#757575" stroke="#757575" points="891.43,-1289 901.43,-1285.5 891.43,-1282 891.43,-1289"/>
</g>
<!-- assets/sass/_Variables.scss -->
<g id="node25" class="node">
<title>assets/sass/_Variables.scss</title>
<path fill="none" stroke="#cfffac" d="M2698.83,-1217C2698.83,-1217 2517.17,-1217 2517.17,-1217 2513.33,-1217 2509.5,-1213.17 2509.5,-1209.33 2509.5,-1209.33 2509.5,-1201.67 2509.5,-1201.67 2509.5,-1197.83 2513.33,-1194 2517.17,-1194 2517.17,-1194 2698.83,-1194 2698.83,-1194 2702.67,-1194 2706.5,-1197.83 2706.5,-1201.67 2706.5,-1201.67 2706.5,-1209.33 2706.5,-1209.33 2706.5,-1213.17 2702.67,-1217 2698.83,-1217"/>
<text text-anchor="middle" x="2608" y="-1201.8" font-family="Arial" font-size="14.00" fill="#cfffac">assets/sass/_Variables.scss</text>
</g>
<!-- assets/sass/mainStyle.scss&#45;&gt;assets/sass/_Variables.scss -->
<g id="edge11" class="edge">
<title>assets/sass/mainStyle.scss&#45;&gt;assets/sass/_Variables.scss</title>
<path fill="none" stroke="#757575" d="M815.4,-1273.95C835.77,-1270.79 858.25,-1267.64 879,-1265.5 1044.14,-1248.46 1085.98,-1245.5 1252,-1245.5 1252,-1245.5 1252,-1245.5 1919.5,-1245.5 2138.55,-1245.5 2193.53,-1242.46 2412,-1226.5 2441.31,-1224.36 2473.03,-1221.27 2502.2,-1218.12"/>
<polygon fill="#757575" stroke="#757575" points="2502.84,-1221.58 2512.4,-1217.01 2502.08,-1214.62 2502.84,-1221.58"/>
</g>
<!-- assets/sass/_responsive.scss -->
<g id="node26" class="node">
<title>assets/sass/_responsive.scss</title>
<path fill="none" stroke="#cfffac" d="M1087.33,-1217C1087.33,-1217 894.67,-1217 894.67,-1217 890.83,-1217 887,-1213.17 887,-1209.33 887,-1209.33 887,-1201.67 887,-1201.67 887,-1197.83 890.83,-1194 894.67,-1194 894.67,-1194 1087.33,-1194 1087.33,-1194 1091.17,-1194 1095,-1197.83 1095,-1201.67 1095,-1201.67 1095,-1209.33 1095,-1209.33 1095,-1213.17 1091.17,-1217 1087.33,-1217"/>
<text text-anchor="middle" x="991" y="-1201.8" font-family="Arial" font-size="14.00" fill="#cfffac">assets/sass/_responsive.scss</text>
</g>
<!-- assets/sass/mainStyle.scss&#45;&gt;assets/sass/_responsive.scss -->
<g id="edge13" class="edge">
<title>assets/sass/mainStyle.scss&#45;&gt;assets/sass/_responsive.scss</title>
<path fill="none" stroke="#757575" d="M773.07,-1273.92C798.97,-1262.06 841.19,-1243.66 879,-1231.5 893.01,-1226.99 908.24,-1222.91 922.81,-1219.39"/>
<polygon fill="#757575" stroke="#757575" points="923.83,-1222.74 932.76,-1217.04 922.22,-1215.93 923.83,-1222.74"/>
</g>
<!-- core/interfaces/ILocal.tsx -->
<g id="node41" class="node">
<title>core/interfaces/ILocal.tsx</title>
<path fill="none" stroke="#cfffac" d="M3018.83,-734C3018.83,-734 2858.17,-734 2858.17,-734 2854.33,-734 2850.5,-730.17 2850.5,-726.33 2850.5,-726.33 2850.5,-718.67 2850.5,-718.67 2850.5,-714.83 2854.33,-711 2858.17,-711 2858.17,-711 3018.83,-711 3018.83,-711 3022.67,-711 3026.5,-714.83 3026.5,-718.67 3026.5,-718.67 3026.5,-726.33 3026.5,-726.33 3026.5,-730.17 3022.67,-734 3018.83,-734"/>
<text text-anchor="middle" x="2938.5" y="-718.8" font-family="Arial" font-size="14.00" fill="#cfffac">core/interfaces/ILocal.tsx</text>
</g>
<!-- lang/local.tsx&#45;&gt;core/interfaces/ILocal.tsx -->
<g id="edge47" class="edge">
<title>lang/local.tsx&#45;&gt;core/interfaces/ILocal.tsx</title>
<path fill="none" stroke="#757575" d="M2657.12,-687.51C2705.06,-693.49 2780.03,-702.85 2840.39,-710.38"/>
<polygon fill="#757575" stroke="#757575" points="2839.97,-713.85 2850.33,-711.62 2840.84,-706.91 2839.97,-713.85"/>
</g>
<!-- lang/ar.json -->
<g id="node52" class="node">
<title>lang/ar.json</title>
<path fill="none" stroke="#cfffac" d="M2975.33,-693C2975.33,-693 2901.67,-693 2901.67,-693 2897.83,-693 2894,-689.17 2894,-685.33 2894,-685.33 2894,-677.67 2894,-677.67 2894,-673.83 2897.83,-670 2901.67,-670 2901.67,-670 2975.33,-670 2975.33,-670 2979.17,-670 2983,-673.83 2983,-677.67 2983,-677.67 2983,-685.33 2983,-685.33 2983,-689.17 2979.17,-693 2975.33,-693"/>
<text text-anchor="middle" x="2938.5" y="-677.8" font-family="Arial" font-size="14.00" fill="#cfffac">lang/ar.json</text>
</g>
<!-- lang/local.tsx&#45;&gt;lang/ar.json -->
<g id="edge48" class="edge">
<title>lang/local.tsx&#45;&gt;lang/ar.json</title>
<path fill="none" stroke="#757575" d="M2657.12,-681.5C2717.55,-681.5 2820.93,-681.5 2883.86,-681.5"/>
<polygon fill="#757575" stroke="#757575" points="2883.98,-685 2893.98,-681.5 2883.98,-678 2883.98,-685"/>
</g>
<!-- lang/en.json -->
<g id="node53" class="node">
<title>lang/en.json</title>
<path fill="none" stroke="#cfffac" d="M2976.83,-652C2976.83,-652 2900.17,-652 2900.17,-652 2896.33,-652 2892.5,-648.17 2892.5,-644.33 2892.5,-644.33 2892.5,-636.67 2892.5,-636.67 2892.5,-632.83 2896.33,-629 2900.17,-629 2900.17,-629 2976.83,-629 2976.83,-629 2980.67,-629 2984.5,-632.83 2984.5,-636.67 2984.5,-636.67 2984.5,-644.33 2984.5,-644.33 2984.5,-648.17 2980.67,-652 2976.83,-652"/>
<text text-anchor="middle" x="2938.5" y="-636.8" font-family="Arial" font-size="14.00" fill="#cfffac">lang/en.json</text>
</g>
<!-- lang/local.tsx&#45;&gt;lang/en.json -->
<g id="edge49" class="edge">
<title>lang/local.tsx&#45;&gt;lang/en.json</title>
<path fill="none" stroke="#757575" d="M2657.12,-675.49C2717.05,-668.01 2819.21,-655.26 2882.27,-647.39"/>
<polygon fill="#757575" stroke="#757575" points="2882.93,-650.84 2892.42,-646.13 2882.07,-643.89 2882.93,-650.84"/>
</g>
<!-- modules/Home/homeSlice.tsx -->
<g id="node60" class="node">
<title>modules/Home/homeSlice.tsx</title>
<path fill="none" stroke="#c6c5fe" d="M2703.33,-64C2703.33,-64 2512.67,-64 2512.67,-64 2508.83,-64 2505,-60.17 2505,-56.33 2505,-56.33 2505,-48.67 2505,-48.67 2505,-44.83 2508.83,-41 2512.67,-41 2512.67,-41 2703.33,-41 2703.33,-41 2707.17,-41 2711,-44.83 2711,-48.67 2711,-48.67 2711,-56.33 2711,-56.33 2711,-60.17 2707.17,-64 2703.33,-64"/>
<text text-anchor="middle" x="2608" y="-48.8" font-family="Arial" font-size="14.00" fill="#c6c5fe">modules/Home/homeSlice.tsx</text>
</g>
<!-- redux/store.tsx&#45;&gt;modules/Home/homeSlice.tsx -->
<g id="edge95" class="edge">
<title>redux/store.tsx&#45;&gt;modules/Home/homeSlice.tsx</title>
<path fill="none" stroke="#757575" d="M2313.12,-153.63C2344.09,-148.25 2382.53,-137.99 2412,-118.5 2433.65,-104.18 2425.42,-85.31 2448,-72.5 2462.23,-64.43 2478.31,-59.01 2494.64,-55.45"/>
<polygon fill="#757575" stroke="#757575" points="2495.68,-58.82 2504.83,-53.47 2494.34,-51.95 2495.68,-58.82"/>
</g>
<!-- modules/News/newsSlice.tsx -->
<g id="node68" class="node">
<title>modules/News/newsSlice.tsx</title>
<path fill="none" stroke="#c6c5fe" d="M2700.33,-187C2700.33,-187 2515.67,-187 2515.67,-187 2511.83,-187 2508,-183.17 2508,-179.33 2508,-179.33 2508,-171.67 2508,-171.67 2508,-167.83 2511.83,-164 2515.67,-164 2515.67,-164 2700.33,-164 2700.33,-164 2704.17,-164 2708,-167.83 2708,-171.67 2708,-171.67 2708,-179.33 2708,-179.33 2708,-183.17 2704.17,-187 2700.33,-187"/>
<text text-anchor="middle" x="2608" y="-171.8" font-family="Arial" font-size="14.00" fill="#c6c5fe">modules/News/newsSlice.tsx</text>
</g>
<!-- redux/store.tsx&#45;&gt;modules/News/newsSlice.tsx -->
<g id="edge96" class="edge">
<title>redux/store.tsx&#45;&gt;modules/News/newsSlice.tsx</title>
<path fill="none" stroke="#757575" d="M2313.38,-162C2362.54,-164.26 2436.4,-167.66 2497.74,-170.48"/>
<polygon fill="#757575" stroke="#757575" points="2497.71,-173.98 2507.86,-170.94 2498.03,-166.99 2497.71,-173.98"/>
</g>
<!-- modules/ThingsWeDo/thingsSlice.tsx -->
<g id="node74" class="node">
<title>modules/ThingsWeDo/thingsSlice.tsx</title>
<path fill="none" stroke="#c6c5fe" d="M2727.33,-146C2727.33,-146 2488.67,-146 2488.67,-146 2484.83,-146 2481,-142.17 2481,-138.33 2481,-138.33 2481,-130.67 2481,-130.67 2481,-126.83 2484.83,-123 2488.67,-123 2488.67,-123 2727.33,-123 2727.33,-123 2731.17,-123 2735,-126.83 2735,-130.67 2735,-130.67 2735,-138.33 2735,-138.33 2735,-142.17 2731.17,-146 2727.33,-146"/>
<text text-anchor="middle" x="2608" y="-130.8" font-family="Arial" font-size="14.00" fill="#c6c5fe">modules/ThingsWeDo/thingsSlice.tsx</text>
</g>
<!-- redux/store.tsx&#45;&gt;modules/ThingsWeDo/thingsSlice.tsx -->
<g id="edge97" class="edge">
<title>redux/store.tsx&#45;&gt;modules/ThingsWeDo/thingsSlice.tsx</title>
<path fill="none" stroke="#757575" d="M2313.38,-155.59C2355.49,-152.57 2415.72,-148.24 2470.68,-144.29"/>
<polygon fill="#757575" stroke="#757575" points="2471.15,-147.77 2480.87,-143.56 2470.65,-140.79 2471.15,-147.77"/>
</g>
<!-- redux/reducers/errorSlice.tsx -->
<g id="node77" class="node">
<title>redux/reducers/errorSlice.tsx</title>
<path fill="none" stroke="#c6c5fe" d="M2699.83,-105C2699.83,-105 2516.17,-105 2516.17,-105 2512.33,-105 2508.5,-101.17 2508.5,-97.33 2508.5,-97.33 2508.5,-89.67 2508.5,-89.67 2508.5,-85.83 2512.33,-82 2516.17,-82 2516.17,-82 2699.83,-82 2699.83,-82 2703.67,-82 2707.5,-85.83 2707.5,-89.67 2707.5,-89.67 2707.5,-97.33 2707.5,-97.33 2707.5,-101.17 2703.67,-105 2699.83,-105"/>
<text text-anchor="middle" x="2608" y="-89.8" font-family="Arial" font-size="14.00" fill="#c6c5fe">redux/reducers/errorSlice.tsx</text>
</g>
<!-- redux/store.tsx&#45;&gt;redux/reducers/errorSlice.tsx -->
<g id="edge98" class="edge">
<title>redux/store.tsx&#45;&gt;redux/reducers/errorSlice.tsx</title>
<path fill="none" stroke="#757575" d="M2300.37,-147.99C2338.47,-137.74 2396.69,-122.94 2448,-113.5 2464.24,-110.51 2481.5,-107.83 2498.42,-105.48"/>
<polygon fill="#757575" stroke="#757575" points="2498.9,-108.95 2508.34,-104.14 2497.96,-102.02 2498.9,-108.95"/>
</g>
<!-- components/Header/Header.tsx -->
<g id="node35" class="node">
<title>components/Header/Header.tsx</title>
<path fill="none" stroke="#c6c5fe" d="M2019.83,-1058C2019.83,-1058 1817.17,-1058 1817.17,-1058 1813.33,-1058 1809.5,-1054.17 1809.5,-1050.33 1809.5,-1050.33 1809.5,-1042.67 1809.5,-1042.67 1809.5,-1038.83 1813.33,-1035 1817.17,-1035 1817.17,-1035 2019.83,-1035 2019.83,-1035 2023.67,-1035 2027.5,-1038.83 2027.5,-1042.67 2027.5,-1042.67 2027.5,-1050.33 2027.5,-1050.33 2027.5,-1054.17 2023.67,-1058 2019.83,-1058"/>
<text text-anchor="middle" x="1918.5" y="-1042.8" font-family="Arial" font-size="14.00" fill="#c6c5fe">components/Header/Header.tsx</text>
</g>
<!-- routing/Layout/Layout.tsx&#45;&gt;components/Header/Header.tsx -->
<g id="edge99" class="edge">
<title>routing/Layout/Layout.tsx&#45;&gt;components/Header/Header.tsx</title>
<path fill="none" stroke="#757575" d="M808.7,-1018.01C830.73,-1021.74 855.91,-1025.44 879,-1027.5 1211.4,-1057.14 1605.92,-1053.85 1799.04,-1049.76"/>
<polygon fill="#757575" stroke="#757575" points="1799.29,-1053.25 1809.21,-1049.54 1799.14,-1046.26 1799.29,-1053.25"/>
</g>
<!-- components/Sidebar/Sidebar.tsx -->
<g id="node38" class="node">
<title>components/Sidebar/Sidebar.tsx</title>
<path fill="none" stroke="#c6c5fe" d="M1095.33,-1018C1095.33,-1018 886.67,-1018 886.67,-1018 882.83,-1018 879,-1014.17 879,-1010.33 879,-1010.33 879,-1002.67 879,-1002.67 879,-998.83 882.83,-995 886.67,-995 886.67,-995 1095.33,-995 1095.33,-995 1099.17,-995 1103,-998.83 1103,-1002.67 1103,-1002.67 1103,-1010.33 1103,-1010.33 1103,-1014.17 1099.17,-1018 1095.33,-1018"/>
<text text-anchor="middle" x="991" y="-1002.8" font-family="Arial" font-size="14.00" fill="#c6c5fe">components/Sidebar/Sidebar.tsx</text>
</g>
<!-- routing/Layout/Layout.tsx&#45;&gt;components/Sidebar/Sidebar.tsx -->
<g id="edge100" class="edge">
<title>routing/Layout/Layout.tsx&#45;&gt;components/Sidebar/Sidebar.tsx</title>
<path fill="none" stroke="#757575" d="M834.32,-1006.5C845.44,-1006.5 856.99,-1006.5 868.54,-1006.5"/>
<polygon fill="#757575" stroke="#757575" points="868.69,-1010 878.69,-1006.5 868.69,-1003 868.69,-1010"/>
</g>
<!-- routing/Layout/Layout.scss -->
<g id="node78" class="node">
<title>routing/Layout/Layout.scss</title>
<path fill="none" stroke="#cfffac" d="M1075.83,-977C1075.83,-977 906.17,-977 906.17,-977 902.33,-977 898.5,-973.17 898.5,-969.33 898.5,-969.33 898.5,-961.67 898.5,-961.67 898.5,-957.83 902.33,-954 906.17,-954 906.17,-954 1075.83,-954 1075.83,-954 1079.67,-954 1083.5,-957.83 1083.5,-961.67 1083.5,-961.67 1083.5,-969.33 1083.5,-969.33 1083.5,-973.17 1079.67,-977 1075.83,-977"/>
<text text-anchor="middle" x="991" y="-961.8" font-family="Arial" font-size="14.00" fill="#cfffac">routing/Layout/Layout.scss</text>
</g>
<!-- routing/Layout/Layout.tsx&#45;&gt;routing/Layout/Layout.scss -->
<g id="edge101" class="edge">
<title>routing/Layout/Layout.tsx&#45;&gt;routing/Layout/Layout.scss</title>
<path fill="none" stroke="#757575" d="M816.41,-994.97C846.25,-989.9 881.44,-983.93 912.32,-978.69"/>
<polygon fill="#757575" stroke="#757575" points="912.9,-982.14 922.18,-977.01 911.73,-975.24 912.9,-982.14"/>
</g>
<!-- routing/routes.tsx -->
<g id="node79" class="node">
<title>routing/routes.tsx</title>
<path fill="none" stroke="#c6c5fe" d="M1045.83,-642C1045.83,-642 936.17,-642 936.17,-642 932.33,-642 928.5,-638.17 928.5,-634.33 928.5,-634.33 928.5,-626.67 928.5,-626.67 928.5,-622.83 932.33,-619 936.17,-619 936.17,-619 1045.83,-619 1045.83,-619 1049.67,-619 1053.5,-622.83 1053.5,-626.67 1053.5,-626.67 1053.5,-634.33 1053.5,-634.33 1053.5,-638.17 1049.67,-642 1045.83,-642"/>
<text text-anchor="middle" x="991" y="-626.8" font-family="Arial" font-size="14.00" fill="#c6c5fe">routing/routes.tsx</text>
</g>
<!-- routing/Layout/Layout.tsx&#45;&gt;routing/routes.tsx -->
<g id="edge102" class="edge">
<title>routing/Layout/Layout.tsx&#45;&gt;routing/routes.tsx</title>
<path fill="none" stroke="#757575" d="M830.37,-994.78C834.87,-992.46 839.13,-989.72 843,-986.5 898.14,-940.63 964.09,-721.65 984.02,-651.89"/>
<polygon fill="#757575" stroke="#757575" points="987.45,-652.61 986.81,-642.03 980.72,-650.7 987.45,-652.61"/>
</g>
<!-- assets/icons/Homeicon.tsx -->
<g id="node8" class="node">
<title>assets/icons/Homeicon.tsx</title>
<path fill="none" stroke="#cfffac" d="M2343.33,-287C2343.33,-287 2172.67,-287 2172.67,-287 2168.83,-287 2165,-283.17 2165,-279.33 2165,-279.33 2165,-271.67 2165,-271.67 2165,-267.83 2168.83,-264 2172.67,-264 2172.67,-264 2343.33,-264 2343.33,-264 2347.17,-264 2351,-267.83 2351,-271.67 2351,-271.67 2351,-279.33 2351,-279.33 2351,-283.17 2347.17,-287 2343.33,-287"/>
<text text-anchor="middle" x="2258" y="-271.8" font-family="Arial" font-size="14.00" fill="#cfffac">assets/icons/Homeicon.tsx</text>
</g>
<!-- assets/images/footer/apple&#45;icon.png -->
<g id="node9" class="node">
<title>assets/images/footer/apple&#45;icon.png</title>
<path fill="none" stroke="#cfffac" d="M2374.33,-857C2374.33,-857 2141.67,-857 2141.67,-857 2137.83,-857 2134,-853.17 2134,-849.33 2134,-849.33 2134,-841.67 2134,-841.67 2134,-837.83 2137.83,-834 2141.67,-834 2141.67,-834 2374.33,-834 2374.33,-834 2378.17,-834 2382,-837.83 2382,-841.67 2382,-841.67 2382,-849.33 2382,-849.33 2382,-853.17 2378.17,-857 2374.33,-857"/>
<text text-anchor="middle" x="2258" y="-841.8" font-family="Arial" font-size="14.00" fill="#cfffac">assets/images/footer/apple&#45;icon.png</text>
</g>
<!-- assets/images/footer/bottom&#45;logo.png -->
<g id="node10" class="node">
<title>assets/images/footer/bottom&#45;logo.png</title>
<path fill="none" stroke="#cfffac" d="M2379.33,-816C2379.33,-816 2136.67,-816 2136.67,-816 2132.83,-816 2129,-812.17 2129,-808.33 2129,-808.33 2129,-800.67 2129,-800.67 2129,-796.83 2132.83,-793 2136.67,-793 2136.67,-793 2379.33,-793 2379.33,-793 2383.17,-793 2387,-796.83 2387,-800.67 2387,-800.67 2387,-808.33 2387,-808.33 2387,-812.17 2383.17,-816 2379.33,-816"/>
<text text-anchor="middle" x="2258" y="-800.8" font-family="Arial" font-size="14.00" fill="#cfffac">assets/images/footer/bottom&#45;logo.png</text>
</g>
<!-- assets/images/footer/google&#45;icon.png -->
<g id="node11" class="node">
<title>assets/images/footer/google&#45;icon.png</title>
<path fill="none" stroke="#cfffac" d="M2378.83,-898C2378.83,-898 2137.17,-898 2137.17,-898 2133.33,-898 2129.5,-894.17 2129.5,-890.33 2129.5,-890.33 2129.5,-882.67 2129.5,-882.67 2129.5,-878.83 2133.33,-875 2137.17,-875 2137.17,-875 2378.83,-875 2378.83,-875 2382.67,-875 2386.5,-878.83 2386.5,-882.67 2386.5,-882.67 2386.5,-890.33 2386.5,-890.33 2386.5,-894.17 2382.67,-898 2378.83,-898"/>
<text text-anchor="middle" x="2258" y="-882.8" font-family="Arial" font-size="14.00" fill="#cfffac">assets/images/footer/google&#45;icon.png</text>
</g>
<!-- assets/images/home/h1.png -->
<g id="node12" class="node">
<title>assets/images/home/h1.png</title>
<path fill="none" stroke="#cfffac" d="M2348.33,-369C2348.33,-369 2167.67,-369 2167.67,-369 2163.83,-369 2160,-365.17 2160,-361.33 2160,-361.33 2160,-353.67 2160,-353.67 2160,-349.83 2163.83,-346 2167.67,-346 2167.67,-346 2348.33,-346 2348.33,-346 2352.17,-346 2356,-349.83 2356,-353.67 2356,-353.67 2356,-361.33 2356,-361.33 2356,-365.17 2352.17,-369 2348.33,-369"/>
<text text-anchor="middle" x="2258" y="-353.8" font-family="Arial" font-size="14.00" fill="#cfffac">assets/images/home/h1.png</text>
</g>
<!-- assets/images/logo.png -->
<g id="node13" class="node">
<title>assets/images/logo.png</title>
<path fill="none" stroke="#cfffac" d="M2334.33,-1058C2334.33,-1058 2181.67,-1058 2181.67,-1058 2177.83,-1058 2174,-1054.17 2174,-1050.33 2174,-1050.33 2174,-1042.67 2174,-1042.67 2174,-1038.83 2177.83,-1035 2181.67,-1035 2181.67,-1035 2334.33,-1035 2334.33,-1035 2338.17,-1035 2342,-1038.83 2342,-1042.67 2342,-1042.67 2342,-1050.33 2342,-1050.33 2342,-1054.17 2338.17,-1058 2334.33,-1058"/>
<text text-anchor="middle" x="2258" y="-1042.8" font-family="Arial" font-size="14.00" fill="#cfffac">assets/images/logo.png</text>
</g>
<!-- assets/images/news/logo.png -->
<g id="node14" class="node">
<title>assets/images/news/logo.png</title>
<path fill="none" stroke="#cfffac" d="M2352.83,-531C2352.83,-531 2163.17,-531 2163.17,-531 2159.33,-531 2155.5,-527.17 2155.5,-523.33 2155.5,-523.33 2155.5,-515.67 2155.5,-515.67 2155.5,-511.83 2159.33,-508 2163.17,-508 2163.17,-508 2352.83,-508 2352.83,-508 2356.67,-508 2360.5,-511.83 2360.5,-515.67 2360.5,-515.67 2360.5,-523.33 2360.5,-523.33 2360.5,-527.17 2356.67,-531 2352.83,-531"/>
<text text-anchor="middle" x="2258" y="-515.8" font-family="Arial" font-size="14.00" fill="#cfffac">assets/images/news/logo.png</text>
</g>
<!-- assets/images/things/logo.png -->
<g id="node15" class="node">
<title>assets/images/things/logo.png</title>
<path fill="none" stroke="#cfffac" d="M2354.83,-734C2354.83,-734 2161.17,-734 2161.17,-734 2157.33,-734 2153.5,-730.17 2153.5,-726.33 2153.5,-726.33 2153.5,-718.67 2153.5,-718.67 2153.5,-714.83 2157.33,-711 2161.17,-711 2161.17,-711 2354.83,-711 2354.83,-711 2358.67,-711 2362.5,-714.83 2362.5,-718.67 2362.5,-718.67 2362.5,-726.33 2362.5,-726.33 2362.5,-730.17 2358.67,-734 2354.83,-734"/>
<text text-anchor="middle" x="2258" y="-718.8" font-family="Arial" font-size="14.00" fill="#cfffac">assets/images/things/logo.png</text>
</g>
<!-- assets/images/things/w1.png -->
<g id="node16" class="node">
<title>assets/images/things/w1.png</title>
<path fill="none" stroke="#cfffac" d="M2700.33,-310C2700.33,-310 2515.67,-310 2515.67,-310 2511.83,-310 2508,-306.17 2508,-302.33 2508,-302.33 2508,-294.67 2508,-294.67 2508,-290.83 2511.83,-287 2515.67,-287 2515.67,-287 2700.33,-287 2700.33,-287 2704.17,-287 2708,-290.83 2708,-294.67 2708,-294.67 2708,-302.33 2708,-302.33 2708,-306.17 2704.17,-310 2700.33,-310"/>
<text text-anchor="middle" x="2608" y="-294.8" font-family="Arial" font-size="14.00" fill="#cfffac">assets/images/things/w1.png</text>
</g>
<!-- assets/images/things/w2.png -->
<g id="node17" class="node">
<title>assets/images/things/w2.png</title>
<path fill="none" stroke="#cfffac" d="M2700.33,-269C2700.33,-269 2515.67,-269 2515.67,-269 2511.83,-269 2508,-265.17 2508,-261.33 2508,-261.33 2508,-253.67 2508,-253.67 2508,-249.83 2511.83,-246 2515.67,-246 2515.67,-246 2700.33,-246 2700.33,-246 2704.17,-246 2708,-249.83 2708,-253.67 2708,-253.67 2708,-261.33 2708,-261.33 2708,-265.17 2704.17,-269 2700.33,-269"/>
<text text-anchor="middle" x="2608" y="-253.8" font-family="Arial" font-size="14.00" fill="#cfffac">assets/images/things/w2.png</text>
</g>
<!-- assets/images/things/w3.png -->
<g id="node18" class="node">
<title>assets/images/things/w3.png</title>
<path fill="none" stroke="#cfffac" d="M2700.33,-228C2700.33,-228 2515.67,-228 2515.67,-228 2511.83,-228 2508,-224.17 2508,-220.33 2508,-220.33 2508,-212.67 2508,-212.67 2508,-208.83 2511.83,-205 2515.67,-205 2515.67,-205 2700.33,-205 2700.33,-205 2704.17,-205 2708,-208.83 2708,-212.67 2708,-212.67 2708,-220.33 2708,-220.33 2708,-224.17 2704.17,-228 2700.33,-228"/>
<text text-anchor="middle" x="2608" y="-212.8" font-family="Arial" font-size="14.00" fill="#cfffac">assets/images/things/w3.png</text>
</g>
<!-- assets/images/things/w4.png -->
<g id="node19" class="node">
<title>assets/images/things/w4.png</title>
<path fill="none" stroke="#cfffac" d="M2700.33,-392C2700.33,-392 2515.67,-392 2515.67,-392 2511.83,-392 2508,-388.17 2508,-384.33 2508,-384.33 2508,-376.67 2508,-376.67 2508,-372.83 2511.83,-369 2515.67,-369 2515.67,-369 2700.33,-369 2700.33,-369 2704.17,-369 2708,-372.83 2708,-376.67 2708,-376.67 2708,-384.33 2708,-384.33 2708,-388.17 2704.17,-392 2700.33,-392"/>
<text text-anchor="middle" x="2608" y="-376.8" font-family="Arial" font-size="14.00" fill="#cfffac">assets/images/things/w4.png</text>
</g>
<!-- assets/images/things/w5.png -->
<g id="node20" class="node">
<title>assets/images/things/w5.png</title>
<path fill="none" stroke="#cfffac" d="M2700.33,-351C2700.33,-351 2515.67,-351 2515.67,-351 2511.83,-351 2508,-347.17 2508,-343.33 2508,-343.33 2508,-335.67 2508,-335.67 2508,-331.83 2511.83,-328 2515.67,-328 2515.67,-328 2700.33,-328 2700.33,-328 2704.17,-328 2708,-331.83 2708,-335.67 2708,-335.67 2708,-343.33 2708,-343.33 2708,-347.17 2704.17,-351 2700.33,-351"/>
<text text-anchor="middle" x="2608" y="-335.8" font-family="Arial" font-size="14.00" fill="#cfffac">assets/images/things/w5.png</text>
</g>
<!-- assets/sass/_Custom.scss&#45;&gt;assets/sass/_mixins.scss -->
<g id="edge7" class="edge">
<title>assets/sass/_Custom.scss&#45;&gt;assets/sass/_mixins.scss</title>
<path fill="none" stroke="#757575" d="M1085.13,-1399.34C1107.37,-1397.63 1131.18,-1395.79 1153.65,-1394.07"/>
<polygon fill="#757575" stroke="#757575" points="1154.16,-1397.54 1163.86,-1393.28 1153.62,-1390.56 1154.16,-1397.54"/>
</g>
<!-- components/CustomBadge/CustomBadge.scss -->
<g id="node27" class="node">
<title>components/CustomBadge/CustomBadge.scss</title>
<path fill="none" stroke="#cfffac" d="M2760.33,-449C2760.33,-449 2455.67,-449 2455.67,-449 2451.83,-449 2448,-445.17 2448,-441.33 2448,-441.33 2448,-433.67 2448,-433.67 2448,-429.83 2451.83,-426 2455.67,-426 2455.67,-426 2760.33,-426 2760.33,-426 2764.17,-426 2768,-429.83 2768,-433.67 2768,-433.67 2768,-441.33 2768,-441.33 2768,-445.17 2764.17,-449 2760.33,-449"/>
<text text-anchor="middle" x="2608" y="-433.8" font-family="Arial" font-size="14.00" fill="#cfffac">components/CustomBadge/CustomBadge.scss</text>
</g>
<!-- components/CustomBadge/CustomBadge.tsx -->
<g id="node28" class="node">
<title>components/CustomBadge/CustomBadge.tsx</title>
<path fill="none" stroke="#c6c5fe" d="M2404.33,-449C2404.33,-449 2111.67,-449 2111.67,-449 2107.83,-449 2104,-445.17 2104,-441.33 2104,-441.33 2104,-433.67 2104,-433.67 2104,-429.83 2107.83,-426 2111.67,-426 2111.67,-426 2404.33,-426 2404.33,-426 2408.17,-426 2412,-429.83 2412,-433.67 2412,-433.67 2412,-441.33 2412,-441.33 2412,-445.17 2408.17,-449 2404.33,-449"/>
<text text-anchor="middle" x="2258" y="-433.8" font-family="Arial" font-size="14.00" fill="#c6c5fe">components/CustomBadge/CustomBadge.tsx</text>
</g>
<!-- components/CustomBadge/CustomBadge.tsx&#45;&gt;lang/local.tsx -->
<g id="edge15" class="edge">
<title>components/CustomBadge/CustomBadge.tsx&#45;&gt;lang/local.tsx</title>
<path fill="none" stroke="#757575" d="M2400.34,-449.09C2404.43,-451.57 2408.34,-454.36 2412,-457.5 2455.27,-494.54 2413.76,-534.98 2448,-580.5 2478.58,-621.17 2530.73,-649.71 2566.92,-665.84"/>
<polygon fill="#757575" stroke="#757575" points="2565.65,-669.11 2576.22,-669.87 2568.44,-662.69 2565.65,-669.11"/>
</g>
<!-- components/CustomBadge/CustomBadge.tsx&#45;&gt;components/CustomBadge/CustomBadge.scss -->
<g id="edge14" class="edge">
<title>components/CustomBadge/CustomBadge.tsx&#45;&gt;components/CustomBadge/CustomBadge.scss</title>
<path fill="none" stroke="#757575" d="M2412.14,-437.5C2420.66,-437.5 2429.25,-437.5 2437.82,-437.5"/>
<polygon fill="#757575" stroke="#757575" points="2437.87,-441 2447.87,-437.5 2437.87,-434 2437.87,-441"/>
</g>
<!-- components/CustomButton/CustomButton.scss -->
<g id="node29" class="node">
<title>components/CustomButton/CustomButton.scss</title>
<path fill="none" stroke="#cfffac" d="M2758.83,-572C2758.83,-572 2457.17,-572 2457.17,-572 2453.33,-572 2449.5,-568.17 2449.5,-564.33 2449.5,-564.33 2449.5,-556.67 2449.5,-556.67 2449.5,-552.83 2453.33,-549 2457.17,-549 2457.17,-549 2758.83,-549 2758.83,-549 2762.67,-549 2766.5,-552.83 2766.5,-556.67 2766.5,-556.67 2766.5,-564.33 2766.5,-564.33 2766.5,-568.17 2762.67,-572 2758.83,-572"/>
<text text-anchor="middle" x="2608" y="-556.8" font-family="Arial" font-size="14.00" fill="#cfffac">components/CustomButton/CustomButton.scss</text>
</g>
<!-- components/CustomButton/CustomButton.tsx -->
<g id="node30" class="node">
<title>components/CustomButton/CustomButton.tsx</title>
<path fill="none" stroke="#c6c5fe" d="M2402.83,-572C2402.83,-572 2113.17,-572 2113.17,-572 2109.33,-572 2105.5,-568.17 2105.5,-564.33 2105.5,-564.33 2105.5,-556.67 2105.5,-556.67 2105.5,-552.83 2109.33,-549 2113.17,-549 2113.17,-549 2402.83,-549 2402.83,-549 2406.67,-549 2410.5,-552.83 2410.5,-556.67 2410.5,-556.67 2410.5,-564.33 2410.5,-564.33 2410.5,-568.17 2406.67,-572 2402.83,-572"/>
<text text-anchor="middle" x="2258" y="-556.8" font-family="Arial" font-size="14.00" fill="#c6c5fe">components/CustomButton/CustomButton.tsx</text>
</g>
<!-- components/CustomButton/CustomButton.tsx&#45;&gt;lang/local.tsx -->
<g id="edge17" class="edge">
<title>components/CustomButton/CustomButton.tsx&#45;&gt;lang/local.tsx</title>
<path fill="none" stroke="#757575" d="M2352.66,-572.07C2372.51,-575.72 2393.15,-580.44 2412,-586.5 2474.47,-606.57 2542.23,-643.33 2579.15,-664.76"/>
<polygon fill="#757575" stroke="#757575" points="2577.45,-667.82 2587.85,-669.86 2580.99,-661.78 2577.45,-667.82"/>
</g>
<!-- components/CustomButton/CustomButton.tsx&#45;&gt;components/CustomButton/CustomButton.scss -->
<g id="edge16" class="edge">
<title>components/CustomButton/CustomButton.tsx&#45;&gt;components/CustomButton/CustomButton.scss</title>
<path fill="none" stroke="#757575" d="M2410.63,-560.5C2420.04,-560.5 2429.55,-560.5 2439.03,-560.5"/>
<polygon fill="#757575" stroke="#757575" points="2439.3,-564 2449.3,-560.5 2439.3,-557 2439.3,-564"/>
</g>
<!-- components/Footer/Footer.tsx -->
<g id="node31" class="node">
<title>components/Footer/Footer.tsx</title>
<path fill="none" stroke="#c6c5fe" d="M2015.33,-857C2015.33,-857 1821.67,-857 1821.67,-857 1817.83,-857 1814,-853.17 1814,-849.33 1814,-849.33 1814,-841.67 1814,-841.67 1814,-837.83 1817.83,-834 1821.67,-834 1821.67,-834 2015.33,-834 2015.33,-834 2019.17,-834 2023,-837.83 2023,-841.67 2023,-841.67 2023,-849.33 2023,-849.33 2023,-853.17 2019.17,-857 2015.33,-857"/>
<text text-anchor="middle" x="1918.5" y="-841.8" font-family="Arial" font-size="14.00" fill="#c6c5fe">components/Footer/Footer.tsx</text>
</g>
<!-- components/Footer/Footer.tsx&#45;&gt;lang/local.tsx -->
<g id="edge24" class="edge">
<title>components/Footer/Footer.tsx&#45;&gt;lang/local.tsx</title>
<path fill="none" stroke="#757575" d="M1943.42,-857.01C2017.13,-890.75 2245.85,-982.37 2412,-906.5 2506.6,-863.3 2572.95,-749.04 2597.02,-702.09"/>
<polygon fill="#757575" stroke="#757575" points="2600.15,-703.65 2601.51,-693.14 2593.9,-700.51 2600.15,-703.65"/>
</g>
<!-- components/Footer/Footer.tsx&#45;&gt;assets/images/footer/apple&#45;icon.png -->
<g id="edge18" class="edge">
<title>components/Footer/Footer.tsx&#45;&gt;assets/images/footer/apple&#45;icon.png</title>
<path fill="none" stroke="#757575" d="M2023.05,-845.5C2054.75,-845.5 2090.07,-845.5 2123.47,-845.5"/>
<polygon fill="#757575" stroke="#757575" points="2123.77,-849 2133.77,-845.5 2123.77,-842 2123.77,-849"/>
</g>
<!-- components/Footer/Footer.tsx&#45;&gt;assets/images/footer/bottom&#45;logo.png -->
<g id="edge19" class="edge">
<title>components/Footer/Footer.tsx&#45;&gt;assets/images/footer/bottom&#45;logo.png</title>
<path fill="none" stroke="#757575" d="M2014.41,-833.97C2057.28,-828.76 2108.07,-822.59 2152.07,-817.25"/>
<polygon fill="#757575" stroke="#757575" points="2152.71,-820.69 2162.22,-816.01 2151.87,-813.75 2152.71,-820.69"/>
</g>
<!-- components/Footer/Footer.tsx&#45;&gt;assets/images/footer/google&#45;icon.png -->
<g id="edge20" class="edge">
<title>components/Footer/Footer.tsx&#45;&gt;assets/images/footer/google&#45;icon.png</title>
<path fill="none" stroke="#757575" d="M2014.41,-857.03C2057.28,-862.24 2108.07,-868.41 2152.07,-873.75"/>
<polygon fill="#757575" stroke="#757575" points="2151.87,-877.25 2162.22,-874.99 2152.71,-870.31 2151.87,-877.25"/>
</g>
<!-- components/Footer/Footer.tsx&#45;&gt;assets/images/logo.png -->
<g id="edge21" class="edge">
<title>components/Footer/Footer.tsx&#45;&gt;assets/images/logo.png</title>
<path fill="none" stroke="#757575" d="M1932.01,-857.23C1960.56,-883.5 2033.53,-947.89 2104,-987.5 2137.26,-1006.19 2177.62,-1021.48 2208.53,-1031.81"/>
<polygon fill="#757575" stroke="#757575" points="2207.62,-1035.19 2218.22,-1034.98 2209.81,-1028.54 2207.62,-1035.19"/>
</g>
<!-- components/Footer/Footer.tsx&#45;&gt;components/CustomButton/CustomButton.tsx -->
<g id="edge22" class="edge">
<title>components/Footer/Footer.tsx&#45;&gt;components/CustomButton/CustomButton.tsx</title>
<path fill="none" stroke="#757575" d="M1934.87,-833.97C1964.13,-811.36 2028.45,-758.42 2068,-701.5 2090.71,-668.81 2075.22,-646.99 2104,-619.5 2126.74,-597.77 2158.35,-583.81 2186.93,-574.96"/>
<polygon fill="#757575" stroke="#757575" points="2188.29,-578.21 2196.9,-572.04 2186.32,-571.49 2188.29,-578.21"/>
</g>
<!-- components/Footer/footer.scss -->
<g id="node32" class="node">
<title>components/Footer/footer.scss</title>
<path fill="none" stroke="#c6c5fe" d="M2358.33,-978C2358.33,-978 2157.67,-978 2157.67,-978 2153.83,-978 2150,-974.17 2150,-970.33 2150,-970.33 2150,-962.67 2150,-962.67 2150,-958.83 2153.83,-955 2157.67,-955 2157.67,-955 2358.33,-955 2358.33,-955 2362.17,-955 2366,-958.83 2366,-962.67 2366,-962.67 2366,-970.33 2366,-970.33 2366,-974.17 2362.17,-978 2358.33,-978"/>
<text text-anchor="middle" x="2258" y="-962.8" font-family="Arial" font-size="14.00" fill="#c6c5fe">components/Footer/footer.scss</text>
</g>
<!-- components/Footer/Footer.tsx&#45;&gt;components/Footer/footer.scss -->
<g id="edge23" class="edge">
<title>components/Footer/Footer.tsx&#45;&gt;components/Footer/footer.scss</title>
<path fill="none" stroke="#757575" d="M1937.27,-857.03C1969.26,-877.22 2039.23,-918.9 2104,-940.5 2119.13,-945.55 2135.45,-949.65 2151.6,-952.98"/>
<polygon fill="#757575" stroke="#757575" points="2151.13,-956.45 2161.61,-954.95 2152.48,-949.58 2151.13,-956.45"/>
</g>
<!-- styles/generalStyle.tsx -->
<g id="node33" class="node">
<title>styles/generalStyle.tsx</title>
<path fill="none" stroke="#c6c5fe" d="M2329.33,-652C2329.33,-652 2186.67,-652 2186.67,-652 2182.83,-652 2179,-648.17 2179,-644.33 2179,-644.33 2179,-636.67 2179,-636.67 2179,-632.83 2182.83,-629 2186.67,-629 2186.67,-629 2329.33,-629 2329.33,-629 2333.17,-629 2337,-632.83 2337,-636.67 2337,-636.67 2337,-644.33 2337,-644.33 2337,-648.17 2333.17,-652 2329.33,-652"/>
<text text-anchor="middle" x="2258" y="-636.8" font-family="Arial" font-size="14.00" fill="#c6c5fe">styles/generalStyle.tsx</text>
</g>
<!-- components/Footer/Footer.tsx&#45;&gt;styles/generalStyle.tsx -->
<g id="edge25" class="edge">
<title>components/Footer/Footer.tsx&#45;&gt;styles/generalStyle.tsx</title>
<path fill="none" stroke="#757575" d="M1932.15,-833.88C1958.21,-809.81 2019.47,-752.49 2068,-701.5 2084.72,-683.93 2082.6,-671.91 2104,-660.5 2123.68,-650 2146.74,-644.22 2168.9,-641.19"/>
<polygon fill="#757575" stroke="#757575" points="2169.48,-644.64 2179,-639.99 2168.66,-637.69 2169.48,-644.64"/>
</g>
<!-- components/Footer/footer.scss&#45;&gt;assets/sass/_Variables.scss -->
<g id="edge26" class="edge">
<title>components/Footer/footer.scss&#45;&gt;assets/sass/_Variables.scss</title>
<path fill="none" stroke="#757575" d="M2300.23,-978.1C2332.18,-988.14 2376.79,-1004.51 2412,-1026.5 2486.7,-1073.14 2558.83,-1150.26 2590.38,-1186.09"/>
<polygon fill="#757575" stroke="#757575" points="2587.96,-1188.64 2597.17,-1193.87 2593.24,-1184.04 2587.96,-1188.64"/>
</g>
<!-- styles/generalStyle.tsx&#45;&gt;lang/local.tsx -->
<g id="edge104" class="edge">
<title>styles/generalStyle.tsx&#45;&gt;lang/local.tsx</title>
<path fill="none" stroke="#757575" d="M2337.1,-649.7C2401.28,-657.26 2490.77,-667.81 2548.8,-674.64"/>
<polygon fill="#757575" stroke="#757575" points="2548.56,-678.14 2558.9,-675.83 2549.38,-671.19 2548.56,-678.14"/>
</g>
<!-- components/Header/Header.scss -->
<g id="node34" class="node">
<title>components/Header/Header.scss</title>
<path fill="none" stroke="#c6c5fe" d="M2365.33,-1217C2365.33,-1217 2150.67,-1217 2150.67,-1217 2146.83,-1217 2143,-1213.17 2143,-1209.33 2143,-1209.33 2143,-1201.67 2143,-1201.67 2143,-1197.83 2146.83,-1194 2150.67,-1194 2150.67,-1194 2365.33,-1194 2365.33,-1194 2369.17,-1194 2373,-1197.83 2373,-1201.67 2373,-1201.67 2373,-1209.33 2373,-1209.33 2373,-1213.17 2369.17,-1217 2365.33,-1217"/>
<text text-anchor="middle" x="2258" y="-1201.8" font-family="Arial" font-size="14.00" fill="#c6c5fe">components/Header/Header.scss</text>
</g>
<!-- components/Header/Header.scss&#45;&gt;assets/sass/_Variables.scss -->
<g id="edge27" class="edge">
<title>components/Header/Header.scss&#45;&gt;assets/sass/_Variables.scss</title>
<path fill="none" stroke="#757575" d="M2373.43,-1205.5C2413.97,-1205.5 2459.42,-1205.5 2499.38,-1205.5"/>
<polygon fill="#757575" stroke="#757575" points="2499.41,-1209 2509.41,-1205.5 2499.41,-1202 2499.41,-1209"/>
</g>
<!-- components/Header/Header.tsx&#45;&gt;lang/local.tsx -->
<g id="edge32" class="edge">
<title>components/Header/Header.tsx&#45;&gt;lang/local.tsx</title>
<path fill="none" stroke="#757575" d="M1940.6,-1058.07C2013.01,-1096.07 2255.59,-1209.02 2412,-1108.5 2559.4,-1013.77 2596.75,-776.98 2604.94,-703.56"/>
<polygon fill="#757575" stroke="#757575" points="2608.46,-703.54 2606.01,-693.23 2601.5,-702.81 2608.46,-703.54"/>
</g>
<!-- components/Header/Header.tsx&#45;&gt;assets/images/logo.png -->
<g id="edge28" class="edge">
<title>components/Header/Header.tsx&#45;&gt;assets/images/logo.png</title>
<path fill="none" stroke="#757575" d="M2027.68,-1046.5C2071.41,-1046.5 2121.39,-1046.5 2163.51,-1046.5"/>
<polygon fill="#757575" stroke="#757575" points="2163.76,-1050 2173.76,-1046.5 2163.76,-1043 2163.76,-1050"/>
</g>
<!-- components/Header/Header.tsx&#45;&gt;components/CustomButton/CustomButton.tsx -->
<g id="edge29" class="edge">
<title>components/Header/Header.tsx&#45;&gt;components/CustomButton/CustomButton.tsx</title>
<path fill="none" stroke="#757575" d="M1932.99,-1034.98C1962.98,-1008.5 2035.13,-939.85 2068,-865.5 2112.67,-764.43 2035.03,-705.83 2104,-619.5 2121.57,-597.51 2148.38,-583.71 2174.68,-575.04"/>
<polygon fill="#757575" stroke="#757575" points="2175.8,-578.36 2184.33,-572.08 2173.74,-571.67 2175.8,-578.36"/>
</g>
<!-- components/Header/Header.tsx&#45;&gt;styles/generalStyle.tsx -->
<g id="edge33" class="edge">
<title>components/Header/Header.tsx&#45;&gt;styles/generalStyle.tsx</title>
<path fill="none" stroke="#757575" d="M1932.84,-1034.91C1962.52,-1008.29 2034.08,-939.38 2068,-865.5 2106.6,-781.43 2037.17,-724.46 2104,-660.5 2121.27,-643.97 2145.1,-636.53 2168.81,-633.86"/>
<polygon fill="#757575" stroke="#757575" points="2169.28,-637.33 2178.94,-632.99 2168.68,-630.36 2169.28,-637.33"/>
</g>
<!-- components/Header/Header.tsx&#45;&gt;components/Header/Header.scss -->
<g id="edge30" class="edge">
<title>components/Header/Header.tsx&#45;&gt;components/Header/Header.scss</title>
<path fill="none" stroke="#757575" d="M1940.54,-1058.03C1974.51,-1076.48 2043.74,-1113.44 2104,-1141.5 2142.15,-1159.27 2186.62,-1177.61 2217.75,-1190.08"/>
<polygon fill="#757575" stroke="#757575" points="2216.78,-1193.46 2227.37,-1193.92 2219.37,-1186.96 2216.78,-1193.46"/>
</g>
<!-- components/Header/Language.tsx -->
<g id="node36" class="node">
<title>components/Header/Language.tsx</title>
<path fill="none" stroke="#c6c5fe" d="M2367.33,-1099C2367.33,-1099 2148.67,-1099 2148.67,-1099 2144.83,-1099 2141,-1095.17 2141,-1091.33 2141,-1091.33 2141,-1083.67 2141,-1083.67 2141,-1079.83 2144.83,-1076 2148.67,-1076 2148.67,-1076 2367.33,-1076 2367.33,-1076 2371.17,-1076 2375,-1079.83 2375,-1083.67 2375,-1083.67 2375,-1091.33 2375,-1091.33 2375,-1095.17 2371.17,-1099 2367.33,-1099"/>
<text text-anchor="middle" x="2258" y="-1083.8" font-family="Arial" font-size="14.00" fill="#c6c5fe">components/Header/Language.tsx</text>
</g>
<!-- components/Header/Header.tsx&#45;&gt;components/Header/Language.tsx -->
<g id="edge31" class="edge">
<title>components/Header/Header.tsx&#45;&gt;components/Header/Language.tsx</title>
<path fill="none" stroke="#757575" d="M2014.41,-1058.03C2057.28,-1063.24 2108.07,-1069.41 2152.07,-1074.75"/>
<polygon fill="#757575" stroke="#757575" points="2151.87,-1078.25 2162.22,-1075.99 2152.71,-1071.31 2151.87,-1078.25"/>
</g>
<!-- components/Header/Language.tsx&#45;&gt;lang/local.tsx -->
<g id="edge34" class="edge">
<title>components/Header/Language.tsx&#45;&gt;lang/local.tsx</title>
<path fill="none" stroke="#757575" d="M2375.15,-1084.65C2388.33,-1080.84 2400.96,-1075.32 2412,-1067.5 2542,-975.37 2590.47,-770.72 2603.25,-703.42"/>
<polygon fill="#757575" stroke="#757575" points="2606.77,-703.63 2605.12,-693.17 2599.88,-702.38 2606.77,-703.63"/>
</g>
<!-- components/Sidebar/Sidebar.css -->
<g id="node37" class="node">
<title>components/Sidebar/Sidebar.css</title>
<path fill="none" stroke="#cfffac" d="M1359.33,-978C1359.33,-978 1146.67,-978 1146.67,-978 1142.83,-978 1139,-974.17 1139,-970.33 1139,-970.33 1139,-962.67 1139,-962.67 1139,-958.83 1142.83,-955 1146.67,-955 1146.67,-955 1359.33,-955 1359.33,-955 1363.17,-955 1367,-958.83 1367,-962.67 1367,-962.67 1367,-970.33 1367,-970.33 1367,-974.17 1363.17,-978 1359.33,-978"/>
<text text-anchor="middle" x="1253" y="-962.8" font-family="Arial" font-size="14.00" fill="#cfffac">components/Sidebar/Sidebar.css</text>
</g>
<!-- components/Sidebar/Sidebar.tsx&#45;&gt;lang/local.tsx -->
<g id="edge36" class="edge">
<title>components/Sidebar/Sidebar.tsx&#45;&gt;lang/local.tsx</title>
<path fill="none" stroke="#757575" d="M1103.04,-1006.5C1218.85,-1006.5 1405.66,-1006.5 1567,-1006.5 1567,-1006.5 1567,-1006.5 1919.5,-1006.5 2029.03,-1006.5 2317.01,-1042.02 2412,-987.5 2525.67,-922.26 2583.38,-760.96 2601,-702.82"/>
<polygon fill="#757575" stroke="#757575" points="2604.37,-703.79 2603.83,-693.21 2597.65,-701.81 2604.37,-703.79"/>
</g>
<!-- components/Sidebar/Sidebar.tsx&#45;&gt;components/Sidebar/Sidebar.css -->
<g id="edge35" class="edge">
<title>components/Sidebar/Sidebar.tsx&#45;&gt;components/Sidebar/Sidebar.css</title>
<path fill="none" stroke="#757575" d="M1066.85,-994.98C1098.26,-990.15 1134.94,-984.51 1167.32,-979.53"/>
<polygon fill="#757575" stroke="#757575" points="1167.87,-982.98 1177.22,-978 1166.81,-976.07 1167.87,-982.98"/>
</g>
<!-- config/env.config.tsx -->
<g id="node39" class="node">
<title>config/env.config.tsx</title>
<path fill="none" stroke="#cfffac" d="M2673.33,-23C2673.33,-23 2542.67,-23 2542.67,-23 2538.83,-23 2535,-19.17 2535,-15.33 2535,-15.33 2535,-7.67 2535,-7.67 2535,-3.83 2538.83,0 2542.67,0 2542.67,0 2673.33,0 2673.33,0 2677.17,0 2681,-3.83 2681,-7.67 2681,-7.67 2681,-15.33 2681,-15.33 2681,-19.17 2677.17,-23 2673.33,-23"/>
<text text-anchor="middle" x="2608" y="-7.8" font-family="Arial" font-size="14.00" fill="#cfffac">config/env.config.tsx</text>
</g>
<!-- core/interfaces/IError.tsx -->
<g id="node40" class="node">
<title>core/interfaces/IError.tsx</title>
<path fill="none" stroke="#cfffac" d="M3017.33,-105C3017.33,-105 2859.67,-105 2859.67,-105 2855.83,-105 2852,-101.17 2852,-97.33 2852,-97.33 2852,-89.67 2852,-89.67 2852,-85.83 2855.83,-82 2859.67,-82 2859.67,-82 3017.33,-82 3017.33,-82 3021.17,-82 3025,-85.83 3025,-89.67 3025,-89.67 3025,-97.33 3025,-97.33 3025,-101.17 3021.17,-105 3017.33,-105"/>
<text text-anchor="middle" x="2938.5" y="-89.8" font-family="Arial" font-size="14.00" fill="#cfffac">core/interfaces/IError.tsx</text>
</g>
<!-- data/banner.json -->
<g id="node42" class="node">
<title>data/banner.json</title>
<path fill="none" stroke="#cfffac" d="M2310.83,-69C2310.83,-69 2205.17,-69 2205.17,-69 2201.33,-69 2197.5,-65.17 2197.5,-61.33 2197.5,-61.33 2197.5,-53.67 2197.5,-53.67 2197.5,-49.83 2201.33,-46 2205.17,-46 2205.17,-46 2310.83,-46 2310.83,-46 2314.67,-46 2318.5,-49.83 2318.5,-53.67 2318.5,-53.67 2318.5,-61.33 2318.5,-61.33 2318.5,-65.17 2314.67,-69 2310.83,-69"/>
<text text-anchor="middle" x="2258" y="-53.8" font-family="Arial" font-size="14.00" fill="#cfffac">data/banner.json</text>
</g>
<!-- data/things.tsx -->
<g id="node43" class="node">
<title>data/things.tsx</title>
<path fill="none" stroke="#c6c5fe" d="M2303.83,-246C2303.83,-246 2212.17,-246 2212.17,-246 2208.33,-246 2204.5,-242.17 2204.5,-238.33 2204.5,-238.33 2204.5,-230.67 2204.5,-230.67 2204.5,-226.83 2208.33,-223 2212.17,-223 2212.17,-223 2303.83,-223 2303.83,-223 2307.67,-223 2311.5,-226.83 2311.5,-230.67 2311.5,-230.67 2311.5,-238.33 2311.5,-238.33 2311.5,-242.17 2307.67,-246 2303.83,-246"/>
<text text-anchor="middle" x="2258" y="-230.8" font-family="Arial" font-size="14.00" fill="#c6c5fe">data/things.tsx</text>
</g>
<!-- data/things.tsx&#45;&gt;assets/images/things/w1.png -->
<g id="edge37" class="edge">
<title>data/things.tsx&#45;&gt;assets/images/things/w1.png</title>
<path fill="none" stroke="#757575" d="M2311.69,-235.72C2341.83,-237.81 2379.91,-242.81 2412,-254.5 2429.84,-261 2430.16,-270.99 2448,-277.5 2463.74,-283.25 2480.87,-287.45 2497.87,-290.52"/>
<polygon fill="#757575" stroke="#757575" points="2497.4,-293.99 2507.84,-292.2 2498.56,-287.09 2497.4,-293.99"/>
</g>
<!-- data/things.tsx&#45;&gt;assets/images/things/w2.png -->
<g id="edge38" class="edge">
<title>data/things.tsx&#45;&gt;assets/images/things/w2.png</title>
<path fill="none" stroke="#757575" d="M2311.85,-237.99C2360.93,-241.24 2435.55,-246.17 2497.47,-250.26"/>
<polygon fill="#757575" stroke="#757575" points="2497.48,-253.77 2507.69,-250.94 2497.94,-246.78 2497.48,-253.77"/>
</g>
<!-- data/things.tsx&#45;&gt;assets/images/things/w3.png -->
<g id="edge39" class="edge">
<title>data/things.tsx&#45;&gt;assets/images/things/w3.png</title>
<path fill="none" stroke="#757575" d="M2311.85,-231.77C2360.93,-229.23 2435.55,-225.37 2497.47,-222.17"/>
<polygon fill="#757575" stroke="#757575" points="2497.88,-225.65 2507.69,-221.64 2497.52,-218.66 2497.88,-225.65"/>
</g>
<!-- data/things.tsx&#45;&gt;assets/images/things/w4.png -->
<g id="edge40" class="edge">
<title>data/things.tsx&#45;&gt;assets/images/things/w4.png</title>
<path fill="none" stroke="#757575" d="M2311.55,-228.31C2343.89,-227.4 2384.31,-231.87 2412,-254.5 2450.2,-285.72 2409.82,-328.25 2448,-359.5 2462.18,-371.11 2479.58,-378.13 2497.6,-382.17"/>
<polygon fill="#757575" stroke="#757575" points="2497.18,-385.65 2507.66,-384.11 2498.51,-378.78 2497.18,-385.65"/>
</g>
<!-- data/things.tsx&#45;&gt;assets/images/things/w5.png -->
<g id="edge41" class="edge">
<title>data/things.tsx&#45;&gt;assets/images/things/w5.png</title>
<path fill="none" stroke="#757575" d="M2311.65,-230.1C2343.24,-230.04 2382.81,-234.78 2412,-254.5 2439.04,-272.77 2420.97,-300.21 2448,-318.5 2462.79,-328.51 2480.14,-334.82 2497.85,-338.66"/>
<polygon fill="#757575" stroke="#757575" points="2497.23,-342.1 2507.71,-340.54 2498.55,-335.23 2497.23,-342.1"/>
</g>
<!-- hooks/useToggle.tsx -->
<g id="node44" class="node">
<title>hooks/useToggle.tsx</title>
<path fill="none" stroke="#cfffac" d="M216.33,-1059C216.33,-1059 82.67,-1059 82.67,-1059 78.83,-1059 75,-1055.17 75,-1051.33 75,-1051.33 75,-1043.67 75,-1043.67 75,-1039.83 78.83,-1036 82.67,-1036 82.67,-1036 216.33,-1036 216.33,-1036 220.17,-1036 224,-1039.83 224,-1043.67 224,-1043.67 224,-1051.33 224,-1051.33 224,-1055.17 220.17,-1059 216.33,-1059"/>
<text text-anchor="middle" x="149.5" y="-1043.8" font-family="Arial" font-size="14.00" fill="#cfffac">hooks/useToggle.tsx</text>
</g>
<!-- index.css -->
<g id="node45" class="node">
<title>index.css</title>
<path fill="none" stroke="#cfffac" d="M506.33,-936C506.33,-936 444.67,-936 444.67,-936 440.83,-936 437,-932.17 437,-928.33 437,-928.33 437,-920.67 437,-920.67 437,-916.83 440.83,-913 444.67,-913 444.67,-913 506.33,-913 506.33,-913 510.17,-913 514,-916.83 514,-920.67 514,-920.67 514,-928.33 514,-928.33 514,-932.17 510.17,-936 506.33,-936"/>
<text text-anchor="middle" x="475.5" y="-920.8" font-family="Arial" font-size="14.00" fill="#cfffac">index.css</text>
</g>
<!-- index.tsx -->
<g id="node46" class="node">
<title>index.tsx</title>
<path fill="none" stroke="#c6c5fe" d="M177.83,-977C177.83,-977 121.17,-977 121.17,-977 117.33,-977 113.5,-973.17 113.5,-969.33 113.5,-969.33 113.5,-961.67 113.5,-961.67 113.5,-957.83 117.33,-954 121.17,-954 121.17,-954 177.83,-954 177.83,-954 181.67,-954 185.5,-957.83 185.5,-961.67 185.5,-961.67 185.5,-969.33 185.5,-969.33 185.5,-973.17 181.67,-977 177.83,-977"/>
<text text-anchor="middle" x="149.5" y="-961.8" font-family="Arial" font-size="14.00" fill="#c6c5fe">index.tsx</text>
</g>
<!-- index.tsx&#45;&gt;App.tsx -->
<g id="edge42" class="edge">
<title>index.tsx&#45;&gt;App.tsx</title>
<path fill="none" stroke="#757575" d="M185.79,-969.97C245.92,-977.57 367.95,-993.02 432.42,-1001.17"/>
<polygon fill="#757575" stroke="#757575" points="432.27,-1004.68 442.63,-1002.47 433.15,-997.74 432.27,-1004.68"/>
</g>
<!-- index.tsx&#45;&gt;index.css -->
<g id="edge43" class="edge">
<title>index.tsx&#45;&gt;index.css</title>
<path fill="none" stroke="#757575" d="M185.79,-961.03C244.17,-953.65 360.92,-938.87 426.66,-930.55"/>
<polygon fill="#757575" stroke="#757575" points="427.28,-934 436.76,-929.28 426.4,-927.06 427.28,-934"/>
</g>
<!-- reportWebVitals.ts -->
<g id="node47" class="node">
<title>reportWebVitals.ts</title>
<path fill="none" stroke="#cfffac" d="M534.83,-977C534.83,-977 416.17,-977 416.17,-977 412.33,-977 408.5,-973.17 408.5,-969.33 408.5,-969.33 408.5,-961.67 408.5,-961.67 408.5,-957.83 412.33,-954 416.17,-954 416.17,-954 534.83,-954 534.83,-954 538.67,-954 542.5,-957.83 542.5,-961.67 542.5,-961.67 542.5,-969.33 542.5,-969.33 542.5,-973.17 538.67,-977 534.83,-977"/>
<text text-anchor="middle" x="475.5" y="-961.8" font-family="Arial" font-size="14.00" fill="#cfffac">reportWebVitals.ts</text>
</g>
<!-- index.tsx&#45;&gt;reportWebVitals.ts -->
<g id="edge44" class="edge">
<title>index.tsx&#45;&gt;reportWebVitals.ts</title>
<path fill="none" stroke="#757575" d="M185.79,-965.5C236.49,-965.5 331.21,-965.5 398.32,-965.5"/>
<polygon fill="#757575" stroke="#757575" points="398.43,-969 408.43,-965.5 398.43,-962 398.43,-969"/>
</g>
<!-- infrastructure/services/cookies&#45;service.tsx -->
<g id="node48" class="node">
<title>infrastructure/services/cookies&#45;service.tsx</title>
<path fill="none" stroke="#cfffac" d="M608.33,-1100C608.33,-1100 342.67,-1100 342.67,-1100 338.83,-1100 335,-1096.17 335,-1092.33 335,-1092.33 335,-1084.67 335,-1084.67 335,-1080.83 338.83,-1077 342.67,-1077 342.67,-1077 608.33,-1077 608.33,-1077 612.17,-1077 616,-1080.83 616,-1084.67 616,-1084.67 616,-1092.33 616,-1092.33 616,-1096.17 612.17,-1100 608.33,-1100"/>
<text text-anchor="middle" x="475.5" y="-1084.8" font-family="Arial" font-size="14.00" fill="#cfffac">infrastructure/services/cookies&#45;service.tsx</text>
</g>
<!-- infrastructure/services/http&#45;service.tsx -->
<g id="node49" class="node">
<title>infrastructure/services/http&#45;service.tsx</title>
<path fill="none" stroke="#c6c5fe" d="M2377.33,-110C2377.33,-110 2138.67,-110 2138.67,-110 2134.83,-110 2131,-106.17 2131,-102.33 2131,-102.33 2131,-94.67 2131,-94.67 2131,-90.83 2134.83,-87 2138.67,-87 2138.67,-87 2377.33,-87 2377.33,-87 2381.17,-87 2385,-90.83 2385,-94.67 2385,-94.67 2385,-102.33 2385,-102.33 2385,-106.17 2381.17,-110 2377.33,-110"/>
<text text-anchor="middle" x="2258" y="-94.8" font-family="Arial" font-size="14.00" fill="#c6c5fe">infrastructure/services/http&#45;service.tsx</text>
</g>
<!-- infrastructure/services/http&#45;service.tsx&#45;&gt;config/env.config.tsx -->
<g id="edge45" class="edge">
<title>infrastructure/services/http&#45;service.tsx&#45;&gt;config/env.config.tsx</title>
<path fill="none" stroke="#757575" d="M2385.23,-89.28C2394.59,-86.18 2403.63,-82.31 2412,-77.5 2434.51,-64.56 2425.42,-44.31 2448,-31.5 2470.97,-18.47 2498.76,-12.36 2524.64,-9.82"/>
<polygon fill="#757575" stroke="#757575" points="2525.14,-13.29 2534.83,-8.99 2524.57,-6.31 2525.14,-13.29"/>
</g>
<!-- infrastructure/services/interceptor&#45;service.tsx -->
<g id="node50" class="node">
<title>infrastructure/services/interceptor&#45;service.tsx</title>
<path fill="none" stroke="#c6c5fe" d="M291.33,-1100C291.33,-1100 7.67,-1100 7.67,-1100 3.83,-1100 0,-1096.17 0,-1092.33 0,-1092.33 0,-1084.67 0,-1084.67 0,-1080.83 3.83,-1077 7.67,-1077 7.67,-1077 291.33,-1077 291.33,-1077 295.17,-1077 299,-1080.83 299,-1084.67 299,-1084.67 299,-1092.33 299,-1092.33 299,-1096.17 295.17,-1100 291.33,-1100"/>
<text text-anchor="middle" x="149.5" y="-1084.8" font-family="Arial" font-size="14.00" fill="#c6c5fe">infrastructure/services/interceptor&#45;service.tsx</text>
</g>
<!-- infrastructure/services/interceptor&#45;service.tsx&#45;&gt;infrastructure/services/cookies&#45;service.tsx -->
<g id="edge46" class="edge">
<title>infrastructure/services/interceptor&#45;service.tsx&#45;&gt;infrastructure/services/cookies&#45;service.tsx</title>
<path fill="none" stroke="#757575" d="M299.22,-1088.5C307.62,-1088.5 316.07,-1088.5 324.47,-1088.5"/>
<polygon fill="#757575" stroke="#757575" points="324.69,-1092 334.69,-1088.5 324.69,-1085 324.69,-1092"/>
</g>
<!-- infrastructure/services/storage&#45;service.tsx -->
<g id="node51" class="node">
<title>infrastructure/services/storage&#45;service.tsx</title>
<path fill="none" stroke="#cfffac" d="M281.33,-1141C281.33,-1141 17.67,-1141 17.67,-1141 13.83,-1141 10,-1137.17 10,-1133.33 10,-1133.33 10,-1125.67 10,-1125.67 10,-1121.83 13.83,-1118 17.67,-1118 17.67,-1118 281.33,-1118 281.33,-1118 285.17,-1118 289,-1121.83 289,-1125.67 289,-1125.67 289,-1133.33 289,-1133.33 289,-1137.17 285.17,-1141 281.33,-1141"/>
<text text-anchor="middle" x="149.5" y="-1125.8" font-family="Arial" font-size="14.00" fill="#cfffac">infrastructure/services/storage&#45;service.tsx</text>
</g>
<!-- modules/Home/Home.scss -->
<g id="node54" class="node">
<title>modules/Home/Home.scss</title>
<path fill="none" stroke="#cfffac" d="M2344.83,-328C2344.83,-328 2171.17,-328 2171.17,-328 2167.33,-328 2163.5,-324.17 2163.5,-320.33 2163.5,-320.33 2163.5,-312.67 2163.5,-312.67 2163.5,-308.83 2167.33,-305 2171.17,-305 2171.17,-305 2344.83,-305 2344.83,-305 2348.67,-305 2352.5,-308.83 2352.5,-312.67 2352.5,-312.67 2352.5,-320.33 2352.5,-320.33 2352.5,-324.17 2348.67,-328 2344.83,-328"/>
<text text-anchor="middle" x="2258" y="-312.8" font-family="Arial" font-size="14.00" fill="#cfffac">modules/Home/Home.scss</text>
</g>
<!-- modules/Home/HomeController.tsx -->
<g id="node55" class="node">
<title>modules/Home/HomeController.tsx</title>
<path fill="none" stroke="#c6c5fe" d="M1679.83,-249C1679.83,-249 1456.17,-249 1456.17,-249 1452.33,-249 1448.5,-245.17 1448.5,-241.33 1448.5,-241.33 1448.5,-233.67 1448.5,-233.67 1448.5,-229.83 1452.33,-226 1456.17,-226 1456.17,-226 1679.83,-226 1679.83,-226 1683.67,-226 1687.5,-229.83 1687.5,-233.67 1687.5,-233.67 1687.5,-241.33 1687.5,-241.33 1687.5,-245.17 1683.67,-249 1679.83,-249"/>
<text text-anchor="middle" x="1568" y="-233.8" font-family="Arial" font-size="14.00" fill="#c6c5fe">modules/Home/HomeController.tsx</text>
</g>
<!-- modules/Home/HomeController.tsx&#45;&gt;redux/store.tsx -->
<g id="edge53" class="edge">
<title>modules/Home/HomeController.tsx&#45;&gt;redux/store.tsx</title>
<path fill="none" stroke="#757575" d="M1670.52,-225.99C1814.16,-209.71 2072.58,-180.41 2192.56,-166.81"/>
<polygon fill="#757575" stroke="#757575" points="2193.14,-170.26 2202.69,-165.66 2192.36,-163.31 2193.14,-170.26"/>
</g>
<!-- modules/Home/HomeView.tsx -->
<g id="node56" class="node">
<title>modules/Home/HomeView.tsx</title>
<path fill="none" stroke="#c6c5fe" d="M2014.83,-409C2014.83,-409 1822.17,-409 1822.17,-409 1818.33,-409 1814.5,-405.17 1814.5,-401.33 1814.5,-401.33 1814.5,-393.67 1814.5,-393.67 1814.5,-389.83 1818.33,-386 1822.17,-386 1822.17,-386 2014.83,-386 2014.83,-386 2018.67,-386 2022.5,-389.83 2022.5,-393.67 2022.5,-393.67 2022.5,-401.33 2022.5,-401.33 2022.5,-405.17 2018.67,-409 2014.83,-409"/>
<text text-anchor="middle" x="1918.5" y="-393.8" font-family="Arial" font-size="14.00" fill="#c6c5fe">modules/Home/HomeView.tsx</text>
</g>
<!-- modules/Home/HomeController.tsx&#45;&gt;modules/Home/HomeView.tsx -->
<g id="edge50" class="edge">
<title>modules/Home/HomeController.tsx&#45;&gt;modules/Home/HomeView.tsx</title>
<path fill="none" stroke="#757575" d="M1687.87,-235.45C1704.35,-239.67 1720.05,-246.61 1733,-257.5 1775.29,-293.06 1727.05,-340.53 1769,-376.5 1779.24,-385.28 1791.41,-391.36 1804.32,-395.49"/>
<polygon fill="#757575" stroke="#757575" points="1803.74,-398.96 1814.32,-398.27 1805.62,-392.22 1803.74,-398.96"/>
</g>
<!-- modules/Home/homeService.tsx -->
<g id="node57" class="node">
<title>modules/Home/homeService.tsx</title>
<path fill="none" stroke="#c6c5fe" d="M2022.33,-90C2022.33,-90 1814.67,-90 1814.67,-90 1810.83,-90 1807,-86.17 1807,-82.33 1807,-82.33 1807,-74.67 1807,-74.67 1807,-70.83 1810.83,-67 1814.67,-67 1814.67,-67 2022.33,-67 2022.33,-67 2026.17,-67 2030,-70.83 2030,-74.67 2030,-74.67 2030,-82.33 2030,-82.33 2030,-86.17 2026.17,-90 2022.33,-90"/>
<text text-anchor="middle" x="1918.5" y="-74.8" font-family="Arial" font-size="14.00" fill="#c6c5fe">modules/Home/homeService.tsx</text>
</g>
<!-- modules/Home/HomeController.tsx&#45;&gt;modules/Home/homeService.tsx -->
<g id="edge51" class="edge">
<title>modules/Home/HomeController.tsx&#45;&gt;modules/Home/homeService.tsx</title>
<path fill="none" stroke="#757575" d="M1590.61,-225.93C1626.97,-206.64 1702.92,-167.08 1769,-137.5 1804.83,-121.46 1846.42,-105.13 1876.46,-93.72"/>
<polygon fill="#757575" stroke="#757575" points="1878.06,-96.86 1886.18,-90.05 1875.58,-90.31 1878.06,-96.86"/>
</g>
<!-- redux/hooks.ts -->
<g id="node58" class="node">
<title>redux/hooks.ts</title>
<path fill="none" stroke="#c6c5fe" d="M1965.33,-250C1965.33,-250 1871.67,-250 1871.67,-250 1867.83,-250 1864,-246.17 1864,-242.33 1864,-242.33 1864,-234.67 1864,-234.67 1864,-230.83 1867.83,-227 1871.67,-227 1871.67,-227 1965.33,-227 1965.33,-227 1969.17,-227 1973,-230.83 1973,-234.67 1973,-234.67 1973,-242.33 1973,-242.33 1973,-246.17 1969.17,-250 1965.33,-250"/>
<text text-anchor="middle" x="1918.5" y="-234.8" font-family="Arial" font-size="14.00" fill="#c6c5fe">redux/hooks.ts</text>
</g>
<!-- modules/Home/HomeController.tsx&#45;&gt;redux/hooks.ts -->
<g id="edge52" class="edge">
<title>modules/Home/HomeController.tsx&#45;&gt;redux/hooks.ts</title>
<path fill="none" stroke="#757575" d="M1687.96,-237.84C1743.5,-238 1807.41,-238.18 1853.67,-238.32"/>
<polygon fill="#757575" stroke="#757575" points="1853.84,-241.82 1863.85,-238.35 1853.86,-234.82 1853.84,-241.82"/>
</g>
<!-- modules/Home/HomeView.tsx&#45;&gt;lang/local.tsx -->
<g id="edge57" class="edge">
<title>modules/Home/HomeView.tsx&#45;&gt;lang/local.tsx</title>
<path fill="none" stroke="#757575" d="M2022.51,-387.29C2149.38,-377.06 2355.11,-368.91 2412,-416.5 2469.24,-464.38 2405.22,-519.35 2448,-580.5 2477,-621.95 2529,-650.18 2565.62,-666.04"/>
<polygon fill="#757575" stroke="#757575" points="2564.47,-669.35 2575.04,-669.99 2567.18,-662.89 2564.47,-669.35"/>
</g>
<!-- modules/Home/HomeView.tsx&#45;&gt;assets/icons/Homeicon.tsx -->
<g id="edge54" class="edge">
<title>modules/Home/HomeView.tsx&#45;&gt;assets/icons/Homeicon.tsx</title>
<path fill="none" stroke="#757575" d="M2022.74,-396.63C2039.02,-392.77 2054.8,-386.46 2068,-376.5 2099.44,-352.77 2072.43,-319.07 2104,-295.5 2118.67,-284.55 2136.41,-278.02 2154.54,-274.33"/>
<polygon fill="#757575" stroke="#757575" points="2155.39,-277.73 2164.63,-272.56 2154.18,-270.84 2155.39,-277.73"/>
</g>
<!-- modules/Home/HomeView.tsx&#45;&gt;assets/images/home/h1.png -->
<g id="edge55" class="edge">
<title>modules/Home/HomeView.tsx&#45;&gt;assets/images/home/h1.png</title>
<path fill="none" stroke="#757575" d="M2016.67,-385.98C2058.31,-381.05 2107.1,-375.27 2149.79,-370.21"/>
<polygon fill="#757575" stroke="#757575" points="2150.42,-373.66 2159.94,-369 2149.59,-366.71 2150.42,-373.66"/>
</g>
<!-- modules/Home/HomeView.tsx&#45;&gt;components/CustomButton/CustomButton.tsx -->
<g id="edge56" class="edge">
<title>modules/Home/HomeView.tsx&#45;&gt;components/CustomButton/CustomButton.tsx</title>
<path fill="none" stroke="#757575" d="M1939.87,-409.09C1969.61,-426.5 2025.95,-461.34 2068,-498.5 2086.17,-514.56 2082.64,-528.02 2104,-539.5 2107.96,-541.63 2112.06,-543.57 2116.26,-545.34"/>
<polygon fill="#757575" stroke="#757575" points="2115.01,-548.61 2125.6,-548.93 2117.52,-542.07 2115.01,-548.61"/>
</g>
<!-- modules/Home/HomeView.tsx&#45;&gt;styles/generalStyle.tsx -->
<g id="edge59" class="edge">
<title>modules/Home/HomeView.tsx&#45;&gt;styles/generalStyle.tsx</title>
<path fill="none" stroke="#757575" d="M1944.77,-409.11C1977.18,-425.12 2033.32,-456.78 2068,-498.5 2093.45,-529.11 2075.3,-552.92 2104,-580.5 2127.2,-602.79 2159.64,-617.08 2188.69,-626.1"/>
<polygon fill="#757575" stroke="#757575" points="2187.81,-629.49 2198.39,-628.96 2189.79,-622.78 2187.81,-629.49"/>
</g>
<!-- modules/Home/HomeView.tsx&#45;&gt;modules/Home/Home.scss -->
<g id="edge58" class="edge">
<title>modules/Home/HomeView.tsx&#45;&gt;modules/Home/Home.scss</title>
<path fill="none" stroke="#757575" d="M2022.71,-392.42C2038.47,-388.98 2054.1,-383.9 2068,-376.5 2089.11,-365.26 2082.83,-347.63 2104,-336.5 2119.06,-328.58 2136.07,-323.36 2153.14,-319.99"/>
<polygon fill="#757575" stroke="#757575" points="2153.94,-323.4 2163.18,-318.21 2152.72,-316.51 2153.94,-323.4"/>
</g>
<!-- modules/Home/homeService.tsx&#45;&gt;redux/store.tsx -->
<g id="edge62" class="edge">
<title>modules/Home/homeService.tsx&#45;&gt;redux/store.tsx</title>
<path fill="none" stroke="#757575" d="M2002.24,-90.01C2023.83,-93.82 2046.95,-98.63 2068,-104.5 2084.54,-109.11 2087.68,-113.16 2104,-118.5 2134.98,-128.64 2170.07,-138.18 2198.82,-145.5"/>
<polygon fill="#757575" stroke="#757575" points="2198.16,-148.94 2208.71,-148 2199.87,-142.16 2198.16,-148.94"/>
</g>
<!-- modules/Home/homeService.tsx&#45;&gt;data/banner.json -->
<g id="edge60" class="edge">
<title>modules/Home/homeService.tsx&#45;&gt;data/banner.json</title>
<path fill="none" stroke="#757575" d="M2030.01,-71.62C2081.84,-68.4 2142.03,-64.65 2187.4,-61.83"/>
<polygon fill="#757575" stroke="#757575" points="2187.66,-65.32 2197.43,-61.21 2187.23,-58.33 2187.66,-65.32"/>
</g>
<!-- modules/Home/homeService.tsx&#45;&gt;infrastructure/services/http&#45;service.tsx -->
<g id="edge61" class="edge">
<title>modules/Home/homeService.tsx&#45;&gt;infrastructure/services/http&#45;service.tsx</title>
<path fill="none" stroke="#757575" d="M2030.01,-85.05C2058.94,-86.76 2090.47,-88.63 2120.58,-90.42"/>
<polygon fill="#757575" stroke="#757575" points="2120.54,-93.92 2130.73,-91.02 2120.96,-86.93 2120.54,-93.92"/>
</g>
<!-- redux/hooks.ts&#45;&gt;redux/store.tsx -->
<g id="edge92" class="edge">
<title>redux/hooks.ts&#45;&gt;redux/store.tsx</title>
<path fill="none" stroke="#757575" d="M1973.02,-230.46C2001.39,-225.86 2036.73,-219.6 2068,-212.5 2116.96,-201.38 2172.17,-185.5 2210.21,-174.03"/>
<polygon fill="#757575" stroke="#757575" points="2211.43,-177.32 2219.99,-171.07 2209.4,-170.62 2211.43,-177.32"/>
</g>
<!-- modules/Home/homeActions.tsx -->
<g id="node59" class="node">
<title>modules/Home/homeActions.tsx</title>
<path fill="none" stroke="#cfffac" d="M3041.83,-23C3041.83,-23 2835.17,-23 2835.17,-23 2831.33,-23 2827.5,-19.17 2827.5,-15.33 2827.5,-15.33 2827.5,-7.67 2827.5,-7.67 2827.5,-3.83 2831.33,0 2835.17,0 2835.17,0 3041.83,0 3041.83,0 3045.67,0 3049.5,-3.83 3049.5,-7.67 3049.5,-7.67 3049.5,-15.33 3049.5,-15.33 3049.5,-19.17 3045.67,-23 3041.83,-23"/>
<text text-anchor="middle" x="2938.5" y="-7.8" font-family="Arial" font-size="14.00" fill="#cfffac">modules/Home/homeActions.tsx</text>
</g>
<!-- modules/Home/homeSlice.tsx&#45;&gt;modules/Home/homeActions.tsx -->
<g id="edge63" class="edge">
<title>modules/Home/homeSlice.tsx&#45;&gt;modules/Home/homeActions.tsx</title>
<path fill="none" stroke="#757575" d="M2701.38,-40.97C2743.02,-35.77 2792.33,-29.62 2835.09,-24.28"/>
<polygon fill="#757575" stroke="#757575" points="2835.76,-27.73 2845.25,-23.01 2834.89,-20.78 2835.76,-27.73"/>
</g>
<!-- modules/Index.tsx -->
<g id="node61" class="node">
<title>modules/Index.tsx</title>
<path fill="none" stroke="#c6c5fe" d="M1311.33,-349C1311.33,-349 1194.67,-349 1194.67,-349 1190.83,-349 1187,-345.17 1187,-341.33 1187,-341.33 1187,-333.67 1187,-333.67 1187,-329.83 1190.83,-326 1194.67,-326 1194.67,-326 1311.33,-326 1311.33,-326 1315.17,-326 1319,-329.83 1319,-333.67 1319,-333.67 1319,-341.33 1319,-341.33 1319,-345.17 1315.17,-349 1311.33,-349"/>
<text text-anchor="middle" x="1253" y="-333.8" font-family="Arial" font-size="14.00" fill="#c6c5fe">modules/Index.tsx</text>
</g>
<!-- modules/Index.tsx&#45;&gt;components/Footer/Footer.tsx -->
<g id="edge64" class="edge">
<title>modules/Index.tsx&#45;&gt;components/Footer/Footer.tsx</title>
<path fill="none" stroke="#757575" d="M1269.1,-349.06C1355.69,-415.36 1788.84,-746.99 1894.31,-827.75"/>
<polygon fill="#757575" stroke="#757575" points="1892.35,-830.65 1902.42,-833.95 1896.61,-825.1 1892.35,-830.65"/>
</g>
<!-- modules/Index.tsx&#45;&gt;modules/Home/HomeController.tsx -->
<g id="edge65" class="edge">
<title>modules/Index.tsx&#45;&gt;modules/Home/HomeController.tsx</title>
<path fill="none" stroke="#757575" d="M1270.51,-325.95C1297.06,-308.01 1351.5,-273.83 1403,-257.5 1414.21,-253.94 1426.05,-251.01 1438.01,-248.6"/>
<polygon fill="#757575" stroke="#757575" points="1438.9,-251.99 1448.07,-246.69 1437.6,-245.12 1438.9,-251.99"/>
</g>
<!-- modules/News/NewsController.tsx -->
<g id="node62" class="node">
<title>modules/News/NewsController.tsx</title>
<path fill="none" stroke="#c6c5fe" d="M1676.83,-290C1676.83,-290 1459.17,-290 1459.17,-290 1455.33,-290 1451.5,-286.17 1451.5,-282.33 1451.5,-282.33 1451.5,-274.67 1451.5,-274.67 1451.5,-270.83 1455.33,-267 1459.17,-267 1459.17,-267 1676.83,-267 1676.83,-267 1680.67,-267 1684.5,-270.83 1684.5,-274.67 1684.5,-274.67 1684.5,-282.33 1684.5,-282.33 1684.5,-286.17 1680.67,-290 1676.83,-290"/>
<text text-anchor="middle" x="1568" y="-274.8" font-family="Arial" font-size="14.00" fill="#c6c5fe">modules/News/NewsController.tsx</text>
</g>
<!-- modules/Index.tsx&#45;&gt;modules/News/NewsController.tsx -->
<g id="edge66" class="edge">
<title>modules/Index.tsx&#45;&gt;modules/News/NewsController.tsx</title>
<path fill="none" stroke="#757575" d="M1315.09,-325.98C1366.93,-316.21 1441.35,-302.19 1495.86,-291.91"/>
<polygon fill="#757575" stroke="#757575" points="1496.62,-295.33 1505.79,-290.04 1495.32,-288.45 1496.62,-295.33"/>
</g>
<!-- modules/ThingsWeDo/ThingsWeDoController.tsx -->
<g id="node63" class="node">
<title>modules/ThingsWeDo/ThingsWeDoController.tsx</title>
<path fill="none" stroke="#c6c5fe" d="M1725.33,-349C1725.33,-349 1410.67,-349 1410.67,-349 1406.83,-349 1403,-345.17 1403,-341.33 1403,-341.33 1403,-333.67 1403,-333.67 1403,-329.83 1406.83,-326 1410.67,-326 1410.67,-326 1725.33,-326 1725.33,-326 1729.17,-326 1733,-329.83 1733,-333.67 1733,-333.67 1733,-341.33 1733,-341.33 1733,-345.17 1729.17,-349 1725.33,-349"/>
<text text-anchor="middle" x="1568" y="-333.8" font-family="Arial" font-size="14.00" fill="#c6c5fe">modules/ThingsWeDo/ThingsWeDoController.tsx</text>
</g>
<!-- modules/Index.tsx&#45;&gt;modules/ThingsWeDo/ThingsWeDoController.tsx -->
<g id="edge67" class="edge">
<title>modules/Index.tsx&#45;&gt;modules/ThingsWeDo/ThingsWeDoController.tsx</title>
<path fill="none" stroke="#757575" d="M1319.23,-337.5C1341.08,-337.5 1366.57,-337.5 1392.73,-337.5"/>
<polygon fill="#757575" stroke="#757575" points="1392.78,-341 1402.78,-337.5 1392.78,-334 1392.78,-341"/>
</g>
<!-- modules/News/NewsController.tsx&#45;&gt;redux/store.tsx -->
<g id="edge71" class="edge">
<title>modules/News/NewsController.tsx&#45;&gt;redux/store.tsx</title>
<path fill="none" stroke="#757575" d="M1684.57,-284.77C1810.73,-289.72 2003.39,-291.16 2068,-258.5 2090.86,-246.94 2083.12,-228.33 2104,-213.5 2130.51,-194.67 2164.23,-181.84 2193.26,-173.43"/>
<polygon fill="#757575" stroke="#757575" points="2194.21,-176.8 2202.91,-170.74 2192.33,-170.05 2194.21,-176.8"/>
</g>
<!-- modules/News/NewsController.tsx&#45;&gt;redux/hooks.ts -->
<g id="edge70" class="edge">
<title>modules/News/NewsController.tsx&#45;&gt;redux/hooks.ts</title>
<path fill="none" stroke="#757575" d="M1669.33,-266.98C1728.72,-260.17 1802.16,-251.74 1853.68,-245.82"/>
<polygon fill="#757575" stroke="#757575" points="1854.15,-249.29 1863.68,-244.68 1853.35,-242.34 1854.15,-249.29"/>
</g>
<!-- modules/News/NewsView.tsx -->
<g id="node65" class="node">
<title>modules/News/NewsView.tsx</title>
<path fill="none" stroke="#c6c5fe" d="M2011.83,-531C2011.83,-531 1825.17,-531 1825.17,-531 1821.33,-531 1817.5,-527.17 1817.5,-523.33 1817.5,-523.33 1817.5,-515.67 1817.5,-515.67 1817.5,-511.83 1821.33,-508 1825.17,-508 1825.17,-508 2011.83,-508 2011.83,-508 2015.67,-508 2019.5,-511.83 2019.5,-515.67 2019.5,-515.67 2019.5,-523.33 2019.5,-523.33 2019.5,-527.17 2015.67,-531 2011.83,-531"/>
<text text-anchor="middle" x="1918.5" y="-515.8" font-family="Arial" font-size="14.00" fill="#c6c5fe">modules/News/NewsView.tsx</text>
</g>
<!-- modules/News/NewsController.tsx&#45;&gt;modules/News/NewsView.tsx -->
<g id="edge68" class="edge">
<title>modules/News/NewsController.tsx&#45;&gt;modules/News/NewsView.tsx</title>
<path fill="none" stroke="#757575" d="M1684.66,-289.84C1702.34,-295.72 1719.26,-304.25 1733,-316.5 1768.57,-348.21 1739.95,-379.73 1769,-417.5 1799.24,-456.82 1849,-486.57 1882.5,-503.51"/>
<polygon fill="#757575" stroke="#757575" points="1880.97,-506.66 1891.48,-507.95 1884.06,-500.38 1880.97,-506.66"/>
</g>
<!-- modules/News/newsService.tsx -->
<g id="node66" class="node">
<title>modules/News/newsService.tsx</title>
<path fill="none" stroke="#c6c5fe" d="M2019.33,-170C2019.33,-170 1817.67,-170 1817.67,-170 1813.83,-170 1810,-166.17 1810,-162.33 1810,-162.33 1810,-154.67 1810,-154.67 1810,-150.83 1813.83,-147 1817.67,-147 1817.67,-147 2019.33,-147 2019.33,-147 2023.17,-147 2027,-150.83 2027,-154.67 2027,-154.67 2027,-162.33 2027,-162.33 2027,-166.17 2023.17,-170 2019.33,-170"/>
<text text-anchor="middle" x="1918.5" y="-154.8" font-family="Arial" font-size="14.00" fill="#c6c5fe">modules/News/newsService.tsx</text>
</g>
<!-- modules/News/NewsController.tsx&#45;&gt;modules/News/newsService.tsx -->
<g id="edge69" class="edge">
<title>modules/News/NewsController.tsx&#45;&gt;modules/News/newsService.tsx</title>
<path fill="none" stroke="#757575" d="M1684.66,-274.21C1701.49,-270.62 1718.13,-265.29 1733,-257.5 1754.19,-246.4 1749.37,-231.16 1769,-217.5 1797.74,-197.49 1834.24,-182.87 1863.87,-173.19"/>
<polygon fill="#757575" stroke="#757575" points="1865.15,-176.45 1873.63,-170.09 1863.04,-169.78 1865.15,-176.45"/>
</g>
<!-- modules/ThingsWeDo/ThingsWeDoController.tsx&#45;&gt;redux/store.tsx -->
<g id="edge85" class="edge">
<title>modules/ThingsWeDo/ThingsWeDoController.tsx&#45;&gt;redux/store.tsx</title>
<path fill="none" stroke="#757575" d="M1733.07,-328.98C1867.78,-320.69 2040.68,-306.55 2068,-287.5 2098,-266.58 2076.71,-237.85 2104,-213.5 2128.73,-191.42 2163.06,-178.23 2192.94,-170.42"/>
<polygon fill="#757575" stroke="#757575" points="2194.01,-173.77 2202.88,-167.98 2192.33,-166.97 2194.01,-173.77"/>
</g>
<!-- modules/ThingsWeDo/ThingsWeDoController.tsx&#45;&gt;redux/hooks.ts -->
<g id="edge84" class="edge">
<title>modules/ThingsWeDo/ThingsWeDoController.tsx&#45;&gt;redux/hooks.ts</title>
<path fill="none" stroke="#757575" d="M1622.46,-325.94C1654.65,-318.69 1696.37,-308.79 1733,-298.5 1782.26,-284.66 1838.03,-266.11 1875.24,-253.32"/>
<polygon fill="#757575" stroke="#757575" points="1876.44,-256.61 1884.75,-250.04 1874.16,-249.99 1876.44,-256.61"/>
</g>
<!-- modules/ThingsWeDo/ThingsWeDoView.tsx -->
<g id="node71" class="node">
<title>modules/ThingsWeDo/ThingsWeDoView.tsx</title>
<path fill="none" stroke="#c6c5fe" d="M2060.33,-693C2060.33,-693 1776.67,-693 1776.67,-693 1772.83,-693 1769,-689.17 1769,-685.33 1769,-685.33 1769,-677.67 1769,-677.67 1769,-673.83 1772.83,-670 1776.67,-670 1776.67,-670 2060.33,-670 2060.33,-670 2064.17,-670 2068,-673.83 2068,-677.67 2068,-677.67 2068,-685.33 2068,-685.33 2068,-689.17 2064.17,-693 2060.33,-693"/>
<text text-anchor="middle" x="1918.5" y="-677.8" font-family="Arial" font-size="14.00" fill="#c6c5fe">modules/ThingsWeDo/ThingsWeDoView.tsx</text>
</g>
<!-- modules/ThingsWeDo/ThingsWeDoController.tsx&#45;&gt;modules/ThingsWeDo/ThingsWeDoView.tsx -->
<g id="edge82" class="edge">
<title>modules/ThingsWeDo/ThingsWeDoController.tsx&#45;&gt;modules/ThingsWeDo/ThingsWeDoView.tsx</title>
<path fill="none" stroke="#757575" d="M1580.61,-349.45C1611.17,-380.87 1696.49,-468.24 1769,-539.5 1814.58,-584.29 1869.09,-635.94 1897.71,-662.91"/>
<polygon fill="#757575" stroke="#757575" points="1895.39,-665.53 1905.07,-669.83 1900.19,-660.43 1895.39,-665.53"/>
</g>
<!-- modules/ThingsWeDo/thingsService.tsx -->
<g id="node72" class="node">
<title>modules/ThingsWeDo/thingsService.tsx</title>
<path fill="none" stroke="#c6c5fe" d="M2045.83,-368C2045.83,-368 1791.17,-368 1791.17,-368 1787.33,-368 1783.5,-364.17 1783.5,-360.33 1783.5,-360.33 1783.5,-352.67 1783.5,-352.67 1783.5,-348.83 1787.33,-345 1791.17,-345 1791.17,-345 2045.83,-345 2045.83,-345 2049.67,-345 2053.5,-348.83 2053.5,-352.67 2053.5,-352.67 2053.5,-360.33 2053.5,-360.33 2053.5,-364.17 2049.67,-368 2045.83,-368"/>
<text text-anchor="middle" x="1918.5" y="-352.8" font-family="Arial" font-size="14.00" fill="#c6c5fe">modules/ThingsWeDo/thingsService.tsx</text>
</g>
<!-- modules/ThingsWeDo/ThingsWeDoController.tsx&#45;&gt;modules/ThingsWeDo/thingsService.tsx -->
<g id="edge83" class="edge">
<title>modules/ThingsWeDo/ThingsWeDoController.tsx&#45;&gt;modules/ThingsWeDo/thingsService.tsx</title>
<path fill="none" stroke="#757575" d="M1733.05,-346.44C1746.48,-347.18 1760,-347.91 1773.27,-348.64"/>
<polygon fill="#757575" stroke="#757575" points="1773.2,-352.14 1783.37,-349.19 1773.58,-345.15 1773.2,-352.14"/>
</g>
<!-- modules/News/News.scss -->
<g id="node64" class="node">
<title>modules/News/News.scss</title>
<path fill="none" stroke="#cfffac" d="M2341.83,-490C2341.83,-490 2174.17,-490 2174.17,-490 2170.33,-490 2166.5,-486.17 2166.5,-482.33 2166.5,-482.33 2166.5,-474.67 2166.5,-474.67 2166.5,-470.83 2170.33,-467 2174.17,-467 2174.17,-467 2341.83,-467 2341.83,-467 2345.67,-467 2349.5,-470.83 2349.5,-474.67 2349.5,-474.67 2349.5,-482.33 2349.5,-482.33 2349.5,-486.17 2345.67,-490 2341.83,-490"/>
<text text-anchor="middle" x="2258" y="-474.8" font-family="Arial" font-size="14.00" fill="#cfffac">modules/News/News.scss</text>
</g>
<!-- modules/News/NewsView.tsx&#45;&gt;lang/local.tsx -->
<g id="edge75" class="edge">
<title>modules/News/NewsView.tsx&#45;&gt;lang/local.tsx</title>
<path fill="none" stroke="#757575" d="M1948.72,-531.12C1984.69,-544.96 2047.9,-567.8 2104,-580.5 2238.58,-610.97 2277.25,-589.81 2412,-619.5 2466.85,-631.59 2528.32,-652.39 2567.32,-666.54"/>
<polygon fill="#757575" stroke="#757575" points="2566.14,-669.83 2576.74,-669.98 2568.55,-663.26 2566.14,-669.83"/>
</g>
<!-- modules/News/NewsView.tsx&#45;&gt;assets/images/news/logo.png -->
<g id="edge72" class="edge">
<title>modules/News/NewsView.tsx&#45;&gt;assets/images/news/logo.png</title>
<path fill="none" stroke="#757575" d="M2019.85,-519.5C2059.26,-519.5 2104.65,-519.5 2145.11,-519.5"/>
<polygon fill="#757575" stroke="#757575" points="2145.29,-523 2155.29,-519.5 2145.29,-516 2145.29,-523"/>
</g>
<!-- modules/News/NewsView.tsx&#45;&gt;components/CustomBadge/CustomBadge.tsx -->
<g id="edge73" class="edge">
<title>modules/News/NewsView.tsx&#45;&gt;components/CustomBadge/CustomBadge.tsx</title>
<path fill="none" stroke="#757575" d="M1948.08,-507.96C1983.92,-493.94 2047.54,-470.55 2104,-457.5 2115,-454.96 2126.53,-452.71 2138.11,-450.73"/>
<polygon fill="#757575" stroke="#757575" points="2138.99,-454.13 2148.29,-449.06 2137.85,-447.23 2138.99,-454.13"/>
</g>
<!-- modules/News/NewsView.tsx&#45;&gt;components/CustomButton/CustomButton.tsx -->
<g id="edge74" class="edge">
<title>modules/News/NewsView.tsx&#45;&gt;components/CustomButton/CustomButton.tsx</title>
<path fill="none" stroke="#757575" d="M2014.41,-531.03C2057.28,-536.24 2108.07,-542.41 2152.07,-547.75"/>
<polygon fill="#757575" stroke="#757575" points="2151.87,-551.25 2162.22,-548.99 2152.71,-544.31 2151.87,-551.25"/>
</g>
<!-- modules/News/NewsView.tsx&#45;&gt;styles/generalStyle.tsx -->
<g id="edge77" class="edge">
<title>modules/News/NewsView.tsx&#45;&gt;styles/generalStyle.tsx</title>
<path fill="none" stroke="#757575" d="M1937.27,-531.03C1969.26,-551.22 2039.23,-592.9 2104,-614.5 2124.52,-621.34 2147.22,-626.45 2168.71,-630.24"/>
<polygon fill="#757575" stroke="#757575" points="2168.37,-633.73 2178.82,-631.94 2169.54,-626.83 2168.37,-633.73"/>
</g>
<!-- modules/News/NewsView.tsx&#45;&gt;modules/News/News.scss -->
<g id="edge76" class="edge">
<title>modules/News/NewsView.tsx&#45;&gt;modules/News/News.scss</title>
<path fill="none" stroke="#757575" d="M2014.41,-507.97C2058.64,-502.6 2111.29,-496.2 2156.23,-490.74"/>
<polygon fill="#757575" stroke="#757575" points="2156.78,-494.2 2166.29,-489.52 2155.94,-487.25 2156.78,-494.2"/>
</g>
<!-- modules/News/newsService.tsx&#45;&gt;redux/store.tsx -->
<g id="edge79" class="edge">
<title>modules/News/newsService.tsx&#45;&gt;redux/store.tsx</title>
<path fill="none" stroke="#757575" d="M2027.22,-158.82C2081.56,-158.98 2145.66,-159.17 2192.33,-159.31"/>
<polygon fill="#757575" stroke="#757575" points="2192.6,-162.81 2202.61,-159.34 2192.62,-155.81 2192.6,-162.81"/>
</g>
<!-- modules/News/newsService.tsx&#45;&gt;infrastructure/services/http&#45;service.tsx -->
<g id="edge78" class="edge">
<title>modules/News/newsService.tsx&#45;&gt;infrastructure/services/http&#45;service.tsx</title>
<path fill="none" stroke="#757575" d="M1984.57,-146.93C2041.07,-136.89 2122.88,-122.34 2182.09,-111.82"/>
<polygon fill="#757575" stroke="#757575" points="2182.89,-115.23 2192.13,-110.03 2181.67,-108.34 2182.89,-115.23"/>
</g>
<!-- modules/News/newsActions.tsx -->
<g id="node67" class="node">
<title>modules/News/newsActions.tsx</title>
<path fill="none" stroke="#cfffac" d="M3038.83,-187C3038.83,-187 2838.17,-187 2838.17,-187 2834.33,-187 2830.5,-183.17 2830.5,-179.33 2830.5,-179.33 2830.5,-171.67 2830.5,-171.67 2830.5,-167.83 2834.33,-164 2838.17,-164 2838.17,-164 3038.83,-164 3038.83,-164 3042.67,-164 3046.5,-167.83 3046.5,-171.67 3046.5,-171.67 3046.5,-179.33 3046.5,-179.33 3046.5,-183.17 3042.67,-187 3038.83,-187"/>
<text text-anchor="middle" x="2938.5" y="-171.8" font-family="Arial" font-size="14.00" fill="#cfffac">modules/News/newsActions.tsx</text>
</g>
<!-- modules/News/newsSlice.tsx&#45;&gt;modules/News/newsActions.tsx -->
<g id="edge80" class="edge">
<title>modules/News/newsSlice.tsx&#45;&gt;modules/News/newsActions.tsx</title>
<path fill="none" stroke="#757575" d="M2708.01,-175.5C2743.32,-175.5 2783.44,-175.5 2820.14,-175.5"/>
<polygon fill="#757575" stroke="#757575" points="2820.4,-179 2830.4,-175.5 2820.4,-172 2820.4,-179"/>
</g>
<!-- modules/PageNotFound.tsx -->
<g id="node69" class="node">
<title>modules/PageNotFound.tsx</title>
<path fill="none" stroke="#c6c5fe" d="M2346.83,-693C2346.83,-693 2169.17,-693 2169.17,-693 2165.33,-693 2161.5,-689.17 2161.5,-685.33 2161.5,-685.33 2161.5,-677.67 2161.5,-677.67 2161.5,-673.83 2165.33,-670 2169.17,-670 2169.17,-670 2346.83,-670 2346.83,-670 2350.67,-670 2354.5,-673.83 2354.5,-677.67 2354.5,-677.67 2354.5,-685.33 2354.5,-685.33 2354.5,-689.17 2350.67,-693 2346.83,-693"/>
<text text-anchor="middle" x="2258" y="-677.8" font-family="Arial" font-size="14.00" fill="#c6c5fe">modules/PageNotFound.tsx</text>
</g>
<!-- modules/PageNotFound.tsx&#45;&gt;lang/local.tsx -->
<g id="edge81" class="edge">
<title>modules/PageNotFound.tsx&#45;&gt;lang/local.tsx</title>
<path fill="none" stroke="#757575" d="M2354.55,-681.5C2416.61,-681.5 2495.52,-681.5 2548.45,-681.5"/>
<polygon fill="#757575" stroke="#757575" points="2548.67,-685 2558.67,-681.5 2548.67,-678 2548.67,-685"/>
</g>
<!-- modules/ThingsWeDo/ThingsWeDo.scss -->
<g id="node70" class="node">
<title>modules/ThingsWeDo/ThingsWeDo.scss</title>
<path fill="none" stroke="#cfffac" d="M2390.83,-775C2390.83,-775 2125.17,-775 2125.17,-775 2121.33,-775 2117.5,-771.17 2117.5,-767.33 2117.5,-767.33 2117.5,-759.67 2117.5,-759.67 2117.5,-755.83 2121.33,-752 2125.17,-752 2125.17,-752 2390.83,-752 2390.83,-752 2394.67,-752 2398.5,-755.83 2398.5,-759.67 2398.5,-759.67 2398.5,-767.33 2398.5,-767.33 2398.5,-771.17 2394.67,-775 2390.83,-775"/>
<text text-anchor="middle" x="2258" y="-759.8" font-family="Arial" font-size="14.00" fill="#cfffac">modules/ThingsWeDo/ThingsWeDo.scss</text>
</g>
<!-- modules/ThingsWeDo/ThingsWeDoView.tsx&#45;&gt;assets/images/things/logo.png -->
<g id="edge86" class="edge">
<title>modules/ThingsWeDo/ThingsWeDoView.tsx&#45;&gt;assets/images/things/logo.png</title>
<path fill="none" stroke="#757575" d="M2014.41,-693.03C2057.28,-698.24 2108.07,-704.41 2152.07,-709.75"/>
<polygon fill="#757575" stroke="#757575" points="2151.87,-713.25 2162.22,-710.99 2152.71,-706.31 2151.87,-713.25"/>
</g>
<!-- modules/ThingsWeDo/ThingsWeDoView.tsx&#45;&gt;styles/generalStyle.tsx -->
<g id="edge88" class="edge">
<title>modules/ThingsWeDo/ThingsWeDoView.tsx&#45;&gt;styles/generalStyle.tsx</title>
<path fill="none" stroke="#757575" d="M2014.41,-669.97C2062.83,-664.09 2121.35,-656.98 2168.78,-651.22"/>
<polygon fill="#757575" stroke="#757575" points="2169.22,-654.69 2178.73,-650.01 2168.38,-647.74 2169.22,-654.69"/>
</g>
<!-- modules/ThingsWeDo/ThingsWeDoView.tsx&#45;&gt;modules/ThingsWeDo/ThingsWeDo.scss -->
<g id="edge87" class="edge">
<title>modules/ThingsWeDo/ThingsWeDoView.tsx&#45;&gt;modules/ThingsWeDo/ThingsWeDo.scss</title>
<path fill="none" stroke="#757575" d="M1948.74,-693.02C1984.73,-706.76 2047.97,-729.51 2104,-742.5 2116.7,-745.44 2130.09,-748.03 2143.45,-750.28"/>
<polygon fill="#757575" stroke="#757575" points="2143.22,-753.79 2153.65,-751.94 2144.35,-746.88 2143.22,-753.79"/>
</g>
<!-- modules/ThingsWeDo/thingsService.tsx&#45;&gt;redux/store.tsx -->
<g id="edge90" class="edge">
<title>modules/ThingsWeDo/thingsService.tsx&#45;&gt;redux/store.tsx</title>
<path fill="none" stroke="#757575" d="M2046.13,-344.86C2054.03,-341.03 2061.42,-336.3 2068,-330.5 2108.8,-294.51 2066.32,-252.75 2104,-213.5 2127.41,-189.11 2162.5,-175.72 2193.17,-168.38"/>
<polygon fill="#757575" stroke="#757575" points="2193.95,-171.79 2202.95,-166.2 2192.43,-164.96 2193.95,-171.79"/>
</g>
<!-- modules/ThingsWeDo/thingsService.tsx&#45;&gt;data/things.tsx -->
<g id="edge89" class="edge">
<title>modules/ThingsWeDo/thingsService.tsx&#45;&gt;data/things.tsx</title>
<path fill="none" stroke="#757575" d="M2042.68,-344.85C2051.72,-341.08 2060.3,-336.37 2068,-330.5 2097.73,-307.85 2073.78,-276.5 2104,-254.5 2129.57,-235.88 2164.11,-230.19 2193.89,-229.45"/>
<polygon fill="#757575" stroke="#757575" points="2194.23,-232.95 2204.21,-229.38 2194.19,-225.95 2194.23,-232.95"/>
</g>
<!-- modules/ThingsWeDo/thingsActions.tsx -->
<g id="node73" class="node">
<title>modules/ThingsWeDo/thingsActions.tsx</title>
<path fill="none" stroke="#cfffac" d="M3065.33,-146C3065.33,-146 2811.67,-146 2811.67,-146 2807.83,-146 2804,-142.17 2804,-138.33 2804,-138.33 2804,-130.67 2804,-130.67 2804,-126.83 2807.83,-123 2811.67,-123 2811.67,-123 3065.33,-123 3065.33,-123 3069.17,-123 3073,-126.83 3073,-130.67 3073,-130.67 3073,-138.33 3073,-138.33 3073,-142.17 3069.17,-146 3065.33,-146"/>
<text text-anchor="middle" x="2938.5" y="-130.8" font-family="Arial" font-size="14.00" fill="#cfffac">modules/ThingsWeDo/thingsActions.tsx</text>
</g>
<!-- modules/ThingsWeDo/thingsSlice.tsx&#45;&gt;modules/ThingsWeDo/thingsActions.tsx -->
<g id="edge91" class="edge">
<title>modules/ThingsWeDo/thingsSlice.tsx&#45;&gt;modules/ThingsWeDo/thingsActions.tsx</title>
<path fill="none" stroke="#757575" d="M2735.07,-134.5C2754.25,-134.5 2774.17,-134.5 2793.69,-134.5"/>
<polygon fill="#757575" stroke="#757575" points="2793.86,-138 2803.86,-134.5 2793.86,-131 2793.86,-138"/>
</g>
<!-- react&#45;app&#45;env.d.ts -->
<g id="node75" class="node">
<title>react&#45;app&#45;env.d.ts</title>
<path fill="none" stroke="#cfffac" d="M207.33,-1182C207.33,-1182 91.67,-1182 91.67,-1182 87.83,-1182 84,-1178.17 84,-1174.33 84,-1174.33 84,-1166.67 84,-1166.67 84,-1162.83 87.83,-1159 91.67,-1159 91.67,-1159 207.33,-1159 207.33,-1159 211.17,-1159 215,-1162.83 215,-1166.67 215,-1166.67 215,-1174.33 215,-1174.33 215,-1178.17 211.17,-1182 207.33,-1182"/>
<text text-anchor="middle" x="149.5" y="-1166.8" font-family="Arial" font-size="14.00" fill="#cfffac">react&#45;app&#45;env.d.ts</text>
</g>
<!-- redux/actions/error.action.tsx -->
<g id="node76" class="node">
<title>redux/actions/error.action.tsx</title>
<path fill="none" stroke="#cfffac" d="M3029.33,-64C3029.33,-64 2847.67,-64 2847.67,-64 2843.83,-64 2840,-60.17 2840,-56.33 2840,-56.33 2840,-48.67 2840,-48.67 2840,-44.83 2843.83,-41 2847.67,-41 2847.67,-41 3029.33,-41 3029.33,-41 3033.17,-41 3037,-44.83 3037,-48.67 3037,-48.67 3037,-56.33 3037,-56.33 3037,-60.17 3033.17,-64 3029.33,-64"/>
<text text-anchor="middle" x="2938.5" y="-48.8" font-family="Arial" font-size="14.00" fill="#cfffac">redux/actions/error.action.tsx</text>
</g>
<!-- redux/reducers/errorSlice.tsx&#45;&gt;core/interfaces/IError.tsx -->
<g id="edge93" class="edge">
<title>redux/reducers/errorSlice.tsx&#45;&gt;core/interfaces/IError.tsx</title>
<path fill="none" stroke="#757575" d="M2707.56,-93.5C2749.99,-93.5 2799.41,-93.5 2841.55,-93.5"/>
<polygon fill="#757575" stroke="#757575" points="2841.81,-97 2851.81,-93.5 2841.81,-90 2841.81,-97"/>
</g>
<!-- redux/reducers/errorSlice.tsx&#45;&gt;redux/actions/error.action.tsx -->
<g id="edge94" class="edge">
<title>redux/reducers/errorSlice.tsx&#45;&gt;redux/actions/error.action.tsx</title>
<path fill="none" stroke="#757575" d="M2701.38,-81.97C2743.02,-76.77 2792.33,-70.62 2835.09,-65.28"/>
<polygon fill="#757575" stroke="#757575" points="2835.76,-68.73 2845.25,-64.01 2834.89,-61.78 2835.76,-68.73"/>
</g>
<!-- routing/routes.tsx&#45;&gt;modules/Index.tsx -->
<g id="edge103" class="edge">
<title>routing/routes.tsx&#45;&gt;modules/Index.tsx</title>
<path fill="none" stroke="#757575" d="M1002.51,-618.65C1042.46,-573.64 1185.02,-412.98 1234.74,-356.95"/>
<polygon fill="#757575" stroke="#757575" points="1237.62,-358.98 1241.64,-349.18 1232.38,-354.33 1237.62,-358.98"/>
</g>
<!-- setupTests.ts -->
<g id="node80" class="node">
<title>setupTests.ts</title>
<path fill="none" stroke="#cfffac" d="M193.33,-1223C193.33,-1223 105.67,-1223 105.67,-1223 101.83,-1223 98,-1219.17 98,-1215.33 98,-1215.33 98,-1207.67 98,-1207.67 98,-1203.83 101.83,-1200 105.67,-1200 105.67,-1200 193.33,-1200 193.33,-1200 197.17,-1200 201,-1203.83 201,-1207.67 201,-1207.67 201,-1215.33 201,-1215.33 201,-1219.17 197.17,-1223 193.33,-1223"/>
<text text-anchor="middle" x="149.5" y="-1207.8" font-family="Arial" font-size="14.00" fill="#cfffac">setupTests.ts</text>
</g>
</g>
</svg>
