<?xml version="1.0" encoding="UTF-8" standalone="no"?>
<!DOCTYPE svg PUBLIC "-//W3C//DTD SVG 1.1//EN"
 "http://www.w3.org/Graphics/SVG/1.1/DTD/svg11.dtd">
<!-- Generated by graphviz version 2.49.3 (20211023.0002)
 -->
<!-- Title: G Pages: 1 -->
<svg width="3050pt" height="1632pt"
 viewBox="0.00 0.00 3050.20 1632.17" xmlns="http://www.w3.org/2000/svg" xmlns:xlink="http://www.w3.org/1999/xlink">
<g id="graph0" class="graph" transform="scale(1 1) rotate(0) translate(21.6 1610.57)">
<title>G</title>
<polygon fill="#111111" stroke="transparent" points="-21.6,21.6 -21.6,-1610.57 3028.6,-1610.57 3028.6,21.6 -21.6,21.6"/>
<!-- App.test.tsx -->
<g id="node1" class="node">
<title>App.test.tsx</title>
<path fill="none" stroke="#c6c5fe" d="M187.83,-1012C187.83,-1012 111.17,-1012 111.17,-1012 107.33,-1012 103.5,-1008.17 103.5,-1004.33 103.5,-1004.33 103.5,-996.67 103.5,-996.67 103.5,-992.83 107.33,-989 111.17,-989 111.17,-989 187.83,-989 187.83,-989 191.67,-989 195.5,-992.83 195.5,-996.67 195.5,-996.67 195.5,-1004.33 195.5,-1004.33 195.5,-1008.17 191.67,-1012 187.83,-1012"/>
<text text-anchor="middle" x="149.5" y="-996.8" font-family="Arial" font-size="14.00" fill="#c6c5fe">App.test.tsx</text>
</g>
<!-- App.tsx -->
<g id="node2" class="node">
<title>App.tsx</title>
<path fill="none" stroke="#c6c5fe" d="M500.33,-1012C500.33,-1012 450.67,-1012 450.67,-1012 446.83,-1012 443,-1008.17 443,-1004.33 443,-1004.33 443,-996.67 443,-996.67 443,-992.83 446.83,-989 450.67,-989 450.67,-989 500.33,-989 500.33,-989 504.17,-989 508,-992.83 508,-996.67 508,-996.67 508,-1004.33 508,-1004.33 508,-1008.17 504.17,-1012 500.33,-1012"/>
<text text-anchor="middle" x="475.5" y="-996.8" font-family="Arial" font-size="14.00" fill="#c6c5fe">App.tsx</text>
</g>
<!-- App.test.tsx&#45;&gt;App.tsx -->
<g id="edge1" class="edge">
<title>App.test.tsx&#45;&gt;App.tsx</title>
<path fill="none" stroke="#757575" d="M195.55,-1000.5C258.5,-1000.5 371.91,-1000.5 432.94,-1000.5"/>
<polygon fill="#757575" stroke="#757575" points="432.98,-1004 442.98,-1000.5 432.98,-997 432.98,-1004"/>
</g>
<!-- assets/sass/mainStyle.scss -->
<g id="node3" class="node">
<title>assets/sass/mainStyle.scss</title>
<path fill="none" stroke="#c6c5fe" d="M835.33,-1476C835.33,-1476 659.67,-1476 659.67,-1476 655.83,-1476 652,-1472.17 652,-1468.33 652,-1468.33 652,-1460.67 652,-1460.67 652,-1456.83 655.83,-1453 659.67,-1453 659.67,-1453 835.33,-1453 835.33,-1453 839.17,-1453 843,-1456.83 843,-1460.67 843,-1460.67 843,-1468.33 843,-1468.33 843,-1472.17 839.17,-1476 835.33,-1476"/>
<text text-anchor="middle" x="747.5" y="-1460.8" font-family="Arial" font-size="14.00" fill="#c6c5fe">assets/sass/mainStyle.scss</text>
</g>
<!-- App.tsx&#45;&gt;assets/sass/mainStyle.scss -->
<g id="edge2" class="edge">
<title>App.tsx&#45;&gt;assets/sass/mainStyle.scss</title>
<path fill="none" stroke="#757575" d="M508.18,-1005.35C540.78,-1012.13 590.31,-1027.77 616,-1062.5 694.8,-1169.05 597.41,-1237.74 652,-1358.5 668.28,-1394.51 701.23,-1426.99 723.59,-1446.24"/>
<polygon fill="#757575" stroke="#757575" points="721.38,-1448.96 731.29,-1452.71 725.89,-1443.6 721.38,-1448.96"/>
</g>
<!-- lang/local.tsx -->
<g id="node4" class="node">
<title>lang/local.tsx</title>
<path fill="none" stroke="#c6c5fe" d="M2583.33,-829C2583.33,-829 2500.67,-829 2500.67,-829 2496.83,-829 2493,-825.17 2493,-821.33 2493,-821.33 2493,-813.67 2493,-813.67 2493,-809.83 2496.83,-806 2500.67,-806 2500.67,-806 2583.33,-806 2583.33,-806 2587.17,-806 2591,-809.83 2591,-813.67 2591,-813.67 2591,-821.33 2591,-821.33 2591,-825.17 2587.17,-829 2583.33,-829"/>
<text text-anchor="middle" x="2542" y="-813.8" font-family="Arial" font-size="14.00" fill="#c6c5fe">lang/local.tsx</text>
</g>
<!-- App.tsx&#45;&gt;lang/local.tsx -->
<g id="edge3" class="edge">
<title>App.tsx&#45;&gt;lang/local.tsx</title>
<path fill="none" stroke="#757575" d="M508.03,-1012.02C537.01,-1023.18 580.71,-1041.47 616,-1062.5 792.41,-1167.61 776.65,-1344.5 982,-1344.5 982,-1344.5 982,-1344.5 1853.5,-1344.5 1908.26,-1344.5 2303.95,-1360.58 2346,-1325.5 2402.63,-1278.25 2358.47,-1233.4 2382,-1163.5 2425.19,-1035.18 2501.04,-890.73 2529.65,-838.09"/>
<polygon fill="#757575" stroke="#757575" points="2532.85,-839.53 2534.57,-829.08 2526.7,-836.18 2532.85,-839.53"/>
</g>
<!-- redux/store.tsx -->
<g id="node5" class="node">
<title>redux/store.tsx</title>
<path fill="none" stroke="#c6c5fe" d="M2239.33,-187C2239.33,-187 2144.67,-187 2144.67,-187 2140.83,-187 2137,-183.17 2137,-179.33 2137,-179.33 2137,-171.67 2137,-171.67 2137,-167.83 2140.83,-164 2144.67,-164 2144.67,-164 2239.33,-164 2239.33,-164 2243.17,-164 2247,-167.83 2247,-171.67 2247,-171.67 2247,-179.33 2247,-179.33 2247,-183.17 2243.17,-187 2239.33,-187"/>
<text text-anchor="middle" x="2192" y="-171.8" font-family="Arial" font-size="14.00" fill="#c6c5fe">redux/store.tsx</text>
</g>
<!-- App.tsx&#45;&gt;redux/store.tsx -->
<g id="edge4" class="edge">
<title>App.tsx&#45;&gt;redux/store.tsx</title>
<path fill="none" stroke="#757575" d="M508,-1004.11C538.6,-1005.9 584.88,-1003.84 616,-980.5 930.75,-744.45 588.57,-174.5 982,-174.5 982,-174.5 982,-174.5 1503,-174.5 1732.22,-174.5 2004.4,-175.06 2126.32,-175.34"/>
<polygon fill="#757575" stroke="#757575" points="2126.59,-178.84 2136.6,-175.37 2126.6,-171.84 2126.59,-178.84"/>
</g>
<!-- routing/Layout.tsx -->
<g id="node6" class="node">
<title>routing/Layout.tsx</title>
<path fill="none" stroke="#cfffac" d="M803.33,-146C803.33,-146 691.67,-146 691.67,-146 687.83,-146 684,-142.17 684,-138.33 684,-138.33 684,-130.67 684,-130.67 684,-126.83 687.83,-123 691.67,-123 691.67,-123 803.33,-123 803.33,-123 807.17,-123 811,-126.83 811,-130.67 811,-130.67 811,-138.33 811,-138.33 811,-142.17 807.17,-146 803.33,-146"/>
<text text-anchor="middle" x="747.5" y="-130.8" font-family="Arial" font-size="14.00" fill="#cfffac">routing/Layout.tsx</text>
</g>
<!-- App.tsx&#45;&gt;routing/Layout.tsx -->
<g id="edge5" class="edge">
<title>App.tsx&#45;&gt;routing/Layout.tsx</title>
<path fill="none" stroke="#757575" d="M508.05,-1006.24C540.29,-1010.08 589.31,-1009.96 616,-980.5 677.23,-912.92 595.15,-231.81 652,-160.5 657.98,-153 665.92,-147.54 674.65,-143.58"/>
<polygon fill="#757575" stroke="#757575" points="675.92,-146.85 684,-139.99 673.41,-140.31 675.92,-146.85"/>
</g>
<!-- routing/Layout/Layout.tsx -->
<g id="node7" class="node">
<title>routing/Layout/Layout.tsx</title>
<path fill="none" stroke="#c6c5fe" d="M826.33,-1012C826.33,-1012 668.67,-1012 668.67,-1012 664.83,-1012 661,-1008.17 661,-1004.33 661,-1004.33 661,-996.67 661,-996.67 661,-992.83 664.83,-989 668.67,-989 668.67,-989 826.33,-989 826.33,-989 830.17,-989 834,-992.83 834,-996.67 834,-996.67 834,-1004.33 834,-1004.33 834,-1008.17 830.17,-1012 826.33,-1012"/>
<text text-anchor="middle" x="747.5" y="-996.8" font-family="Arial" font-size="14.00" fill="#c6c5fe">routing/Layout/Layout.tsx</text>
</g>
<!-- App.tsx&#45;&gt;routing/Layout/Layout.tsx -->
<g id="edge6" class="edge">
<title>App.tsx&#45;&gt;routing/Layout/Layout.tsx</title>
<path fill="none" stroke="#757575" d="M508,-1000.5C542.81,-1000.5 600.57,-1000.5 650.53,-1000.5"/>
<polygon fill="#757575" stroke="#757575" points="650.74,-1004 660.74,-1000.5 650.74,-997 650.74,-1004"/>
</g>
<!-- assets/sass/_Custom.scss -->
<g id="node22" class="node">
<title>assets/sass/_Custom.scss</title>
<path fill="none" stroke="#c6c5fe" d="M1069.33,-1558C1069.33,-1558 896.67,-1558 896.67,-1558 892.83,-1558 889,-1554.17 889,-1550.33 889,-1550.33 889,-1542.67 889,-1542.67 889,-1538.83 892.83,-1535 896.67,-1535 896.67,-1535 1069.33,-1535 1069.33,-1535 1073.17,-1535 1077,-1538.83 1077,-1542.67 1077,-1542.67 1077,-1550.33 1077,-1550.33 1077,-1554.17 1073.17,-1558 1069.33,-1558"/>
<text text-anchor="middle" x="983" y="-1542.8" font-family="Arial" font-size="14.00" fill="#c6c5fe">assets/sass/_Custom.scss</text>
</g>
<!-- assets/sass/mainStyle.scss&#45;&gt;assets/sass/_Custom.scss -->
<g id="edge8" class="edge">
<title>assets/sass/mainStyle.scss&#45;&gt;assets/sass/_Custom.scss</title>
<path fill="none" stroke="#757575" d="M768.63,-1476.04C793.72,-1489.94 838.25,-1513.1 879,-1526.5 885.84,-1528.75 893.02,-1530.78 900.28,-1532.61"/>
<polygon fill="#757575" stroke="#757575" points="899.66,-1536.06 910.2,-1534.97 901.29,-1529.25 899.66,-1536.06"/>
</g>
<!-- assets/sass/_mixins.scss -->
<g id="node23" class="node">
<title>assets/sass/_mixins.scss</title>
<path fill="none" stroke="#cfffac" d="M1293.33,-1578C1293.33,-1578 1130.67,-1578 1130.67,-1578 1126.83,-1578 1123,-1574.17 1123,-1570.33 1123,-1570.33 1123,-1562.67 1123,-1562.67 1123,-1558.83 1126.83,-1555 1130.67,-1555 1130.67,-1555 1293.33,-1555 1293.33,-1555 1297.17,-1555 1301,-1558.83 1301,-1562.67 1301,-1562.67 1301,-1570.33 1301,-1570.33 1301,-1574.17 1297.17,-1578 1293.33,-1578"/>
<text text-anchor="middle" x="1212" y="-1562.8" font-family="Arial" font-size="14.00" fill="#cfffac">assets/sass/_mixins.scss</text>
</g>
<!-- assets/sass/mainStyle.scss&#45;&gt;assets/sass/_mixins.scss -->
<g id="edge12" class="edge">
<title>assets/sass/mainStyle.scss&#45;&gt;assets/sass/_mixins.scss</title>
<path fill="none" stroke="#757575" d="M758.14,-1476.11C777.94,-1498.94 825.83,-1549.04 879,-1567.5 966.01,-1597.7 1073.76,-1589.81 1142.45,-1579.61"/>
<polygon fill="#757575" stroke="#757575" points="1143.36,-1583.01 1152.71,-1578.03 1142.29,-1576.1 1143.36,-1583.01"/>
</g>
<!-- assets/sass/_Fonts.scss -->
<g id="node24" class="node">
<title>assets/sass/_Fonts.scss</title>
<path fill="none" stroke="#cfffac" d="M1062.33,-1517C1062.33,-1517 903.67,-1517 903.67,-1517 899.83,-1517 896,-1513.17 896,-1509.33 896,-1509.33 896,-1501.67 896,-1501.67 896,-1497.83 899.83,-1494 903.67,-1494 903.67,-1494 1062.33,-1494 1062.33,-1494 1066.17,-1494 1070,-1497.83 1070,-1501.67 1070,-1501.67 1070,-1509.33 1070,-1509.33 1070,-1513.17 1066.17,-1517 1062.33,-1517"/>
<text text-anchor="middle" x="983" y="-1501.8" font-family="Arial" font-size="14.00" fill="#cfffac">assets/sass/_Fonts.scss</text>
</g>
<!-- assets/sass/mainStyle.scss&#45;&gt;assets/sass/_Fonts.scss -->
<g id="edge9" class="edge">
<title>assets/sass/mainStyle.scss&#45;&gt;assets/sass/_Fonts.scss</title>
<path fill="none" stroke="#757575" d="M814.16,-1476.03C842.89,-1481.07 876.75,-1487.02 906.5,-1492.24"/>
<polygon fill="#757575" stroke="#757575" points="905.97,-1495.7 916.42,-1493.99 907.18,-1488.81 905.97,-1495.7"/>
</g>
<!-- assets/sass/_Global.scss -->
<g id="node25" class="node">
<title>assets/sass/_Global.scss</title>
<path fill="none" stroke="#cfffac" d="M1064.83,-1476C1064.83,-1476 901.17,-1476 901.17,-1476 897.33,-1476 893.5,-1472.17 893.5,-1468.33 893.5,-1468.33 893.5,-1460.67 893.5,-1460.67 893.5,-1456.83 897.33,-1453 901.17,-1453 901.17,-1453 1064.83,-1453 1064.83,-1453 1068.67,-1453 1072.5,-1456.83 1072.5,-1460.67 1072.5,-1460.67 1072.5,-1468.33 1072.5,-1468.33 1072.5,-1472.17 1068.67,-1476 1064.83,-1476"/>
<text text-anchor="middle" x="983" y="-1460.8" font-family="Arial" font-size="14.00" fill="#cfffac">assets/sass/_Global.scss</text>
</g>
<!-- assets/sass/mainStyle.scss&#45;&gt;assets/sass/_Global.scss -->
<g id="edge10" class="edge">
<title>assets/sass/mainStyle.scss&#45;&gt;assets/sass/_Global.scss</title>
<path fill="none" stroke="#757575" d="M843.14,-1464.5C856.33,-1464.5 869.92,-1464.5 883.19,-1464.5"/>
<polygon fill="#757575" stroke="#757575" points="883.27,-1468 893.27,-1464.5 883.27,-1461 883.27,-1468"/>
</g>
<!-- assets/sass/_Variables.scss -->
<g id="node26" class="node">
<title>assets/sass/_Variables.scss</title>
<path fill="none" stroke="#cfffac" d="M2632.83,-1195C2632.83,-1195 2451.17,-1195 2451.17,-1195 2447.33,-1195 2443.5,-1191.17 2443.5,-1187.33 2443.5,-1187.33 2443.5,-1179.67 2443.5,-1179.67 2443.5,-1175.83 2447.33,-1172 2451.17,-1172 2451.17,-1172 2632.83,-1172 2632.83,-1172 2636.67,-1172 2640.5,-1175.83 2640.5,-1179.67 2640.5,-1179.67 2640.5,-1187.33 2640.5,-1187.33 2640.5,-1191.17 2636.67,-1195 2632.83,-1195"/>
<text text-anchor="middle" x="2542" y="-1179.8" font-family="Arial" font-size="14.00" fill="#cfffac">assets/sass/_Variables.scss</text>
</g>
<!-- assets/sass/mainStyle.scss&#45;&gt;assets/sass/_Variables.scss -->
<g id="edge11" class="edge">
<title>assets/sass/mainStyle.scss&#45;&gt;assets/sass/_Variables.scss</title>
<path fill="none" stroke="#757575" d="M815.74,-1452.99C836.02,-1449.84 858.37,-1446.7 879,-1444.5 1025.99,-1428.84 1063.18,-1424.5 1211,-1424.5 1211,-1424.5 1211,-1424.5 1853.5,-1424.5 2074.35,-1424.5 2145.47,-1451.03 2346,-1358.5 2425.92,-1321.63 2496.42,-1240.52 2526.09,-1203.11"/>
<polygon fill="#757575" stroke="#757575" points="2529.03,-1205.04 2532.42,-1195 2523.51,-1200.73 2529.03,-1205.04"/>
</g>
<!-- assets/sass/_responsive.scss -->
<g id="node27" class="node">
<title>assets/sass/_responsive.scss</title>
<path fill="none" stroke="#cfffac" d="M1079.33,-1396C1079.33,-1396 886.67,-1396 886.67,-1396 882.83,-1396 879,-1392.17 879,-1388.33 879,-1388.33 879,-1380.67 879,-1380.67 879,-1376.83 882.83,-1373 886.67,-1373 886.67,-1373 1079.33,-1373 1079.33,-1373 1083.17,-1373 1087,-1376.83 1087,-1380.67 1087,-1380.67 1087,-1388.33 1087,-1388.33 1087,-1392.17 1083.17,-1396 1079.33,-1396"/>
<text text-anchor="middle" x="983" y="-1380.8" font-family="Arial" font-size="14.00" fill="#cfffac">assets/sass/_responsive.scss</text>
</g>
<!-- assets/sass/mainStyle.scss&#45;&gt;assets/sass/_responsive.scss -->
<g id="edge13" class="edge">
<title>assets/sass/mainStyle.scss&#45;&gt;assets/sass/_responsive.scss</title>
<path fill="none" stroke="#757575" d="M773.59,-1452.84C799.57,-1441.07 841.53,-1422.91 879,-1410.5 892.24,-1406.11 906.65,-1402.05 920.38,-1398.5"/>
<polygon fill="#757575" stroke="#757575" points="921.4,-1401.85 930.23,-1396.01 919.68,-1395.07 921.4,-1401.85"/>
</g>
<!-- core/interfaces/ILocal.tsx -->
<g id="node43" class="node">
<title>core/interfaces/ILocal.tsx</title>
<path fill="none" stroke="#cfffac" d="M2952.83,-788C2952.83,-788 2792.17,-788 2792.17,-788 2788.33,-788 2784.5,-784.17 2784.5,-780.33 2784.5,-780.33 2784.5,-772.67 2784.5,-772.67 2784.5,-768.83 2788.33,-765 2792.17,-765 2792.17,-765 2952.83,-765 2952.83,-765 2956.67,-765 2960.5,-768.83 2960.5,-772.67 2960.5,-772.67 2960.5,-780.33 2960.5,-780.33 2960.5,-784.17 2956.67,-788 2952.83,-788"/>
<text text-anchor="middle" x="2872.5" y="-772.8" font-family="Arial" font-size="14.00" fill="#cfffac">core/interfaces/ILocal.tsx</text>
</g>
<!-- lang/local.tsx&#45;&gt;core/interfaces/ILocal.tsx -->
<g id="edge50" class="edge">
<title>lang/local.tsx&#45;&gt;core/interfaces/ILocal.tsx</title>
<path fill="none" stroke="#757575" d="M2591.12,-811.49C2639.06,-805.51 2714.03,-796.15 2774.39,-788.62"/>
<polygon fill="#757575" stroke="#757575" points="2774.84,-792.09 2784.33,-787.38 2773.97,-785.15 2774.84,-792.09"/>
</g>
<!-- lang/ar.json -->
<g id="node54" class="node">
<title>lang/ar.json</title>
<path fill="none" stroke="#cfffac" d="M2909.33,-870C2909.33,-870 2835.67,-870 2835.67,-870 2831.83,-870 2828,-866.17 2828,-862.33 2828,-862.33 2828,-854.67 2828,-854.67 2828,-850.83 2831.83,-847 2835.67,-847 2835.67,-847 2909.33,-847 2909.33,-847 2913.17,-847 2917,-850.83 2917,-854.67 2917,-854.67 2917,-862.33 2917,-862.33 2917,-866.17 2913.17,-870 2909.33,-870"/>
<text text-anchor="middle" x="2872.5" y="-854.8" font-family="Arial" font-size="14.00" fill="#cfffac">lang/ar.json</text>
</g>
<!-- lang/local.tsx&#45;&gt;lang/ar.json -->
<g id="edge51" class="edge">
<title>lang/local.tsx&#45;&gt;lang/ar.json</title>
<path fill="none" stroke="#757575" d="M2591.12,-823.51C2651.55,-831.05 2754.93,-843.95 2817.86,-851.81"/>
<polygon fill="#757575" stroke="#757575" points="2817.62,-855.3 2827.98,-853.07 2818.49,-848.36 2817.62,-855.3"/>
</g>
<!-- lang/en.json -->
<g id="node55" class="node">
<title>lang/en.json</title>
<path fill="none" stroke="#cfffac" d="M2910.83,-829C2910.83,-829 2834.17,-829 2834.17,-829 2830.33,-829 2826.5,-825.17 2826.5,-821.33 2826.5,-821.33 2826.5,-813.67 2826.5,-813.67 2826.5,-809.83 2830.33,-806 2834.17,-806 2834.17,-806 2910.83,-806 2910.83,-806 2914.67,-806 2918.5,-809.83 2918.5,-813.67 2918.5,-813.67 2918.5,-821.33 2918.5,-821.33 2918.5,-825.17 2914.67,-829 2910.83,-829"/>
<text text-anchor="middle" x="2872.5" y="-813.8" font-family="Arial" font-size="14.00" fill="#cfffac">lang/en.json</text>
</g>
<!-- lang/local.tsx&#45;&gt;lang/en.json -->
<g id="edge52" class="edge">
<title>lang/local.tsx&#45;&gt;lang/en.json</title>
<path fill="none" stroke="#757575" d="M2591.12,-817.5C2651.05,-817.5 2753.21,-817.5 2816.27,-817.5"/>
<polygon fill="#757575" stroke="#757575" points="2816.42,-821 2826.42,-817.5 2816.42,-814 2816.42,-821"/>
</g>
<!-- modules/Home/homeSlice.tsx -->
<g id="node62" class="node">
<title>modules/Home/homeSlice.tsx</title>
<path fill="none" stroke="#c6c5fe" d="M2637.33,-187C2637.33,-187 2446.67,-187 2446.67,-187 2442.83,-187 2439,-183.17 2439,-179.33 2439,-179.33 2439,-171.67 2439,-171.67 2439,-167.83 2442.83,-164 2446.67,-164 2446.67,-164 2637.33,-164 2637.33,-164 2641.17,-164 2645,-167.83 2645,-171.67 2645,-171.67 2645,-179.33 2645,-179.33 2645,-183.17 2641.17,-187 2637.33,-187"/>
<text text-anchor="middle" x="2542" y="-171.8" font-family="Arial" font-size="14.00" fill="#c6c5fe">modules/Home/homeSlice.tsx</text>
</g>
<!-- redux/store.tsx&#45;&gt;modules/Home/homeSlice.tsx -->
<g id="edge99" class="edge">
<title>redux/store.tsx&#45;&gt;modules/Home/homeSlice.tsx</title>
<path fill="none" stroke="#757575" d="M2247.38,-175.5C2295.72,-175.5 2367.96,-175.5 2428.68,-175.5"/>
<polygon fill="#757575" stroke="#757575" points="2428.71,-179 2438.71,-175.5 2428.71,-172 2428.71,-179"/>
</g>
<!-- modules/News/newsSlice.tsx -->
<g id="node70" class="node">
<title>modules/News/newsSlice.tsx</title>
<path fill="none" stroke="#c6c5fe" d="M2634.33,-146C2634.33,-146 2449.67,-146 2449.67,-146 2445.83,-146 2442,-142.17 2442,-138.33 2442,-138.33 2442,-130.67 2442,-130.67 2442,-126.83 2445.83,-123 2449.67,-123 2449.67,-123 2634.33,-123 2634.33,-123 2638.17,-123 2642,-126.83 2642,-130.67 2642,-130.67 2642,-138.33 2642,-138.33 2642,-142.17 2638.17,-146 2634.33,-146"/>
<text text-anchor="middle" x="2542" y="-130.8" font-family="Arial" font-size="14.00" fill="#c6c5fe">modules/News/newsSlice.tsx</text>
</g>
<!-- redux/store.tsx&#45;&gt;modules/News/newsSlice.tsx -->
<g id="edge100" class="edge">
<title>redux/store.tsx&#45;&gt;modules/News/newsSlice.tsx</title>
<path fill="none" stroke="#757575" d="M2247.38,-169.09C2296.9,-163.26 2371.49,-154.47 2433.09,-147.21"/>
<polygon fill="#757575" stroke="#757575" points="2433.73,-150.66 2443.25,-146.02 2432.91,-143.71 2433.73,-150.66"/>
</g>
<!-- modules/ThingsWeDo/thingsSlice.tsx -->
<g id="node76" class="node">
<title>modules/ThingsWeDo/thingsSlice.tsx</title>
<path fill="none" stroke="#c6c5fe" d="M2661.33,-105C2661.33,-105 2422.67,-105 2422.67,-105 2418.83,-105 2415,-101.17 2415,-97.33 2415,-97.33 2415,-89.67 2415,-89.67 2415,-85.83 2418.83,-82 2422.67,-82 2422.67,-82 2661.33,-82 2661.33,-82 2665.17,-82 2669,-85.83 2669,-89.67 2669,-89.67 2669,-97.33 2669,-97.33 2669,-101.17 2665.17,-105 2661.33,-105"/>
<text text-anchor="middle" x="2542" y="-89.8" font-family="Arial" font-size="14.00" fill="#c6c5fe">modules/ThingsWeDo/thingsSlice.tsx</text>
</g>
<!-- redux/store.tsx&#45;&gt;modules/ThingsWeDo/thingsSlice.tsx -->
<g id="edge101" class="edge">
<title>redux/store.tsx&#45;&gt;modules/ThingsWeDo/thingsSlice.tsx</title>
<path fill="none" stroke="#757575" d="M2247.19,-177.17C2277.82,-175.96 2315.89,-170.69 2346,-154.5 2367.36,-143.02 2360.58,-124.86 2382,-113.5 2389.25,-109.65 2396.94,-106.43 2404.88,-103.73"/>
<polygon fill="#757575" stroke="#757575" points="2406.15,-107 2414.66,-100.7 2404.08,-100.32 2406.15,-107"/>
</g>
<!-- redux/reducers/errorSlice.tsx -->
<g id="node79" class="node">
<title>redux/reducers/errorSlice.tsx</title>
<path fill="none" stroke="#c6c5fe" d="M2633.83,-64C2633.83,-64 2450.17,-64 2450.17,-64 2446.33,-64 2442.5,-60.17 2442.5,-56.33 2442.5,-56.33 2442.5,-48.67 2442.5,-48.67 2442.5,-44.83 2446.33,-41 2450.17,-41 2450.17,-41 2633.83,-41 2633.83,-41 2637.67,-41 2641.5,-44.83 2641.5,-48.67 2641.5,-48.67 2641.5,-56.33 2641.5,-56.33 2641.5,-60.17 2637.67,-64 2633.83,-64"/>
<text text-anchor="middle" x="2542" y="-48.8" font-family="Arial" font-size="14.00" fill="#c6c5fe">redux/reducers/errorSlice.tsx</text>
</g>
<!-- redux/store.tsx&#45;&gt;redux/reducers/errorSlice.tsx -->
<g id="edge102" class="edge">
<title>redux/store.tsx&#45;&gt;redux/reducers/errorSlice.tsx</title>
<path fill="none" stroke="#757575" d="M2247.13,-180.51C2278.86,-180.63 2318.08,-175.58 2346,-154.5 2377.76,-130.52 2350.1,-96.31 2382,-72.5 2396.58,-61.62 2414.09,-54.99 2432.07,-51.16"/>
<polygon fill="#757575" stroke="#757575" points="2432.9,-54.56 2442.1,-49.3 2431.63,-47.68 2432.9,-54.56"/>
</g>
<!-- components/Header/Header.tsx -->
<g id="node36" class="node">
<title>components/Header/Header.tsx</title>
<path fill="none" stroke="#c6c5fe" d="M1953.83,-1032C1953.83,-1032 1751.17,-1032 1751.17,-1032 1747.33,-1032 1743.5,-1028.17 1743.5,-1024.33 1743.5,-1024.33 1743.5,-1016.67 1743.5,-1016.67 1743.5,-1012.83 1747.33,-1009 1751.17,-1009 1751.17,-1009 1953.83,-1009 1953.83,-1009 1957.67,-1009 1961.5,-1012.83 1961.5,-1016.67 1961.5,-1016.67 1961.5,-1024.33 1961.5,-1024.33 1961.5,-1028.17 1957.67,-1032 1953.83,-1032"/>
<text text-anchor="middle" x="1852.5" y="-1016.8" font-family="Arial" font-size="14.00" fill="#c6c5fe">components/Header/Header.tsx</text>
</g>
<!-- routing/Layout/Layout.tsx&#45;&gt;components/Header/Header.tsx -->
<g id="edge103" class="edge">
<title>routing/Layout/Layout.tsx&#45;&gt;components/Header/Header.tsx</title>
<path fill="none" stroke="#757575" d="M834.13,-1002.05C1029.67,-1005.6 1509.32,-1014.3 1733.03,-1018.35"/>
<polygon fill="#757575" stroke="#757575" points="1733.09,-1021.85 1743.16,-1018.54 1733.22,-1014.85 1733.09,-1021.85"/>
</g>
<!-- components/Sidebar/Sidebar.tsx -->
<g id="node40" class="node">
<title>components/Sidebar/Sidebar.tsx</title>
<path fill="none" stroke="#c6c5fe" d="M1956.83,-1236C1956.83,-1236 1748.17,-1236 1748.17,-1236 1744.33,-1236 1740.5,-1232.17 1740.5,-1228.33 1740.5,-1228.33 1740.5,-1220.67 1740.5,-1220.67 1740.5,-1216.83 1744.33,-1213 1748.17,-1213 1748.17,-1213 1956.83,-1213 1956.83,-1213 1960.67,-1213 1964.5,-1216.83 1964.5,-1220.67 1964.5,-1220.67 1964.5,-1228.33 1964.5,-1228.33 1964.5,-1232.17 1960.67,-1236 1956.83,-1236"/>
<text text-anchor="middle" x="1852.5" y="-1220.8" font-family="Arial" font-size="14.00" fill="#c6c5fe">components/Sidebar/Sidebar.tsx</text>
</g>
<!-- routing/Layout/Layout.tsx&#45;&gt;components/Sidebar/Sidebar.tsx -->
<g id="edge104" class="edge">
<title>routing/Layout/Layout.tsx&#45;&gt;components/Sidebar/Sidebar.tsx</title>
<path fill="none" stroke="#757575" d="M805.48,-1012.07C992.14,-1049.98 1584.72,-1170.32 1784.79,-1210.95"/>
<polygon fill="#757575" stroke="#757575" points="1784.36,-1214.44 1794.86,-1213 1785.76,-1207.58 1784.36,-1214.44"/>
</g>
<!-- routing/Layout/Layout.scss -->
<g id="node80" class="node">
<title>routing/Layout/Layout.scss</title>
<path fill="none" stroke="#cfffac" d="M1067.83,-992C1067.83,-992 898.17,-992 898.17,-992 894.33,-992 890.5,-988.17 890.5,-984.33 890.5,-984.33 890.5,-976.67 890.5,-976.67 890.5,-972.83 894.33,-969 898.17,-969 898.17,-969 1067.83,-969 1067.83,-969 1071.67,-969 1075.5,-972.83 1075.5,-976.67 1075.5,-976.67 1075.5,-984.33 1075.5,-984.33 1075.5,-988.17 1071.67,-992 1067.83,-992"/>
<text text-anchor="middle" x="983" y="-976.8" font-family="Arial" font-size="14.00" fill="#cfffac">routing/Layout/Layout.scss</text>
</g>
<!-- routing/Layout/Layout.tsx&#45;&gt;routing/Layout/Layout.scss -->
<g id="edge105" class="edge">
<title>routing/Layout/Layout.tsx&#45;&gt;routing/Layout/Layout.scss</title>
<path fill="none" stroke="#757575" d="M834.12,-993.17C849.18,-991.88 864.98,-990.52 880.41,-989.2"/>
<polygon fill="#757575" stroke="#757575" points="880.83,-992.68 890.5,-988.34 880.24,-985.7 880.83,-992.68"/>
</g>
<!-- routing/routes.tsx -->
<g id="node81" class="node">
<title>routing/routes.tsx</title>
<path fill="none" stroke="#c6c5fe" d="M1037.83,-657C1037.83,-657 928.17,-657 928.17,-657 924.33,-657 920.5,-653.17 920.5,-649.33 920.5,-649.33 920.5,-641.67 920.5,-641.67 920.5,-637.83 924.33,-634 928.17,-634 928.17,-634 1037.83,-634 1037.83,-634 1041.67,-634 1045.5,-637.83 1045.5,-641.67 1045.5,-641.67 1045.5,-649.33 1045.5,-649.33 1045.5,-653.17 1041.67,-657 1037.83,-657"/>
<text text-anchor="middle" x="983" y="-641.8" font-family="Arial" font-size="14.00" fill="#c6c5fe">routing/routes.tsx</text>
</g>
<!-- routing/Layout/Layout.tsx&#45;&gt;routing/routes.tsx -->
<g id="edge106" class="edge">
<title>routing/Layout/Layout.tsx&#45;&gt;routing/routes.tsx</title>
<path fill="none" stroke="#757575" d="M756.27,-988.69C790.13,-937.2 925.09,-732.02 968.49,-666.04"/>
<polygon fill="#757575" stroke="#757575" points="971.63,-667.63 974.2,-657.36 965.78,-663.79 971.63,-667.63"/>
</g>
<!-- assets/icons/DashIcon.tsx -->
<g id="node8" class="node">
<title>assets/icons/DashIcon.tsx</title>
<path fill="none" stroke="#cfffac" d="M2275.33,-586C2275.33,-586 2108.67,-586 2108.67,-586 2104.83,-586 2101,-582.17 2101,-578.33 2101,-578.33 2101,-570.67 2101,-570.67 2101,-566.83 2104.83,-563 2108.67,-563 2108.67,-563 2275.33,-563 2275.33,-563 2279.17,-563 2283,-566.83 2283,-570.67 2283,-570.67 2283,-578.33 2283,-578.33 2283,-582.17 2279.17,-586 2275.33,-586"/>
<text text-anchor="middle" x="2192" y="-570.8" font-family="Arial" font-size="14.00" fill="#cfffac">assets/icons/DashIcon.tsx</text>
</g>
<!-- assets/icons/HomeBanner.tsx -->
<g id="node9" class="node">
<title>assets/icons/HomeBanner.tsx</title>
<path fill="none" stroke="#cfffac" d="M2286.83,-545C2286.83,-545 2097.17,-545 2097.17,-545 2093.33,-545 2089.5,-541.17 2089.5,-537.33 2089.5,-537.33 2089.5,-529.67 2089.5,-529.67 2089.5,-525.83 2093.33,-522 2097.17,-522 2097.17,-522 2286.83,-522 2286.83,-522 2290.67,-522 2294.5,-525.83 2294.5,-529.67 2294.5,-529.67 2294.5,-537.33 2294.5,-537.33 2294.5,-541.17 2290.67,-545 2286.83,-545"/>
<text text-anchor="middle" x="2192" y="-529.8" font-family="Arial" font-size="14.00" fill="#cfffac">assets/icons/HomeBanner.tsx</text>
</g>
<!-- assets/images/footer/apple&#45;icon.png -->
<g id="node10" class="node">
<title>assets/images/footer/apple&#45;icon.png</title>
<path fill="none" stroke="#cfffac" d="M2308.33,-869C2308.33,-869 2075.67,-869 2075.67,-869 2071.83,-869 2068,-865.17 2068,-861.33 2068,-861.33 2068,-853.67 2068,-853.67 2068,-849.83 2071.83,-846 2075.67,-846 2075.67,-846 2308.33,-846 2308.33,-846 2312.17,-846 2316,-849.83 2316,-853.67 2316,-853.67 2316,-861.33 2316,-861.33 2316,-865.17 2312.17,-869 2308.33,-869"/>
<text text-anchor="middle" x="2192" y="-853.8" font-family="Arial" font-size="14.00" fill="#cfffac">assets/images/footer/apple&#45;icon.png</text>
</g>
<!-- assets/images/footer/bottom&#45;logo.png -->
<g id="node11" class="node">
<title>assets/images/footer/bottom&#45;logo.png</title>
<path fill="none" stroke="#cfffac" d="M2313.33,-951C2313.33,-951 2070.67,-951 2070.67,-951 2066.83,-951 2063,-947.17 2063,-943.33 2063,-943.33 2063,-935.67 2063,-935.67 2063,-931.83 2066.83,-928 2070.67,-928 2070.67,-928 2313.33,-928 2313.33,-928 2317.17,-928 2321,-931.83 2321,-935.67 2321,-935.67 2321,-943.33 2321,-943.33 2321,-947.17 2317.17,-951 2313.33,-951"/>
<text text-anchor="middle" x="2192" y="-935.8" font-family="Arial" font-size="14.00" fill="#cfffac">assets/images/footer/bottom&#45;logo.png</text>
</g>
<!-- assets/images/footer/google&#45;icon.png -->
<g id="node12" class="node">
<title>assets/images/footer/google&#45;icon.png</title>
<path fill="none" stroke="#cfffac" d="M2312.83,-910C2312.83,-910 2071.17,-910 2071.17,-910 2067.33,-910 2063.5,-906.17 2063.5,-902.33 2063.5,-902.33 2063.5,-894.67 2063.5,-894.67 2063.5,-890.83 2067.33,-887 2071.17,-887 2071.17,-887 2312.83,-887 2312.83,-887 2316.67,-887 2320.5,-890.83 2320.5,-894.67 2320.5,-894.67 2320.5,-902.33 2320.5,-902.33 2320.5,-906.17 2316.67,-910 2312.83,-910"/>
<text text-anchor="middle" x="2192" y="-894.8" font-family="Arial" font-size="14.00" fill="#cfffac">assets/images/footer/google&#45;icon.png</text>
</g>
<!-- assets/images/home/h1.png -->
<g id="node13" class="node">
<title>assets/images/home/h1.png</title>
<path fill="none" stroke="#cfffac" d="M2282.33,-504C2282.33,-504 2101.67,-504 2101.67,-504 2097.83,-504 2094,-500.17 2094,-496.33 2094,-496.33 2094,-488.67 2094,-488.67 2094,-484.83 2097.83,-481 2101.67,-481 2101.67,-481 2282.33,-481 2282.33,-481 2286.17,-481 2290,-484.83 2290,-488.67 2290,-488.67 2290,-496.33 2290,-496.33 2290,-500.17 2286.17,-504 2282.33,-504"/>
<text text-anchor="middle" x="2192" y="-488.8" font-family="Arial" font-size="14.00" fill="#cfffac">assets/images/home/h1.png</text>
</g>
<!-- assets/images/logo.png -->
<g id="node14" class="node">
<title>assets/images/logo.png</title>
<path fill="none" stroke="#cfffac" d="M2268.33,-1072C2268.33,-1072 2115.67,-1072 2115.67,-1072 2111.83,-1072 2108,-1068.17 2108,-1064.33 2108,-1064.33 2108,-1056.67 2108,-1056.67 2108,-1052.83 2111.83,-1049 2115.67,-1049 2115.67,-1049 2268.33,-1049 2268.33,-1049 2272.17,-1049 2276,-1052.83 2276,-1056.67 2276,-1056.67 2276,-1064.33 2276,-1064.33 2276,-1068.17 2272.17,-1072 2268.33,-1072"/>
<text text-anchor="middle" x="2192" y="-1056.8" font-family="Arial" font-size="14.00" fill="#cfffac">assets/images/logo.png</text>
</g>
<!-- assets/images/news/logo.png -->
<g id="node15" class="node">
<title>assets/images/news/logo.png</title>
<path fill="none" stroke="#cfffac" d="M2286.83,-383C2286.83,-383 2097.17,-383 2097.17,-383 2093.33,-383 2089.5,-379.17 2089.5,-375.33 2089.5,-375.33 2089.5,-367.67 2089.5,-367.67 2089.5,-363.83 2093.33,-360 2097.17,-360 2097.17,-360 2286.83,-360 2286.83,-360 2290.67,-360 2294.5,-363.83 2294.5,-367.67 2294.5,-367.67 2294.5,-375.33 2294.5,-375.33 2294.5,-379.17 2290.67,-383 2286.83,-383"/>
<text text-anchor="middle" x="2192" y="-367.8" font-family="Arial" font-size="14.00" fill="#cfffac">assets/images/news/logo.png</text>
</g>
<!-- assets/images/things/logo.png -->
<g id="node16" class="node">
<title>assets/images/things/logo.png</title>
<path fill="none" stroke="#cfffac" d="M2288.83,-666C2288.83,-666 2095.17,-666 2095.17,-666 2091.33,-666 2087.5,-662.17 2087.5,-658.33 2087.5,-658.33 2087.5,-650.67 2087.5,-650.67 2087.5,-646.83 2091.33,-643 2095.17,-643 2095.17,-643 2288.83,-643 2288.83,-643 2292.67,-643 2296.5,-646.83 2296.5,-650.67 2296.5,-650.67 2296.5,-658.33 2296.5,-658.33 2296.5,-662.17 2292.67,-666 2288.83,-666"/>
<text text-anchor="middle" x="2192" y="-650.8" font-family="Arial" font-size="14.00" fill="#cfffac">assets/images/things/logo.png</text>
</g>
<!-- assets/images/things/w1.png -->
<g id="node17" class="node">
<title>assets/images/things/w1.png</title>
<path fill="none" stroke="#cfffac" d="M2634.33,-228C2634.33,-228 2449.67,-228 2449.67,-228 2445.83,-228 2442,-224.17 2442,-220.33 2442,-220.33 2442,-212.67 2442,-212.67 2442,-208.83 2445.83,-205 2449.67,-205 2449.67,-205 2634.33,-205 2634.33,-205 2638.17,-205 2642,-208.83 2642,-212.67 2642,-212.67 2642,-220.33 2642,-220.33 2642,-224.17 2638.17,-228 2634.33,-228"/>
<text text-anchor="middle" x="2542" y="-212.8" font-family="Arial" font-size="14.00" fill="#cfffac">assets/images/things/w1.png</text>
</g>
<!-- assets/images/things/w2.png -->
<g id="node18" class="node">
<title>assets/images/things/w2.png</title>
<path fill="none" stroke="#cfffac" d="M2634.33,-392C2634.33,-392 2449.67,-392 2449.67,-392 2445.83,-392 2442,-388.17 2442,-384.33 2442,-384.33 2442,-376.67 2442,-376.67 2442,-372.83 2445.83,-369 2449.67,-369 2449.67,-369 2634.33,-369 2634.33,-369 2638.17,-369 2642,-372.83 2642,-376.67 2642,-376.67 2642,-384.33 2642,-384.33 2642,-388.17 2638.17,-392 2634.33,-392"/>
<text text-anchor="middle" x="2542" y="-376.8" font-family="Arial" font-size="14.00" fill="#cfffac">assets/images/things/w2.png</text>
</g>
<!-- assets/images/things/w3.png -->
<g id="node19" class="node">
<title>assets/images/things/w3.png</title>
<path fill="none" stroke="#cfffac" d="M2634.33,-351C2634.33,-351 2449.67,-351 2449.67,-351 2445.83,-351 2442,-347.17 2442,-343.33 2442,-343.33 2442,-335.67 2442,-335.67 2442,-331.83 2445.83,-328 2449.67,-328 2449.67,-328 2634.33,-328 2634.33,-328 2638.17,-328 2642,-331.83 2642,-335.67 2642,-335.67 2642,-343.33 2642,-343.33 2642,-347.17 2638.17,-351 2634.33,-351"/>
<text text-anchor="middle" x="2542" y="-335.8" font-family="Arial" font-size="14.00" fill="#cfffac">assets/images/things/w3.png</text>
</g>
<!-- assets/images/things/w4.png -->
<g id="node20" class="node">
<title>assets/images/things/w4.png</title>
<path fill="none" stroke="#cfffac" d="M2634.33,-310C2634.33,-310 2449.67,-310 2449.67,-310 2445.83,-310 2442,-306.17 2442,-302.33 2442,-302.33 2442,-294.67 2442,-294.67 2442,-290.83 2445.83,-287 2449.67,-287 2449.67,-287 2634.33,-287 2634.33,-287 2638.17,-287 2642,-290.83 2642,-294.67 2642,-294.67 2642,-302.33 2642,-302.33 2642,-306.17 2638.17,-310 2634.33,-310"/>
<text text-anchor="middle" x="2542" y="-294.8" font-family="Arial" font-size="14.00" fill="#cfffac">assets/images/things/w4.png</text>
</g>
<!-- assets/images/things/w5.png -->
<g id="node21" class="node">
<title>assets/images/things/w5.png</title>
<path fill="none" stroke="#cfffac" d="M2634.33,-269C2634.33,-269 2449.67,-269 2449.67,-269 2445.83,-269 2442,-265.17 2442,-261.33 2442,-261.33 2442,-253.67 2442,-253.67 2442,-249.83 2445.83,-246 2449.67,-246 2449.67,-246 2634.33,-246 2634.33,-246 2638.17,-246 2642,-249.83 2642,-253.67 2642,-253.67 2642,-261.33 2642,-261.33 2642,-265.17 2638.17,-269 2634.33,-269"/>
<text text-anchor="middle" x="2542" y="-253.8" font-family="Arial" font-size="14.00" fill="#cfffac">assets/images/things/w5.png</text>
</g>
<!-- assets/sass/_Custom.scss&#45;&gt;assets/sass/_mixins.scss -->
<g id="edge7" class="edge">
<title>assets/sass/_Custom.scss&#45;&gt;assets/sass/_mixins.scss</title>
<path fill="none" stroke="#757575" d="M1077.31,-1554.72C1088.95,-1555.75 1100.87,-1556.8 1112.58,-1557.83"/>
<polygon fill="#757575" stroke="#757575" points="1112.53,-1561.34 1122.8,-1558.73 1113.14,-1554.36 1112.53,-1561.34"/>
</g>
<!-- components/CustomBadge/CustomBadge.scss -->
<g id="node28" class="node">
<title>components/CustomBadge/CustomBadge.scss</title>
<path fill="none" stroke="#cfffac" d="M2694.33,-433C2694.33,-433 2389.67,-433 2389.67,-433 2385.83,-433 2382,-429.17 2382,-425.33 2382,-425.33 2382,-417.67 2382,-417.67 2382,-413.83 2385.83,-410 2389.67,-410 2389.67,-410 2694.33,-410 2694.33,-410 2698.17,-410 2702,-413.83 2702,-417.67 2702,-417.67 2702,-425.33 2702,-425.33 2702,-429.17 2698.17,-433 2694.33,-433"/>
<text text-anchor="middle" x="2542" y="-417.8" font-family="Arial" font-size="14.00" fill="#cfffac">components/CustomBadge/CustomBadge.scss</text>
</g>
<!-- components/CustomBadge/CustomBadge.tsx -->
<g id="node29" class="node">
<title>components/CustomBadge/CustomBadge.tsx</title>
<path fill="none" stroke="#c6c5fe" d="M2338.33,-301C2338.33,-301 2045.67,-301 2045.67,-301 2041.83,-301 2038,-297.17 2038,-293.33 2038,-293.33 2038,-285.67 2038,-285.67 2038,-281.83 2041.83,-278 2045.67,-278 2045.67,-278 2338.33,-278 2338.33,-278 2342.17,-278 2346,-281.83 2346,-285.67 2346,-285.67 2346,-293.33 2346,-293.33 2346,-297.17 2342.17,-301 2338.33,-301"/>
<text text-anchor="middle" x="2192" y="-285.8" font-family="Arial" font-size="14.00" fill="#c6c5fe">components/CustomBadge/CustomBadge.tsx</text>
</g>
<!-- components/CustomBadge/CustomBadge.tsx&#45;&gt;lang/local.tsx -->
<g id="edge15" class="edge">
<title>components/CustomBadge/CustomBadge.tsx&#45;&gt;lang/local.tsx</title>
<path fill="none" stroke="#757575" d="M2336.46,-301.12C2339.84,-303.62 2343.03,-306.41 2346,-309.5 2408.7,-374.86 2335.09,-638.02 2382,-715.5 2407.96,-758.38 2459.6,-786.42 2497,-802.05"/>
<polygon fill="#757575" stroke="#757575" points="2496.07,-805.45 2506.66,-805.94 2498.69,-798.96 2496.07,-805.45"/>
</g>
<!-- components/CustomBadge/CustomBadge.tsx&#45;&gt;components/CustomBadge/CustomBadge.scss -->
<g id="edge14" class="edge">
<title>components/CustomBadge/CustomBadge.tsx&#45;&gt;components/CustomBadge/CustomBadge.scss</title>
<path fill="none" stroke="#757575" d="M2333.27,-301.14C2337.72,-303.6 2341.99,-306.37 2346,-309.5 2380.31,-336.24 2347.71,-373.74 2382,-400.5 2383.87,-401.96 2385.8,-403.35 2387.77,-404.67"/>
<polygon fill="#757575" stroke="#757575" points="2386.31,-407.87 2396.69,-410 2389.9,-401.86 2386.31,-407.87"/>
</g>
<!-- components/CustomButton/CustomButton.scss -->
<g id="node30" class="node">
<title>components/CustomButton/CustomButton.scss</title>
<path fill="none" stroke="#cfffac" d="M2692.83,-707C2692.83,-707 2391.17,-707 2391.17,-707 2387.33,-707 2383.5,-703.17 2383.5,-699.33 2383.5,-699.33 2383.5,-691.67 2383.5,-691.67 2383.5,-687.83 2387.33,-684 2391.17,-684 2391.17,-684 2692.83,-684 2692.83,-684 2696.67,-684 2700.5,-687.83 2700.5,-691.67 2700.5,-691.67 2700.5,-699.33 2700.5,-699.33 2700.5,-703.17 2696.67,-707 2692.83,-707"/>
<text text-anchor="middle" x="2542" y="-691.8" font-family="Arial" font-size="14.00" fill="#cfffac">components/CustomButton/CustomButton.scss</text>
</g>
<!-- components/CustomButton/CustomButton.tsx -->
<g id="node31" class="node">
<title>components/CustomButton/CustomButton.tsx</title>
<path fill="none" stroke="#c6c5fe" d="M2336.83,-707C2336.83,-707 2047.17,-707 2047.17,-707 2043.33,-707 2039.5,-703.17 2039.5,-699.33 2039.5,-699.33 2039.5,-691.67 2039.5,-691.67 2039.5,-687.83 2043.33,-684 2047.17,-684 2047.17,-684 2336.83,-684 2336.83,-684 2340.67,-684 2344.5,-687.83 2344.5,-691.67 2344.5,-691.67 2344.5,-699.33 2344.5,-699.33 2344.5,-703.17 2340.67,-707 2336.83,-707"/>
<text text-anchor="middle" x="2192" y="-691.8" font-family="Arial" font-size="14.00" fill="#c6c5fe">components/CustomButton/CustomButton.tsx</text>
</g>
<!-- components/CustomButton/CustomButton.tsx&#45;&gt;lang/local.tsx -->
<g id="edge17" class="edge">
<title>components/CustomButton/CustomButton.tsx&#45;&gt;lang/local.tsx</title>
<path fill="none" stroke="#757575" d="M2312.91,-707.04C2324.21,-709.36 2335.4,-712.15 2346,-715.5 2410.65,-735.92 2479.37,-777.05 2515.46,-800.36"/>
<polygon fill="#757575" stroke="#757575" points="2513.62,-803.34 2523.9,-805.88 2517.45,-797.48 2513.62,-803.34"/>
</g>
<!-- components/CustomButton/CustomButton.tsx&#45;&gt;components/CustomButton/CustomButton.scss -->
<g id="edge16" class="edge">
<title>components/CustomButton/CustomButton.tsx&#45;&gt;components/CustomButton/CustomButton.scss</title>
<path fill="none" stroke="#757575" d="M2344.63,-695.5C2354.04,-695.5 2363.55,-695.5 2373.03,-695.5"/>
<polygon fill="#757575" stroke="#757575" points="2373.3,-699 2383.3,-695.5 2373.3,-692 2373.3,-699"/>
</g>
<!-- components/Footer/Footer.tsx -->
<g id="node32" class="node">
<title>components/Footer/Footer.tsx</title>
<path fill="none" stroke="#c6c5fe" d="M1949.33,-869C1949.33,-869 1755.67,-869 1755.67,-869 1751.83,-869 1748,-865.17 1748,-861.33 1748,-861.33 1748,-853.67 1748,-853.67 1748,-849.83 1751.83,-846 1755.67,-846 1755.67,-846 1949.33,-846 1949.33,-846 1953.17,-846 1957,-849.83 1957,-853.67 1957,-853.67 1957,-861.33 1957,-861.33 1957,-865.17 1953.17,-869 1949.33,-869"/>
<text text-anchor="middle" x="1852.5" y="-853.8" font-family="Arial" font-size="14.00" fill="#c6c5fe">components/Footer/Footer.tsx</text>
</g>
<!-- components/Footer/Footer.tsx&#45;&gt;lang/local.tsx -->
<g id="edge24" class="edge">
<title>components/Footer/Footer.tsx&#45;&gt;lang/local.tsx</title>
<path fill="none" stroke="#757575" d="M1942.52,-845.99C1972.78,-842.45 2006.82,-838.86 2038,-836.5 2198.63,-824.34 2388.74,-819.84 2482.58,-818.27"/>
<polygon fill="#757575" stroke="#757575" points="2482.78,-821.77 2492.73,-818.11 2482.67,-814.77 2482.78,-821.77"/>
</g>
<!-- components/Footer/Footer.tsx&#45;&gt;assets/images/footer/apple&#45;icon.png -->
<g id="edge18" class="edge">
<title>components/Footer/Footer.tsx&#45;&gt;assets/images/footer/apple&#45;icon.png</title>
<path fill="none" stroke="#757575" d="M1957.05,-857.5C1988.75,-857.5 2024.07,-857.5 2057.47,-857.5"/>
<polygon fill="#757575" stroke="#757575" points="2057.77,-861 2067.77,-857.5 2057.77,-854 2057.77,-861"/>
</g>
<!-- components/Footer/Footer.tsx&#45;&gt;assets/images/footer/bottom&#45;logo.png -->
<g id="edge19" class="edge">
<title>components/Footer/Footer.tsx&#45;&gt;assets/images/footer/bottom&#45;logo.png</title>
<path fill="none" stroke="#757575" d="M1882.74,-869.02C1918.73,-882.76 1981.97,-905.51 2038,-918.5 2050.7,-921.44 2064.09,-924.03 2077.45,-926.28"/>
<polygon fill="#757575" stroke="#757575" points="2077.22,-929.79 2087.65,-927.94 2078.35,-922.88 2077.22,-929.79"/>
</g>
<!-- components/Footer/Footer.tsx&#45;&gt;assets/images/footer/google&#45;icon.png -->
<g id="edge20" class="edge">
<title>components/Footer/Footer.tsx&#45;&gt;assets/images/footer/google&#45;icon.png</title>
<path fill="none" stroke="#757575" d="M1948.41,-869.03C1991.28,-874.24 2042.07,-880.41 2086.07,-885.75"/>
<polygon fill="#757575" stroke="#757575" points="2085.87,-889.25 2096.22,-886.99 2086.71,-882.31 2085.87,-889.25"/>
</g>
<!-- components/Footer/Footer.tsx&#45;&gt;assets/images/logo.png -->
<g id="edge21" class="edge">
<title>components/Footer/Footer.tsx&#45;&gt;assets/images/logo.png</title>
<path fill="none" stroke="#757575" d="M1865.55,-869.01C1893.73,-895.43 1966.94,-961.25 2038,-1001.5 2071.08,-1020.24 2111.28,-1035.48 2142.18,-1045.78"/>
<polygon fill="#757575" stroke="#757575" points="2141.27,-1049.16 2151.86,-1048.95 2143.44,-1042.51 2141.27,-1049.16"/>
</g>
<!-- components/Footer/Footer.tsx&#45;&gt;components/CustomButton/CustomButton.tsx -->
<g id="edge22" class="edge">
<title>components/Footer/Footer.tsx&#45;&gt;components/CustomButton/CustomButton.tsx</title>
<path fill="none" stroke="#757575" d="M1864.2,-845.8C1890.6,-817.8 1962.2,-746.92 2038,-715.5 2042.83,-713.5 2047.8,-711.69 2052.88,-710.05"/>
<polygon fill="#757575" stroke="#757575" points="2054.18,-713.31 2062.76,-707.1 2052.18,-706.61 2054.18,-713.31"/>
</g>
<!-- components/Footer/footer.scss -->
<g id="node33" class="node">
<title>components/Footer/footer.scss</title>
<path fill="none" stroke="#c6c5fe" d="M2292.33,-1154C2292.33,-1154 2091.67,-1154 2091.67,-1154 2087.83,-1154 2084,-1150.17 2084,-1146.33 2084,-1146.33 2084,-1138.67 2084,-1138.67 2084,-1134.83 2087.83,-1131 2091.67,-1131 2091.67,-1131 2292.33,-1131 2292.33,-1131 2296.17,-1131 2300,-1134.83 2300,-1138.67 2300,-1138.67 2300,-1146.33 2300,-1146.33 2300,-1150.17 2296.17,-1154 2292.33,-1154"/>
<text text-anchor="middle" x="2192" y="-1138.8" font-family="Arial" font-size="14.00" fill="#c6c5fe">components/Footer/footer.scss</text>
</g>
<!-- components/Footer/Footer.tsx&#45;&gt;components/Footer/footer.scss -->
<g id="edge23" class="edge">
<title>components/Footer/Footer.tsx&#45;&gt;components/Footer/footer.scss</title>
<path fill="none" stroke="#757575" d="M1870.5,-869.17C1901.32,-891.22 1966.53,-942.06 2002,-1000.5 2031.34,-1048.83 1995.01,-1085.78 2038,-1122.5 2048.49,-1131.46 2060.95,-1137.63 2074.17,-1141.76"/>
<polygon fill="#757575" stroke="#757575" points="2073.34,-1145.16 2083.9,-1144.42 2075.18,-1138.4 2073.34,-1145.16"/>
</g>
<!-- styles/generalStyle.tsx -->
<g id="node34" class="node">
<title>styles/generalStyle.tsx</title>
<path fill="none" stroke="#c6c5fe" d="M2263.33,-748C2263.33,-748 2120.67,-748 2120.67,-748 2116.83,-748 2113,-744.17 2113,-740.33 2113,-740.33 2113,-732.67 2113,-732.67 2113,-728.83 2116.83,-725 2120.67,-725 2120.67,-725 2263.33,-725 2263.33,-725 2267.17,-725 2271,-728.83 2271,-732.67 2271,-732.67 2271,-740.33 2271,-740.33 2271,-744.17 2267.17,-748 2263.33,-748"/>
<text text-anchor="middle" x="2192" y="-732.8" font-family="Arial" font-size="14.00" fill="#c6c5fe">styles/generalStyle.tsx</text>
</g>
<!-- components/Footer/Footer.tsx&#45;&gt;styles/generalStyle.tsx -->
<g id="edge25" class="edge">
<title>components/Footer/Footer.tsx&#45;&gt;styles/generalStyle.tsx</title>
<path fill="none" stroke="#757575" d="M1869.83,-845.8C1900.89,-824.19 1971.35,-778.25 2038,-756.5 2058.45,-749.83 2081.12,-745.37 2102.6,-742.4"/>
<polygon fill="#757575" stroke="#757575" points="2103.24,-745.85 2112.71,-741.1 2102.35,-738.91 2103.24,-745.85"/>
</g>
<!-- components/Footer/footer.scss&#45;&gt;assets/sass/_Variables.scss -->
<g id="edge26" class="edge">
<title>components/Footer/footer.scss&#45;&gt;assets/sass/_Variables.scss</title>
<path fill="none" stroke="#757575" d="M2290.86,-1154.03C2335.16,-1159.25 2387.65,-1165.43 2433.09,-1170.79"/>
<polygon fill="#757575" stroke="#757575" points="2432.93,-1174.29 2443.27,-1171.99 2433.75,-1167.34 2432.93,-1174.29"/>
</g>
<!-- styles/generalStyle.tsx&#45;&gt;lang/local.tsx -->
<g id="edge108" class="edge">
<title>styles/generalStyle.tsx&#45;&gt;lang/local.tsx</title>
<path fill="none" stroke="#757575" d="M2271.29,-744.09C2295.4,-747.13 2321.93,-751.2 2346,-756.5 2400.45,-768.48 2461.55,-788.75 2500.6,-802.6"/>
<polygon fill="#757575" stroke="#757575" points="2499.45,-805.91 2510.04,-805.98 2501.8,-799.32 2499.45,-805.91"/>
</g>
<!-- components/Header/Header.scss -->
<g id="node35" class="node">
<title>components/Header/Header.scss</title>
<path fill="none" stroke="#c6c5fe" d="M2299.33,-1195C2299.33,-1195 2084.67,-1195 2084.67,-1195 2080.83,-1195 2077,-1191.17 2077,-1187.33 2077,-1187.33 2077,-1179.67 2077,-1179.67 2077,-1175.83 2080.83,-1172 2084.67,-1172 2084.67,-1172 2299.33,-1172 2299.33,-1172 2303.17,-1172 2307,-1175.83 2307,-1179.67 2307,-1179.67 2307,-1187.33 2307,-1187.33 2307,-1191.17 2303.17,-1195 2299.33,-1195"/>
<text text-anchor="middle" x="2192" y="-1179.8" font-family="Arial" font-size="14.00" fill="#c6c5fe">components/Header/Header.scss</text>
</g>
<!-- components/Header/Header.scss&#45;&gt;assets/sass/_Variables.scss -->
<g id="edge27" class="edge">
<title>components/Header/Header.scss&#45;&gt;assets/sass/_Variables.scss</title>
<path fill="none" stroke="#757575" d="M2307.43,-1183.5C2347.97,-1183.5 2393.42,-1183.5 2433.38,-1183.5"/>
<polygon fill="#757575" stroke="#757575" points="2433.41,-1187 2443.41,-1183.5 2433.41,-1180 2433.41,-1187"/>
</g>
<!-- components/Header/Header.tsx&#45;&gt;lang/local.tsx -->
<g id="edge32" class="edge">
<title>components/Header/Header.tsx&#45;&gt;lang/local.tsx</title>
<path fill="none" stroke="#757575" d="M1961.56,-1025.08C2085.19,-1028.8 2279.18,-1029.55 2346,-1001.5 2430.01,-966.23 2499.56,-877.31 2527.64,-837.42"/>
<polygon fill="#757575" stroke="#757575" points="2530.63,-839.25 2533.44,-829.03 2524.87,-835.27 2530.63,-839.25"/>
</g>
<!-- components/Header/Header.tsx&#45;&gt;assets/images/logo.png -->
<g id="edge28" class="edge">
<title>components/Header/Header.tsx&#45;&gt;assets/images/logo.png</title>
<path fill="none" stroke="#757575" d="M1950.67,-1032.02C1996.92,-1037.5 2051.99,-1044.02 2097.73,-1049.45"/>
<polygon fill="#757575" stroke="#757575" points="2097.6,-1052.95 2107.94,-1050.66 2098.42,-1046 2097.6,-1052.95"/>
</g>
<!-- components/Header/Header.tsx&#45;&gt;components/CustomButton/CustomButton.tsx -->
<g id="edge29" class="edge">
<title>components/Header/Header.tsx&#45;&gt;components/CustomButton/CustomButton.tsx</title>
<path fill="none" stroke="#757575" d="M1871.38,-1008.71C1903.04,-986.85 1968.72,-936.8 2002,-877.5 2038.1,-813.18 1983.59,-765.29 2038,-715.5 2038.84,-714.73 2039.69,-713.98 2040.56,-713.25"/>
<polygon fill="#757575" stroke="#757575" points="2042.77,-715.97 2048.72,-707.21 2038.6,-710.35 2042.77,-715.97"/>
</g>
<!-- components/Header/Header.tsx&#45;&gt;styles/generalStyle.tsx -->
<g id="edge34" class="edge">
<title>components/Header/Header.tsx&#45;&gt;styles/generalStyle.tsx</title>
<path fill="none" stroke="#757575" d="M1870.49,-1008.82C1901.29,-986.76 1966.46,-935.9 2002,-877.5 2031.17,-829.57 1995.3,-792.89 2038,-756.5 2055.93,-741.22 2079.59,-734.08 2102.94,-731.29"/>
<polygon fill="#757575" stroke="#757575" points="2103.28,-734.77 2112.91,-730.34 2102.62,-727.8 2103.28,-734.77"/>
</g>
<!-- components/Header/Header.tsx&#45;&gt;components/Header/Header.scss -->
<g id="edge30" class="edge">
<title>components/Header/Header.tsx&#45;&gt;components/Header/Header.scss</title>
<path fill="none" stroke="#757575" d="M1864.18,-1032.28C1890.54,-1060.48 1962.06,-1131.87 2038,-1163.5 2047.18,-1167.32 2056.92,-1170.46 2066.85,-1173.03"/>
<polygon fill="#757575" stroke="#757575" points="2066.3,-1176.49 2076.84,-1175.41 2067.93,-1169.68 2066.3,-1176.49"/>
</g>
<!-- components/Header/Language.tsx -->
<g id="node37" class="node">
<title>components/Header/Language.tsx</title>
<path fill="none" stroke="#c6c5fe" d="M2301.33,-992C2301.33,-992 2082.67,-992 2082.67,-992 2078.83,-992 2075,-988.17 2075,-984.33 2075,-984.33 2075,-976.67 2075,-976.67 2075,-972.83 2078.83,-969 2082.67,-969 2082.67,-969 2301.33,-969 2301.33,-969 2305.17,-969 2309,-972.83 2309,-976.67 2309,-976.67 2309,-984.33 2309,-984.33 2309,-988.17 2305.17,-992 2301.33,-992"/>
<text text-anchor="middle" x="2192" y="-976.8" font-family="Arial" font-size="14.00" fill="#c6c5fe">components/Header/Language.tsx</text>
</g>
<!-- components/Header/Header.tsx&#45;&gt;components/Header/Language.tsx -->
<g id="edge31" class="edge">
<title>components/Header/Header.tsx&#45;&gt;components/Header/Language.tsx</title>
<path fill="none" stroke="#757575" d="M1950.67,-1008.98C1992.31,-1004.05 2041.1,-998.27 2083.79,-993.21"/>
<polygon fill="#757575" stroke="#757575" points="2084.42,-996.66 2093.94,-992 2083.59,-989.71 2084.42,-996.66"/>
</g>
<!-- routing/items.tsx -->
<g id="node38" class="node">
<title>routing/items.tsx</title>
<path fill="none" stroke="#cfffac" d="M2243.83,-1236C2243.83,-1236 2140.17,-1236 2140.17,-1236 2136.33,-1236 2132.5,-1232.17 2132.5,-1228.33 2132.5,-1228.33 2132.5,-1220.67 2132.5,-1220.67 2132.5,-1216.83 2136.33,-1213 2140.17,-1213 2140.17,-1213 2243.83,-1213 2243.83,-1213 2247.67,-1213 2251.5,-1216.83 2251.5,-1220.67 2251.5,-1220.67 2251.5,-1228.33 2251.5,-1228.33 2251.5,-1232.17 2247.67,-1236 2243.83,-1236"/>
<text text-anchor="middle" x="2192" y="-1220.8" font-family="Arial" font-size="14.00" fill="#cfffac">routing/items.tsx</text>
</g>
<!-- components/Header/Header.tsx&#45;&gt;routing/items.tsx -->
<g id="edge33" class="edge">
<title>components/Header/Header.tsx&#45;&gt;routing/items.tsx</title>
<path fill="none" stroke="#757575" d="M1860.97,-1032.13C1883.21,-1065.62 1952.75,-1162.58 2038,-1204.5 2063.79,-1217.18 2094.84,-1222.75 2122.21,-1224.93"/>
<polygon fill="#757575" stroke="#757575" points="2122.29,-1228.45 2132.5,-1225.61 2122.75,-1221.46 2122.29,-1228.45"/>
</g>
<!-- components/Header/Language.tsx&#45;&gt;lang/local.tsx -->
<g id="edge35" class="edge">
<title>components/Header/Language.tsx&#45;&gt;lang/local.tsx</title>
<path fill="none" stroke="#757575" d="M2309.06,-971.64C2321.76,-968.83 2334.31,-965.19 2346,-960.5 2418.92,-931.26 2489.43,-868.35 2522.09,-836.63"/>
<polygon fill="#757575" stroke="#757575" points="2524.89,-838.78 2529.56,-829.27 2519.98,-833.8 2524.89,-838.78"/>
</g>
<!-- components/Sidebar/Sidebar.scss -->
<g id="node39" class="node">
<title>components/Sidebar/Sidebar.scss</title>
<path fill="none" stroke="#cfffac" d="M2302.33,-1316C2302.33,-1316 2081.67,-1316 2081.67,-1316 2077.83,-1316 2074,-1312.17 2074,-1308.33 2074,-1308.33 2074,-1300.67 2074,-1300.67 2074,-1296.83 2077.83,-1293 2081.67,-1293 2081.67,-1293 2302.33,-1293 2302.33,-1293 2306.17,-1293 2310,-1296.83 2310,-1300.67 2310,-1300.67 2310,-1308.33 2310,-1308.33 2310,-1312.17 2306.17,-1316 2302.33,-1316"/>
<text text-anchor="middle" x="2192" y="-1300.8" font-family="Arial" font-size="14.00" fill="#cfffac">components/Sidebar/Sidebar.scss</text>
</g>
<!-- components/Sidebar/Sidebar.tsx&#45;&gt;lang/local.tsx -->
<g id="edge38" class="edge">
<title>components/Sidebar/Sidebar.tsx&#45;&gt;lang/local.tsx</title>
<path fill="none" stroke="#757575" d="M1916.64,-1236.05C2033.31,-1255.97 2277.03,-1290.54 2346,-1245.5 2379.32,-1223.74 2365.69,-1199.81 2382,-1163.5 2437.61,-1039.72 2506.27,-891.98 2531.29,-838.29"/>
<polygon fill="#757575" stroke="#757575" points="2534.52,-839.66 2535.57,-829.12 2528.18,-836.7 2534.52,-839.66"/>
</g>
<!-- components/Sidebar/Sidebar.tsx&#45;&gt;assets/images/logo.png -->
<g id="edge36" class="edge">
<title>components/Sidebar/Sidebar.tsx&#45;&gt;assets/images/logo.png</title>
<path fill="none" stroke="#757575" d="M1864.2,-1212.75C1890.58,-1184.62 1962.16,-1113.38 2038,-1081.5 2056.69,-1073.64 2077.69,-1068.6 2098.01,-1065.38"/>
<polygon fill="#757575" stroke="#757575" points="2098.51,-1068.85 2107.91,-1063.95 2097.51,-1061.92 2098.51,-1068.85"/>
</g>
<!-- components/Sidebar/Sidebar.tsx&#45;&gt;routing/items.tsx -->
<g id="edge39" class="edge">
<title>components/Sidebar/Sidebar.tsx&#45;&gt;routing/items.tsx</title>
<path fill="none" stroke="#757575" d="M1964.95,-1224.5C2016.78,-1224.5 2076.8,-1224.5 2121.97,-1224.5"/>
<polygon fill="#757575" stroke="#757575" points="2122.24,-1228 2132.24,-1224.5 2122.24,-1221 2122.24,-1228"/>
</g>
<!-- components/Sidebar/Sidebar.tsx&#45;&gt;components/Sidebar/Sidebar.scss -->
<g id="edge37" class="edge">
<title>components/Sidebar/Sidebar.tsx&#45;&gt;components/Sidebar/Sidebar.scss</title>
<path fill="none" stroke="#757575" d="M1888.55,-1236.08C1925.43,-1247.96 1985.31,-1266.36 2038,-1278.5 2058.74,-1283.28 2081.25,-1287.59 2102.46,-1291.25"/>
<polygon fill="#757575" stroke="#757575" points="2101.98,-1294.72 2112.42,-1292.95 2103.15,-1287.82 2101.98,-1294.72"/>
</g>
<!-- config/env.config.tsx -->
<g id="node41" class="node">
<title>config/env.config.tsx</title>
<path fill="none" stroke="#cfffac" d="M2607.33,-23C2607.33,-23 2476.67,-23 2476.67,-23 2472.83,-23 2469,-19.17 2469,-15.33 2469,-15.33 2469,-7.67 2469,-7.67 2469,-3.83 2472.83,0 2476.67,0 2476.67,0 2607.33,0 2607.33,0 2611.17,0 2615,-3.83 2615,-7.67 2615,-7.67 2615,-15.33 2615,-15.33 2615,-19.17 2611.17,-23 2607.33,-23"/>
<text text-anchor="middle" x="2542" y="-7.8" font-family="Arial" font-size="14.00" fill="#cfffac">config/env.config.tsx</text>
</g>
<!-- core/interfaces/IError.tsx -->
<g id="node42" class="node">
<title>core/interfaces/IError.tsx</title>
<path fill="none" stroke="#cfffac" d="M2951.33,-64C2951.33,-64 2793.67,-64 2793.67,-64 2789.83,-64 2786,-60.17 2786,-56.33 2786,-56.33 2786,-48.67 2786,-48.67 2786,-44.83 2789.83,-41 2793.67,-41 2793.67,-41 2951.33,-41 2951.33,-41 2955.17,-41 2959,-44.83 2959,-48.67 2959,-48.67 2959,-56.33 2959,-56.33 2959,-60.17 2955.17,-64 2951.33,-64"/>
<text text-anchor="middle" x="2872.5" y="-48.8" font-family="Arial" font-size="14.00" fill="#cfffac">core/interfaces/IError.tsx</text>
</g>
<!-- data/banner.json -->
<g id="node44" class="node">
<title>data/banner.json</title>
<path fill="none" stroke="#cfffac" d="M2244.83,-146C2244.83,-146 2139.17,-146 2139.17,-146 2135.33,-146 2131.5,-142.17 2131.5,-138.33 2131.5,-138.33 2131.5,-130.67 2131.5,-130.67 2131.5,-126.83 2135.33,-123 2139.17,-123 2139.17,-123 2244.83,-123 2244.83,-123 2248.67,-123 2252.5,-126.83 2252.5,-130.67 2252.5,-130.67 2252.5,-138.33 2252.5,-138.33 2252.5,-142.17 2248.67,-146 2244.83,-146"/>
<text text-anchor="middle" x="2192" y="-130.8" font-family="Arial" font-size="14.00" fill="#cfffac">data/banner.json</text>
</g>
<!-- data/things.tsx -->
<g id="node45" class="node">
<title>data/things.tsx</title>
<path fill="none" stroke="#c6c5fe" d="M2237.83,-260C2237.83,-260 2146.17,-260 2146.17,-260 2142.33,-260 2138.5,-256.17 2138.5,-252.33 2138.5,-252.33 2138.5,-244.67 2138.5,-244.67 2138.5,-240.83 2142.33,-237 2146.17,-237 2146.17,-237 2237.83,-237 2237.83,-237 2241.67,-237 2245.5,-240.83 2245.5,-244.67 2245.5,-244.67 2245.5,-252.33 2245.5,-252.33 2245.5,-256.17 2241.67,-260 2237.83,-260"/>
<text text-anchor="middle" x="2192" y="-244.8" font-family="Arial" font-size="14.00" fill="#c6c5fe">data/things.tsx</text>
</g>
<!-- data/things.tsx&#45;&gt;assets/images/things/w1.png -->
<g id="edge40" class="edge">
<title>data/things.tsx&#45;&gt;assets/images/things/w1.png</title>
<path fill="none" stroke="#757575" d="M2245.85,-243.64C2294.93,-239.13 2369.55,-232.27 2431.47,-226.57"/>
<polygon fill="#757575" stroke="#757575" points="2432.05,-230.03 2441.69,-225.63 2431.41,-223.06 2432.05,-230.03"/>
</g>
<!-- data/things.tsx&#45;&gt;assets/images/things/w2.png -->
<g id="edge41" class="edge">
<title>data/things.tsx&#45;&gt;assets/images/things/w2.png</title>
<path fill="none" stroke="#757575" d="M2245.56,-242.75C2277.7,-242.06 2317.9,-246.6 2346,-268.5 2380.31,-295.24 2347.71,-332.74 2382,-359.5 2396.35,-370.7 2413.75,-377.55 2431.69,-381.54"/>
<polygon fill="#757575" stroke="#757575" points="2431.22,-385.01 2441.71,-383.47 2432.55,-378.14 2431.22,-385.01"/>
</g>
<!-- data/things.tsx&#45;&gt;assets/images/things/w3.png -->
<g id="edge42" class="edge">
<title>data/things.tsx&#45;&gt;assets/images/things/w3.png</title>
<path fill="none" stroke="#757575" d="M2245.62,-245.28C2276.81,-245.73 2315.99,-250.58 2346,-268.5 2369.51,-282.54 2358.5,-304.44 2382,-318.5 2396.98,-327.46 2414.16,-333.29 2431.56,-336.99"/>
<polygon fill="#757575" stroke="#757575" points="2431.35,-340.51 2441.82,-338.93 2432.65,-333.63 2431.35,-340.51"/>
</g>
<!-- data/things.tsx&#45;&gt;assets/images/things/w4.png -->
<g id="edge43" class="edge">
<title>data/things.tsx&#45;&gt;assets/images/things/w4.png</title>
<path fill="none" stroke="#757575" d="M2245.64,-253.87C2275.26,-257.27 2312.84,-262.21 2346,-268.5 2362.2,-271.57 2365.8,-274.42 2382,-277.5 2397.97,-280.54 2414.92,-283.29 2431.58,-285.71"/>
<polygon fill="#757575" stroke="#757575" points="2431.52,-289.24 2441.91,-287.18 2432.5,-282.31 2431.52,-289.24"/>
</g>
<!-- data/things.tsx&#45;&gt;assets/images/things/w5.png -->
<g id="edge44" class="edge">
<title>data/things.tsx&#45;&gt;assets/images/things/w5.png</title>
<path fill="none" stroke="#757575" d="M2245.85,-249.87C2294.93,-251.14 2369.55,-253.07 2431.47,-254.67"/>
<polygon fill="#757575" stroke="#757575" points="2431.6,-258.17 2441.69,-254.93 2431.78,-251.17 2431.6,-258.17"/>
</g>
<!-- hooks/useToggle.tsx -->
<g id="node46" class="node">
<title>hooks/useToggle.tsx</title>
<path fill="none" stroke="#cfffac" d="M216.33,-1053C216.33,-1053 82.67,-1053 82.67,-1053 78.83,-1053 75,-1049.17 75,-1045.33 75,-1045.33 75,-1037.67 75,-1037.67 75,-1033.83 78.83,-1030 82.67,-1030 82.67,-1030 216.33,-1030 216.33,-1030 220.17,-1030 224,-1033.83 224,-1037.67 224,-1037.67 224,-1045.33 224,-1045.33 224,-1049.17 220.17,-1053 216.33,-1053"/>
<text text-anchor="middle" x="149.5" y="-1037.8" font-family="Arial" font-size="14.00" fill="#cfffac">hooks/useToggle.tsx</text>
</g>
<!-- index.css -->
<g id="node47" class="node">
<title>index.css</title>
<path fill="none" stroke="#cfffac" d="M506.33,-930C506.33,-930 444.67,-930 444.67,-930 440.83,-930 437,-926.17 437,-922.33 437,-922.33 437,-914.67 437,-914.67 437,-910.83 440.83,-907 444.67,-907 444.67,-907 506.33,-907 506.33,-907 510.17,-907 514,-910.83 514,-914.67 514,-914.67 514,-922.33 514,-922.33 514,-926.17 510.17,-930 506.33,-930"/>
<text text-anchor="middle" x="475.5" y="-914.8" font-family="Arial" font-size="14.00" fill="#cfffac">index.css</text>
</g>
<!-- index.tsx -->
<g id="node48" class="node">
<title>index.tsx</title>
<path fill="none" stroke="#c6c5fe" d="M177.83,-971C177.83,-971 121.17,-971 121.17,-971 117.33,-971 113.5,-967.17 113.5,-963.33 113.5,-963.33 113.5,-955.67 113.5,-955.67 113.5,-951.83 117.33,-948 121.17,-948 121.17,-948 177.83,-948 177.83,-948 181.67,-948 185.5,-951.83 185.5,-955.67 185.5,-955.67 185.5,-963.33 185.5,-963.33 185.5,-967.17 181.67,-971 177.83,-971"/>
<text text-anchor="middle" x="149.5" y="-955.8" font-family="Arial" font-size="14.00" fill="#c6c5fe">index.tsx</text>
</g>
<!-- index.tsx&#45;&gt;App.tsx -->
<g id="edge45" class="edge">
<title>index.tsx&#45;&gt;App.tsx</title>
<path fill="none" stroke="#757575" d="M185.79,-963.97C245.92,-971.57 367.95,-987.02 432.42,-995.17"/>
<polygon fill="#757575" stroke="#757575" points="432.27,-998.68 442.63,-996.47 433.15,-991.74 432.27,-998.68"/>
</g>
<!-- index.tsx&#45;&gt;index.css -->
<g id="edge46" class="edge">
<title>index.tsx&#45;&gt;index.css</title>
<path fill="none" stroke="#757575" d="M185.79,-955.03C244.17,-947.65 360.92,-932.87 426.66,-924.55"/>
<polygon fill="#757575" stroke="#757575" points="427.28,-928 436.76,-923.28 426.4,-921.06 427.28,-928"/>
</g>
<!-- reportWebVitals.ts -->
<g id="node49" class="node">
<title>reportWebVitals.ts</title>
<path fill="none" stroke="#cfffac" d="M534.83,-971C534.83,-971 416.17,-971 416.17,-971 412.33,-971 408.5,-967.17 408.5,-963.33 408.5,-963.33 408.5,-955.67 408.5,-955.67 408.5,-951.83 412.33,-948 416.17,-948 416.17,-948 534.83,-948 534.83,-948 538.67,-948 542.5,-951.83 542.5,-955.67 542.5,-955.67 542.5,-963.33 542.5,-963.33 542.5,-967.17 538.67,-971 534.83,-971"/>
<text text-anchor="middle" x="475.5" y="-955.8" font-family="Arial" font-size="14.00" fill="#cfffac">reportWebVitals.ts</text>
</g>
<!-- index.tsx&#45;&gt;reportWebVitals.ts -->
<g id="edge47" class="edge">
<title>index.tsx&#45;&gt;reportWebVitals.ts</title>
<path fill="none" stroke="#757575" d="M185.79,-959.5C236.49,-959.5 331.21,-959.5 398.32,-959.5"/>
<polygon fill="#757575" stroke="#757575" points="398.43,-963 408.43,-959.5 398.43,-956 398.43,-963"/>
</g>
<!-- infrastructure/services/cookies&#45;service.tsx -->
<g id="node50" class="node">
<title>infrastructure/services/cookies&#45;service.tsx</title>
<path fill="none" stroke="#cfffac" d="M608.33,-1094C608.33,-1094 342.67,-1094 342.67,-1094 338.83,-1094 335,-1090.17 335,-1086.33 335,-1086.33 335,-1078.67 335,-1078.67 335,-1074.83 338.83,-1071 342.67,-1071 342.67,-1071 608.33,-1071 608.33,-1071 612.17,-1071 616,-1074.83 616,-1078.67 616,-1078.67 616,-1086.33 616,-1086.33 616,-1090.17 612.17,-1094 608.33,-1094"/>
<text text-anchor="middle" x="475.5" y="-1078.8" font-family="Arial" font-size="14.00" fill="#cfffac">infrastructure/services/cookies&#45;service.tsx</text>
</g>
<!-- infrastructure/services/http&#45;service.tsx -->
<g id="node51" class="node">
<title>infrastructure/services/http&#45;service.tsx</title>
<path fill="none" stroke="#c6c5fe" d="M2311.33,-105C2311.33,-105 2072.67,-105 2072.67,-105 2068.83,-105 2065,-101.17 2065,-97.33 2065,-97.33 2065,-89.67 2065,-89.67 2065,-85.83 2068.83,-82 2072.67,-82 2072.67,-82 2311.33,-82 2311.33,-82 2315.17,-82 2319,-85.83 2319,-89.67 2319,-89.67 2319,-97.33 2319,-97.33 2319,-101.17 2315.17,-105 2311.33,-105"/>
<text text-anchor="middle" x="2192" y="-89.8" font-family="Arial" font-size="14.00" fill="#c6c5fe">infrastructure/services/http&#45;service.tsx</text>
</g>
<!-- infrastructure/services/http&#45;service.tsx&#45;&gt;config/env.config.tsx -->
<g id="edge48" class="edge">
<title>infrastructure/services/http&#45;service.tsx&#45;&gt;config/env.config.tsx</title>
<path fill="none" stroke="#757575" d="M2222.3,-81.94C2259.03,-67.9 2324.22,-44.49 2382,-31.5 2406.69,-25.95 2433.91,-21.82 2458.75,-18.8"/>
<polygon fill="#757575" stroke="#757575" points="2459.34,-22.26 2468.86,-17.61 2458.52,-15.3 2459.34,-22.26"/>
</g>
<!-- infrastructure/services/interceptor&#45;service.tsx -->
<g id="node52" class="node">
<title>infrastructure/services/interceptor&#45;service.tsx</title>
<path fill="none" stroke="#c6c5fe" d="M291.33,-1094C291.33,-1094 7.67,-1094 7.67,-1094 3.83,-1094 0,-1090.17 0,-1086.33 0,-1086.33 0,-1078.67 0,-1078.67 0,-1074.83 3.83,-1071 7.67,-1071 7.67,-1071 291.33,-1071 291.33,-1071 295.17,-1071 299,-1074.83 299,-1078.67 299,-1078.67 299,-1086.33 299,-1086.33 299,-1090.17 295.17,-1094 291.33,-1094"/>
<text text-anchor="middle" x="149.5" y="-1078.8" font-family="Arial" font-size="14.00" fill="#c6c5fe">infrastructure/services/interceptor&#45;service.tsx</text>
</g>
<!-- infrastructure/services/interceptor&#45;service.tsx&#45;&gt;infrastructure/services/cookies&#45;service.tsx -->
<g id="edge49" class="edge">
<title>infrastructure/services/interceptor&#45;service.tsx&#45;&gt;infrastructure/services/cookies&#45;service.tsx</title>
<path fill="none" stroke="#757575" d="M299.22,-1082.5C307.62,-1082.5 316.07,-1082.5 324.47,-1082.5"/>
<polygon fill="#757575" stroke="#757575" points="324.69,-1086 334.69,-1082.5 324.69,-1079 324.69,-1086"/>
</g>
<!-- infrastructure/services/storage&#45;service.tsx -->
<g id="node53" class="node">
<title>infrastructure/services/storage&#45;service.tsx</title>
<path fill="none" stroke="#cfffac" d="M281.33,-1135C281.33,-1135 17.67,-1135 17.67,-1135 13.83,-1135 10,-1131.17 10,-1127.33 10,-1127.33 10,-1119.67 10,-1119.67 10,-1115.83 13.83,-1112 17.67,-1112 17.67,-1112 281.33,-1112 281.33,-1112 285.17,-1112 289,-1115.83 289,-1119.67 289,-1119.67 289,-1127.33 289,-1127.33 289,-1131.17 285.17,-1135 281.33,-1135"/>
<text text-anchor="middle" x="149.5" y="-1119.8" font-family="Arial" font-size="14.00" fill="#cfffac">infrastructure/services/storage&#45;service.tsx</text>
</g>
<!-- modules/Home/Home.scss -->
<g id="node56" class="node">
<title>modules/Home/Home.scss</title>
<path fill="none" stroke="#cfffac" d="M2278.83,-463C2278.83,-463 2105.17,-463 2105.17,-463 2101.33,-463 2097.5,-459.17 2097.5,-455.33 2097.5,-455.33 2097.5,-447.67 2097.5,-447.67 2097.5,-443.83 2101.33,-440 2105.17,-440 2105.17,-440 2278.83,-440 2278.83,-440 2282.67,-440 2286.5,-443.83 2286.5,-447.67 2286.5,-447.67 2286.5,-455.33 2286.5,-455.33 2286.5,-459.17 2282.67,-463 2278.83,-463"/>
<text text-anchor="middle" x="2192" y="-447.8" font-family="Arial" font-size="14.00" fill="#cfffac">modules/Home/Home.scss</text>
</g>
<!-- modules/Home/HomeController.tsx -->
<g id="node57" class="node">
<title>modules/Home/HomeController.tsx</title>
<path fill="none" stroke="#c6c5fe" d="M1613.83,-312C1613.83,-312 1390.17,-312 1390.17,-312 1386.33,-312 1382.5,-308.17 1382.5,-304.33 1382.5,-304.33 1382.5,-296.67 1382.5,-296.67 1382.5,-292.83 1386.33,-289 1390.17,-289 1390.17,-289 1613.83,-289 1613.83,-289 1617.67,-289 1621.5,-292.83 1621.5,-296.67 1621.5,-296.67 1621.5,-304.33 1621.5,-304.33 1621.5,-308.17 1617.67,-312 1613.83,-312"/>
<text text-anchor="middle" x="1502" y="-296.8" font-family="Arial" font-size="14.00" fill="#c6c5fe">modules/Home/HomeController.tsx</text>
</g>
<!-- modules/Home/HomeController.tsx&#45;&gt;redux/store.tsx -->
<g id="edge56" class="edge">
<title>modules/Home/HomeController.tsx&#45;&gt;redux/store.tsx</title>
<path fill="none" stroke="#757575" d="M1610.55,-288.98C1629.44,-286.31 1648.85,-283.16 1667,-279.5 1683.28,-276.21 1686.72,-272.78 1703,-269.5 1834.32,-243.06 1870.91,-259.06 2002,-231.5 2053.03,-220.77 2110.28,-202.97 2148.26,-190.32"/>
<polygon fill="#757575" stroke="#757575" points="2149.59,-193.57 2157.96,-187.06 2147.37,-186.93 2149.59,-193.57"/>
</g>
<!-- modules/Home/HomeView.tsx -->
<g id="node58" class="node">
<title>modules/Home/HomeView.tsx</title>
<path fill="none" stroke="#c6c5fe" d="M1948.83,-565C1948.83,-565 1756.17,-565 1756.17,-565 1752.33,-565 1748.5,-561.17 1748.5,-557.33 1748.5,-557.33 1748.5,-549.67 1748.5,-549.67 1748.5,-545.83 1752.33,-542 1756.17,-542 1756.17,-542 1948.83,-542 1948.83,-542 1952.67,-542 1956.5,-545.83 1956.5,-549.67 1956.5,-549.67 1956.5,-557.33 1956.5,-557.33 1956.5,-561.17 1952.67,-565 1948.83,-565"/>
<text text-anchor="middle" x="1852.5" y="-549.8" font-family="Arial" font-size="14.00" fill="#c6c5fe">modules/Home/HomeView.tsx</text>
</g>
<!-- modules/Home/HomeController.tsx&#45;&gt;modules/Home/HomeView.tsx -->
<g id="edge53" class="edge">
<title>modules/Home/HomeController.tsx&#45;&gt;modules/Home/HomeView.tsx</title>
<path fill="none" stroke="#757575" d="M1615.83,-312.12C1634.46,-318.1 1652.42,-326.83 1667,-339.5 1700.14,-368.31 1677.2,-395.97 1703,-431.5 1736.06,-477.03 1790.01,-515.52 1822.98,-536.48"/>
<polygon fill="#757575" stroke="#757575" points="1821.35,-539.59 1831.68,-541.92 1825.06,-533.66 1821.35,-539.59"/>
</g>
<!-- modules/Home/homeService.tsx -->
<g id="node59" class="node">
<title>modules/Home/homeService.tsx</title>
<path fill="none" stroke="#c6c5fe" d="M1956.33,-146C1956.33,-146 1748.67,-146 1748.67,-146 1744.83,-146 1741,-142.17 1741,-138.33 1741,-138.33 1741,-130.67 1741,-130.67 1741,-126.83 1744.83,-123 1748.67,-123 1748.67,-123 1956.33,-123 1956.33,-123 1960.17,-123 1964,-126.83 1964,-130.67 1964,-130.67 1964,-138.33 1964,-138.33 1964,-142.17 1960.17,-146 1956.33,-146"/>
<text text-anchor="middle" x="1852.5" y="-130.8" font-family="Arial" font-size="14.00" fill="#c6c5fe">modules/Home/homeService.tsx</text>
</g>
<!-- modules/Home/HomeController.tsx&#45;&gt;modules/Home/homeService.tsx -->
<g id="edge54" class="edge">
<title>modules/Home/HomeController.tsx&#45;&gt;modules/Home/homeService.tsx</title>
<path fill="none" stroke="#757575" d="M1621.93,-296C1637.68,-292.37 1653.15,-287.08 1667,-279.5 1688.87,-267.54 1684.56,-253.27 1703,-236.5 1740.91,-202.03 1791.12,-169.91 1822.36,-151.24"/>
<polygon fill="#757575" stroke="#757575" points="1824.19,-154.22 1831.02,-146.12 1820.63,-148.19 1824.19,-154.22"/>
</g>
<!-- redux/hooks.ts -->
<g id="node60" class="node">
<title>redux/hooks.ts</title>
<path fill="none" stroke="#c6c5fe" d="M1899.33,-302C1899.33,-302 1805.67,-302 1805.67,-302 1801.83,-302 1798,-298.17 1798,-294.33 1798,-294.33 1798,-286.67 1798,-286.67 1798,-282.83 1801.83,-279 1805.67,-279 1805.67,-279 1899.33,-279 1899.33,-279 1903.17,-279 1907,-282.83 1907,-286.67 1907,-286.67 1907,-294.33 1907,-294.33 1907,-298.17 1903.17,-302 1899.33,-302"/>
<text text-anchor="middle" x="1852.5" y="-286.8" font-family="Arial" font-size="14.00" fill="#c6c5fe">redux/hooks.ts</text>
</g>
<!-- modules/Home/HomeController.tsx&#45;&gt;redux/hooks.ts -->
<g id="edge55" class="edge">
<title>modules/Home/HomeController.tsx&#45;&gt;redux/hooks.ts</title>
<path fill="none" stroke="#757575" d="M1621.96,-297.09C1677.5,-295.49 1741.41,-293.66 1787.67,-292.33"/>
<polygon fill="#757575" stroke="#757575" points="1787.95,-295.82 1797.85,-292.04 1787.75,-288.83 1787.95,-295.82"/>
</g>
<!-- modules/Home/HomeView.tsx&#45;&gt;lang/local.tsx -->
<g id="edge61" class="edge">
<title>modules/Home/HomeView.tsx&#45;&gt;lang/local.tsx</title>
<path fill="none" stroke="#757575" d="M1899.9,-565.06C1937.06,-574.02 1990.64,-586.26 2038,-594.5 2105.97,-606.33 2290.73,-592.21 2346,-633.5 2377.89,-657.32 2356.14,-685.24 2382,-715.5 2415.69,-754.93 2468.43,-784.57 2503.83,-801.46"/>
<polygon fill="#757575" stroke="#757575" points="2502.78,-804.84 2513.32,-805.89 2505.73,-798.49 2502.78,-804.84"/>
</g>
<!-- modules/Home/HomeView.tsx&#45;&gt;assets/icons/DashIcon.tsx -->
<g id="edge57" class="edge">
<title>modules/Home/HomeView.tsx&#45;&gt;assets/icons/DashIcon.tsx</title>
<path fill="none" stroke="#757575" d="M1956.59,-559.91C1999.22,-562.57 2048.46,-565.63 2090.78,-568.26"/>
<polygon fill="#757575" stroke="#757575" points="2090.62,-571.76 2100.82,-568.89 2091.05,-564.77 2090.62,-571.76"/>
</g>
<!-- modules/Home/HomeView.tsx&#45;&gt;assets/icons/HomeBanner.tsx -->
<g id="edge58" class="edge">
<title>modules/Home/HomeView.tsx&#45;&gt;assets/icons/HomeBanner.tsx</title>
<path fill="none" stroke="#757575" d="M1956.59,-547.39C1995.38,-545.09 2039.65,-542.47 2079.19,-540.13"/>
<polygon fill="#757575" stroke="#757575" points="2079.63,-543.61 2089.41,-539.52 2079.22,-536.62 2079.63,-543.61"/>
</g>
<!-- modules/Home/HomeView.tsx&#45;&gt;assets/images/home/h1.png -->
<g id="edge59" class="edge">
<title>modules/Home/HomeView.tsx&#45;&gt;assets/images/home/h1.png</title>
<path fill="none" stroke="#757575" d="M1899.91,-541.99C1937.08,-533.06 1990.66,-520.84 2038,-512.5 2052.72,-509.91 2068.28,-507.5 2083.63,-505.31"/>
<polygon fill="#757575" stroke="#757575" points="2084.26,-508.76 2093.68,-503.9 2083.29,-501.82 2084.26,-508.76"/>
</g>
<!-- modules/Home/HomeView.tsx&#45;&gt;components/CustomButton/CustomButton.tsx -->
<g id="edge60" class="edge">
<title>modules/Home/HomeView.tsx&#45;&gt;components/CustomButton/CustomButton.tsx</title>
<path fill="none" stroke="#757575" d="M1866.68,-565.22C1895.45,-590.06 1966.98,-647.89 2038,-674.5 2044.98,-677.12 2052.25,-679.41 2059.67,-681.42"/>
<polygon fill="#757575" stroke="#757575" points="2058.93,-684.85 2069.49,-683.91 2060.65,-678.06 2058.93,-684.85"/>
</g>
<!-- modules/Home/HomeView.tsx&#45;&gt;styles/generalStyle.tsx -->
<g id="edge63" class="edge">
<title>modules/Home/HomeView.tsx&#45;&gt;styles/generalStyle.tsx</title>
<path fill="none" stroke="#757575" d="M1869.39,-565.06C1897.37,-585.72 1956.74,-630.88 2002,-674.5 2019.46,-691.33 2016.64,-704.02 2038,-715.5 2057.66,-726.07 2080.71,-731.99 2102.87,-735.16"/>
<polygon fill="#757575" stroke="#757575" points="2102.62,-738.65 2112.98,-736.43 2103.49,-731.71 2102.62,-738.65"/>
</g>
<!-- modules/Home/HomeView.tsx&#45;&gt;modules/Home/Home.scss -->
<g id="edge62" class="edge">
<title>modules/Home/HomeView.tsx&#45;&gt;modules/Home/Home.scss</title>
<path fill="none" stroke="#757575" d="M1874.07,-541.98C1907.39,-523.87 1975.74,-489.01 2038,-471.5 2053.7,-467.09 2070.58,-463.64 2087.19,-460.95"/>
<polygon fill="#757575" stroke="#757575" points="2088.14,-464.35 2097.49,-459.37 2087.08,-457.43 2088.14,-464.35"/>
</g>
<!-- modules/Home/homeService.tsx&#45;&gt;redux/store.tsx -->
<g id="edge66" class="edge">
<title>modules/Home/homeService.tsx&#45;&gt;redux/store.tsx</title>
<path fill="none" stroke="#757575" d="M1948.41,-146.03C2005.32,-152.94 2076.19,-161.55 2126.6,-167.68"/>
<polygon fill="#757575" stroke="#757575" points="2126.37,-171.17 2136.72,-168.91 2127.21,-164.23 2126.37,-171.17"/>
</g>
<!-- modules/Home/homeService.tsx&#45;&gt;data/banner.json -->
<g id="edge64" class="edge">
<title>modules/Home/homeService.tsx&#45;&gt;data/banner.json</title>
<path fill="none" stroke="#757575" d="M1964.01,-134.5C2015.84,-134.5 2076.03,-134.5 2121.4,-134.5"/>
<polygon fill="#757575" stroke="#757575" points="2121.43,-138 2131.43,-134.5 2121.43,-131 2121.43,-138"/>
</g>
<!-- modules/Home/homeService.tsx&#45;&gt;infrastructure/services/http&#45;service.tsx -->
<g id="edge65" class="edge">
<title>modules/Home/homeService.tsx&#45;&gt;infrastructure/services/http&#45;service.tsx</title>
<path fill="none" stroke="#757575" d="M1948.41,-122.97C1991.28,-117.76 2042.07,-111.59 2086.07,-106.25"/>
<polygon fill="#757575" stroke="#757575" points="2086.71,-109.69 2096.22,-105.01 2085.87,-102.75 2086.71,-109.69"/>
</g>
<!-- redux/hooks.ts&#45;&gt;redux/store.tsx -->
<g id="edge96" class="edge">
<title>redux/hooks.ts&#45;&gt;redux/store.tsx</title>
<path fill="none" stroke="#757575" d="M1907.29,-289.09C1936.7,-286.4 1972.96,-279.85 2002,-264.5 2022.28,-253.78 2018.6,-239.75 2038,-227.5 2065.26,-210.28 2098.89,-198.04 2127.67,-189.78"/>
<polygon fill="#757575" stroke="#757575" points="2128.93,-193.06 2137.63,-187.02 2127.06,-186.32 2128.93,-193.06"/>
</g>
<!-- modules/Home/homeActions.tsx -->
<g id="node61" class="node">
<title>modules/Home/homeActions.tsx</title>
<path fill="none" stroke="#cfffac" d="M2975.83,-187C2975.83,-187 2769.17,-187 2769.17,-187 2765.33,-187 2761.5,-183.17 2761.5,-179.33 2761.5,-179.33 2761.5,-171.67 2761.5,-171.67 2761.5,-167.83 2765.33,-164 2769.17,-164 2769.17,-164 2975.83,-164 2975.83,-164 2979.67,-164 2983.5,-167.83 2983.5,-171.67 2983.5,-171.67 2983.5,-179.33 2983.5,-179.33 2983.5,-183.17 2979.67,-187 2975.83,-187"/>
<text text-anchor="middle" x="2872.5" y="-171.8" font-family="Arial" font-size="14.00" fill="#cfffac">modules/Home/homeActions.tsx</text>
</g>
<!-- modules/Home/homeSlice.tsx&#45;&gt;modules/Home/homeActions.tsx -->
<g id="edge67" class="edge">
<title>modules/Home/homeSlice.tsx&#45;&gt;modules/Home/homeActions.tsx</title>
<path fill="none" stroke="#757575" d="M2645.14,-175.5C2678.74,-175.5 2716.4,-175.5 2751.22,-175.5"/>
<polygon fill="#757575" stroke="#757575" points="2751.44,-179 2761.44,-175.5 2751.44,-172 2751.44,-179"/>
</g>
<!-- modules/Index.tsx -->
<g id="node63" class="node">
<title>modules/Index.tsx</title>
<path fill="none" stroke="#c6c5fe" d="M1270.33,-372C1270.33,-372 1153.67,-372 1153.67,-372 1149.83,-372 1146,-368.17 1146,-364.33 1146,-364.33 1146,-356.67 1146,-356.67 1146,-352.83 1149.83,-349 1153.67,-349 1153.67,-349 1270.33,-349 1270.33,-349 1274.17,-349 1278,-352.83 1278,-356.67 1278,-356.67 1278,-364.33 1278,-364.33 1278,-368.17 1274.17,-372 1270.33,-372"/>
<text text-anchor="middle" x="1212" y="-356.8" font-family="Arial" font-size="14.00" fill="#c6c5fe">modules/Index.tsx</text>
</g>
<!-- modules/Index.tsx&#45;&gt;components/Footer/Footer.tsx -->
<g id="edge68" class="edge">
<title>modules/Index.tsx&#45;&gt;components/Footer/Footer.tsx</title>
<path fill="none" stroke="#757575" d="M1227.84,-372.05C1311.63,-437.27 1725.3,-759.27 1828.26,-839.41"/>
<polygon fill="#757575" stroke="#757575" points="1826.42,-842.41 1836.46,-845.79 1830.72,-836.89 1826.42,-842.41"/>
</g>
<!-- modules/Index.tsx&#45;&gt;modules/Home/HomeController.tsx -->
<g id="edge69" class="edge">
<title>modules/Index.tsx&#45;&gt;modules/Home/HomeController.tsx</title>
<path fill="none" stroke="#757575" d="M1268.53,-348.93C1316.34,-338.97 1385.4,-324.58 1435.82,-314.08"/>
<polygon fill="#757575" stroke="#757575" points="1436.57,-317.5 1445.64,-312.03 1435.14,-310.65 1436.57,-317.5"/>
</g>
<!-- modules/News/NewsController.tsx -->
<g id="node64" class="node">
<title>modules/News/NewsController.tsx</title>
<path fill="none" stroke="#c6c5fe" d="M1610.83,-271C1610.83,-271 1393.17,-271 1393.17,-271 1389.33,-271 1385.5,-267.17 1385.5,-263.33 1385.5,-263.33 1385.5,-255.67 1385.5,-255.67 1385.5,-251.83 1389.33,-248 1393.17,-248 1393.17,-248 1610.83,-248 1610.83,-248 1614.67,-248 1618.5,-251.83 1618.5,-255.67 1618.5,-255.67 1618.5,-263.33 1618.5,-263.33 1618.5,-267.17 1614.67,-271 1610.83,-271"/>
<text text-anchor="middle" x="1502" y="-255.8" font-family="Arial" font-size="14.00" fill="#c6c5fe">modules/News/NewsController.tsx</text>
</g>
<!-- modules/Index.tsx&#45;&gt;modules/News/NewsController.tsx -->
<g id="edge70" class="edge">
<title>modules/Index.tsx&#45;&gt;modules/News/NewsController.tsx</title>
<path fill="none" stroke="#757575" d="M1226.36,-348.73C1247.94,-330.47 1292.56,-295.72 1337,-279.5 1349.13,-275.07 1362.07,-271.58 1375.15,-268.84"/>
<polygon fill="#757575" stroke="#757575" points="1376.03,-272.23 1385.17,-266.88 1374.69,-265.36 1376.03,-272.23"/>
</g>
<!-- modules/ThingsWeDo/ThingsWeDoController.tsx -->
<g id="node65" class="node">
<title>modules/ThingsWeDo/ThingsWeDoController.tsx</title>
<path fill="none" stroke="#c6c5fe" d="M1659.33,-372C1659.33,-372 1344.67,-372 1344.67,-372 1340.83,-372 1337,-368.17 1337,-364.33 1337,-364.33 1337,-356.67 1337,-356.67 1337,-352.83 1340.83,-349 1344.67,-349 1344.67,-349 1659.33,-349 1659.33,-349 1663.17,-349 1667,-352.83 1667,-356.67 1667,-356.67 1667,-364.33 1667,-364.33 1667,-368.17 1663.17,-372 1659.33,-372"/>
<text text-anchor="middle" x="1502" y="-356.8" font-family="Arial" font-size="14.00" fill="#c6c5fe">modules/ThingsWeDo/ThingsWeDoController.tsx</text>
</g>
<!-- modules/Index.tsx&#45;&gt;modules/ThingsWeDo/ThingsWeDoController.tsx -->
<g id="edge71" class="edge">
<title>modules/Index.tsx&#45;&gt;modules/ThingsWeDo/ThingsWeDoController.tsx</title>
<path fill="none" stroke="#757575" d="M1278.35,-360.5C1293.2,-360.5 1309.65,-360.5 1326.7,-360.5"/>
<polygon fill="#757575" stroke="#757575" points="1326.79,-364 1336.79,-360.5 1326.79,-357 1326.79,-364"/>
</g>
<!-- modules/News/NewsController.tsx&#45;&gt;redux/store.tsx -->
<g id="edge75" class="edge">
<title>modules/News/NewsController.tsx&#45;&gt;redux/store.tsx</title>
<path fill="none" stroke="#757575" d="M1597.22,-248C1739.33,-230.65 2004.83,-198.23 2126.76,-183.34"/>
<polygon fill="#757575" stroke="#757575" points="2127.2,-186.82 2136.7,-182.13 2126.35,-179.87 2127.2,-186.82"/>
</g>
<!-- modules/News/NewsController.tsx&#45;&gt;redux/hooks.ts -->
<g id="edge74" class="edge">
<title>modules/News/NewsController.tsx&#45;&gt;redux/hooks.ts</title>
<path fill="none" stroke="#757575" d="M1618.56,-269.78C1674.86,-274.79 1740.42,-280.62 1787.61,-284.82"/>
<polygon fill="#757575" stroke="#757575" points="1787.42,-288.31 1797.7,-285.71 1788.04,-281.34 1787.42,-288.31"/>
</g>
<!-- modules/News/NewsView.tsx -->
<g id="node67" class="node">
<title>modules/News/NewsView.tsx</title>
<path fill="none" stroke="#c6c5fe" d="M1945.83,-423C1945.83,-423 1759.17,-423 1759.17,-423 1755.33,-423 1751.5,-419.17 1751.5,-415.33 1751.5,-415.33 1751.5,-407.67 1751.5,-407.67 1751.5,-403.83 1755.33,-400 1759.17,-400 1759.17,-400 1945.83,-400 1945.83,-400 1949.67,-400 1953.5,-403.83 1953.5,-407.67 1953.5,-407.67 1953.5,-415.33 1953.5,-415.33 1953.5,-419.17 1949.67,-423 1945.83,-423"/>
<text text-anchor="middle" x="1852.5" y="-407.8" font-family="Arial" font-size="14.00" fill="#c6c5fe">modules/News/NewsView.tsx</text>
</g>
<!-- modules/News/NewsController.tsx&#45;&gt;modules/News/NewsView.tsx -->
<g id="edge72" class="edge">
<title>modules/News/NewsController.tsx&#45;&gt;modules/News/NewsView.tsx</title>
<path fill="none" stroke="#757575" d="M1618.74,-256.96C1636.31,-261.07 1653.17,-268.1 1667,-279.5 1707.02,-312.48 1663.29,-357.14 1703,-390.5 1714.09,-399.82 1727.38,-406.08 1741.39,-410.18"/>
<polygon fill="#757575" stroke="#757575" points="1740.63,-413.59 1751.18,-412.67 1742.36,-406.81 1740.63,-413.59"/>
</g>
<!-- modules/News/newsService.tsx -->
<g id="node68" class="node">
<title>modules/News/newsService.tsx</title>
<path fill="none" stroke="#c6c5fe" d="M1953.33,-105C1953.33,-105 1751.67,-105 1751.67,-105 1747.83,-105 1744,-101.17 1744,-97.33 1744,-97.33 1744,-89.67 1744,-89.67 1744,-85.83 1747.83,-82 1751.67,-82 1751.67,-82 1953.33,-82 1953.33,-82 1957.17,-82 1961,-85.83 1961,-89.67 1961,-89.67 1961,-97.33 1961,-97.33 1961,-101.17 1957.17,-105 1953.33,-105"/>
<text text-anchor="middle" x="1852.5" y="-89.8" font-family="Arial" font-size="14.00" fill="#c6c5fe">modules/News/newsService.tsx</text>
</g>
<!-- modules/News/NewsController.tsx&#45;&gt;modules/News/newsService.tsx -->
<g id="edge73" class="edge">
<title>modules/News/NewsController.tsx&#45;&gt;modules/News/newsService.tsx</title>
<path fill="none" stroke="#757575" d="M1514.33,-247.92C1542.94,-219.5 1621.63,-146.21 1703,-113.5 1712.89,-109.53 1723.41,-106.31 1734.12,-103.71"/>
<polygon fill="#757575" stroke="#757575" points="1734.99,-107.1 1743.99,-101.5 1733.46,-100.27 1734.99,-107.1"/>
</g>
<!-- modules/ThingsWeDo/ThingsWeDoController.tsx&#45;&gt;redux/store.tsx -->
<g id="edge89" class="edge">
<title>modules/ThingsWeDo/ThingsWeDoController.tsx&#45;&gt;redux/store.tsx</title>
<path fill="none" stroke="#757575" d="M1655.29,-348.99C1796.83,-337.71 1987.95,-320.76 2002,-310.5 2034.47,-286.79 2008.43,-254.75 2038,-227.5 2062.37,-205.04 2096.84,-192.23 2126.89,-184.96"/>
<polygon fill="#757575" stroke="#757575" points="2127.9,-188.31 2136.89,-182.69 2126.36,-181.49 2127.9,-188.31"/>
</g>
<!-- modules/ThingsWeDo/ThingsWeDoController.tsx&#45;&gt;redux/hooks.ts -->
<g id="edge88" class="edge">
<title>modules/ThingsWeDo/ThingsWeDoController.tsx&#45;&gt;redux/hooks.ts</title>
<path fill="none" stroke="#757575" d="M1552.6,-348.96C1593,-339.72 1651.55,-326.66 1703,-316.5 1730.66,-311.04 1761.33,-305.57 1787.58,-301.07"/>
<polygon fill="#757575" stroke="#757575" points="1788.51,-304.46 1797.78,-299.33 1787.34,-297.56 1788.51,-304.46"/>
</g>
<!-- modules/ThingsWeDo/ThingsWeDoView.tsx -->
<g id="node73" class="node">
<title>modules/ThingsWeDo/ThingsWeDoView.tsx</title>
<path fill="none" stroke="#c6c5fe" d="M1994.33,-707C1994.33,-707 1710.67,-707 1710.67,-707 1706.83,-707 1703,-703.17 1703,-699.33 1703,-699.33 1703,-691.67 1703,-691.67 1703,-687.83 1706.83,-684 1710.67,-684 1710.67,-684 1994.33,-684 1994.33,-684 1998.17,-684 2002,-687.83 2002,-691.67 2002,-691.67 2002,-699.33 2002,-699.33 2002,-703.17 1998.17,-707 1994.33,-707"/>
<text text-anchor="middle" x="1852.5" y="-691.8" font-family="Arial" font-size="14.00" fill="#c6c5fe">modules/ThingsWeDo/ThingsWeDoView.tsx</text>
</g>
<!-- modules/ThingsWeDo/ThingsWeDoController.tsx&#45;&gt;modules/ThingsWeDo/ThingsWeDoView.tsx -->
<g id="edge86" class="edge">
<title>modules/ThingsWeDo/ThingsWeDoController.tsx&#45;&gt;modules/ThingsWeDo/ThingsWeDoView.tsx</title>
<path fill="none" stroke="#757575" d="M1512.92,-372.08C1541.27,-404.93 1625.6,-501.06 1703,-573.5 1745.13,-612.93 1798.1,-654.76 1828.05,-677.75"/>
<polygon fill="#757575" stroke="#757575" points="1826.14,-680.7 1836.21,-683.99 1830.39,-675.14 1826.14,-680.7"/>
</g>
<!-- modules/ThingsWeDo/thingsService.tsx -->
<g id="node74" class="node">
<title>modules/ThingsWeDo/thingsService.tsx</title>
<path fill="none" stroke="#c6c5fe" d="M1979.83,-382C1979.83,-382 1725.17,-382 1725.17,-382 1721.33,-382 1717.5,-378.17 1717.5,-374.33 1717.5,-374.33 1717.5,-366.67 1717.5,-366.67 1717.5,-362.83 1721.33,-359 1725.17,-359 1725.17,-359 1979.83,-359 1979.83,-359 1983.67,-359 1987.5,-362.83 1987.5,-366.67 1987.5,-366.67 1987.5,-374.33 1987.5,-374.33 1987.5,-378.17 1983.67,-382 1979.83,-382"/>
<text text-anchor="middle" x="1852.5" y="-366.8" font-family="Arial" font-size="14.00" fill="#c6c5fe">modules/ThingsWeDo/thingsService.tsx</text>
</g>
<!-- modules/ThingsWeDo/ThingsWeDoController.tsx&#45;&gt;modules/ThingsWeDo/thingsService.tsx -->
<g id="edge87" class="edge">
<title>modules/ThingsWeDo/ThingsWeDoController.tsx&#45;&gt;modules/ThingsWeDo/thingsService.tsx</title>
<path fill="none" stroke="#757575" d="M1667.05,-365.21C1680.48,-365.59 1694,-365.98 1707.27,-366.36"/>
<polygon fill="#757575" stroke="#757575" points="1707.28,-369.86 1717.37,-366.65 1707.48,-362.87 1707.28,-369.86"/>
</g>
<!-- modules/News/News.scss -->
<g id="node66" class="node">
<title>modules/News/News.scss</title>
<path fill="none" stroke="#cfffac" d="M2275.83,-342C2275.83,-342 2108.17,-342 2108.17,-342 2104.33,-342 2100.5,-338.17 2100.5,-334.33 2100.5,-334.33 2100.5,-326.67 2100.5,-326.67 2100.5,-322.83 2104.33,-319 2108.17,-319 2108.17,-319 2275.83,-319 2275.83,-319 2279.67,-319 2283.5,-322.83 2283.5,-326.67 2283.5,-326.67 2283.5,-334.33 2283.5,-334.33 2283.5,-338.17 2279.67,-342 2275.83,-342"/>
<text text-anchor="middle" x="2192" y="-326.8" font-family="Arial" font-size="14.00" fill="#cfffac">modules/News/News.scss</text>
</g>
<!-- modules/News/NewsView.tsx&#45;&gt;lang/local.tsx -->
<g id="edge79" class="edge">
<title>modules/News/NewsView.tsx&#45;&gt;lang/local.tsx</title>
<path fill="none" stroke="#757575" d="M1953.64,-400.81C2080.93,-389.61 2290.8,-379.91 2346,-430.5 2393.06,-473.63 2347.93,-661.52 2382,-715.5 2408.84,-758.02 2460.55,-786.19 2497.72,-801.95"/>
<polygon fill="#757575" stroke="#757575" points="2496.73,-805.33 2507.31,-805.88 2499.38,-798.85 2496.73,-805.33"/>
</g>
<!-- modules/News/NewsView.tsx&#45;&gt;assets/images/news/logo.png -->
<g id="edge76" class="edge">
<title>modules/News/NewsView.tsx&#45;&gt;assets/images/news/logo.png</title>
<path fill="none" stroke="#757575" d="M1950.67,-399.98C1992.31,-395.05 2041.1,-389.27 2083.79,-384.21"/>
<polygon fill="#757575" stroke="#757575" points="2084.42,-387.66 2093.94,-383 2083.59,-380.71 2084.42,-387.66"/>
</g>
<!-- modules/News/NewsView.tsx&#45;&gt;components/CustomBadge/CustomBadge.tsx -->
<g id="edge77" class="edge">
<title>modules/News/NewsView.tsx&#45;&gt;components/CustomBadge/CustomBadge.tsx</title>
<path fill="none" stroke="#757575" d="M1953.65,-411.33C1971.02,-407.55 1987.97,-401.09 2002,-390.5 2033.44,-366.77 2006.43,-333.07 2038,-309.5 2039.44,-308.43 2040.91,-307.39 2042.4,-306.4"/>
<polygon fill="#757575" stroke="#757575" points="2044.42,-309.27 2051.25,-301.17 2040.86,-303.25 2044.42,-309.27"/>
</g>
<!-- modules/News/NewsView.tsx&#45;&gt;components/CustomButton/CustomButton.tsx -->
<g id="edge78" class="edge">
<title>modules/News/NewsView.tsx&#45;&gt;components/CustomButton/CustomButton.tsx</title>
<path fill="none" stroke="#757575" d="M1875.12,-423.04C1907.79,-441.62 1969.37,-481.33 2002,-532.5 2037.01,-587.4 1989.46,-631.11 2038,-674.5 2039.37,-675.73 2040.79,-676.91 2042.23,-678.03"/>
<polygon fill="#757575" stroke="#757575" points="2040.63,-681.18 2050.85,-683.98 2044.6,-675.42 2040.63,-681.18"/>
</g>
<!-- modules/News/NewsView.tsx&#45;&gt;styles/generalStyle.tsx -->
<g id="edge81" class="edge">
<title>modules/News/NewsView.tsx&#45;&gt;styles/generalStyle.tsx</title>
<path fill="none" stroke="#757575" d="M1876.02,-423.13C1909.27,-441.56 1970.93,-480.75 2002,-532.5 2044.67,-603.57 1977.72,-658.61 2038,-715.5 2055.32,-731.84 2079.03,-739.37 2102.62,-742.24"/>
<polygon fill="#757575" stroke="#757575" points="2102.42,-745.74 2112.71,-743.2 2103.08,-738.77 2102.42,-745.74"/>
</g>
<!-- modules/News/NewsView.tsx&#45;&gt;modules/News/News.scss -->
<g id="edge80" class="edge">
<title>modules/News/NewsView.tsx&#45;&gt;modules/News/News.scss</title>
<path fill="none" stroke="#757575" d="M1953.58,-407.08C1970.39,-403.64 1987.18,-398.39 2002,-390.5 2023.11,-379.26 2016.83,-361.63 2038,-350.5 2054.01,-342.09 2072.21,-336.72 2090.34,-333.38"/>
<polygon fill="#757575" stroke="#757575" points="2091.09,-336.8 2100.38,-331.72 2089.95,-329.89 2091.09,-336.8"/>
</g>
<!-- modules/News/newsService.tsx&#45;&gt;redux/store.tsx -->
<g id="edge83" class="edge">
<title>modules/News/newsService.tsx&#45;&gt;redux/store.tsx</title>
<path fill="none" stroke="#757575" d="M1961.06,-98.63C1975.34,-101.96 1989.39,-106.74 2002,-113.5 2023.37,-124.96 2016.64,-143.02 2038,-154.5 2064.82,-168.92 2097.95,-174.68 2126.51,-176.62"/>
<polygon fill="#757575" stroke="#757575" points="2126.64,-180.13 2136.81,-177.17 2127.01,-173.14 2126.64,-180.13"/>
</g>
<!-- modules/News/newsService.tsx&#45;&gt;infrastructure/services/http&#45;service.tsx -->
<g id="edge82" class="edge">
<title>modules/News/newsService.tsx&#45;&gt;infrastructure/services/http&#45;service.tsx</title>
<path fill="none" stroke="#757575" d="M1961.22,-93.5C1990.98,-93.5 2023.68,-93.5 2054.83,-93.5"/>
<polygon fill="#757575" stroke="#757575" points="2054.89,-97 2064.89,-93.5 2054.89,-90 2054.89,-97"/>
</g>
<!-- modules/News/newsActions.tsx -->
<g id="node69" class="node">
<title>modules/News/newsActions.tsx</title>
<path fill="none" stroke="#cfffac" d="M2972.83,-146C2972.83,-146 2772.17,-146 2772.17,-146 2768.33,-146 2764.5,-142.17 2764.5,-138.33 2764.5,-138.33 2764.5,-130.67 2764.5,-130.67 2764.5,-126.83 2768.33,-123 2772.17,-123 2772.17,-123 2972.83,-123 2972.83,-123 2976.67,-123 2980.5,-126.83 2980.5,-130.67 2980.5,-130.67 2980.5,-138.33 2980.5,-138.33 2980.5,-142.17 2976.67,-146 2972.83,-146"/>
<text text-anchor="middle" x="2872.5" y="-130.8" font-family="Arial" font-size="14.00" fill="#cfffac">modules/News/newsActions.tsx</text>
</g>
<!-- modules/News/newsSlice.tsx&#45;&gt;modules/News/newsActions.tsx -->
<g id="edge84" class="edge">
<title>modules/News/newsSlice.tsx&#45;&gt;modules/News/newsActions.tsx</title>
<path fill="none" stroke="#757575" d="M2642.01,-134.5C2677.32,-134.5 2717.44,-134.5 2754.14,-134.5"/>
<polygon fill="#757575" stroke="#757575" points="2754.4,-138 2764.4,-134.5 2754.4,-131 2754.4,-138"/>
</g>
<!-- modules/PageNotFound.tsx -->
<g id="node71" class="node">
<title>modules/PageNotFound.tsx</title>
<path fill="none" stroke="#c6c5fe" d="M2280.83,-1113C2280.83,-1113 2103.17,-1113 2103.17,-1113 2099.33,-1113 2095.5,-1109.17 2095.5,-1105.33 2095.5,-1105.33 2095.5,-1097.67 2095.5,-1097.67 2095.5,-1093.83 2099.33,-1090 2103.17,-1090 2103.17,-1090 2280.83,-1090 2280.83,-1090 2284.67,-1090 2288.5,-1093.83 2288.5,-1097.67 2288.5,-1097.67 2288.5,-1105.33 2288.5,-1105.33 2288.5,-1109.17 2284.67,-1113 2280.83,-1113"/>
<text text-anchor="middle" x="2192" y="-1097.8" font-family="Arial" font-size="14.00" fill="#c6c5fe">modules/PageNotFound.tsx</text>
</g>
<!-- modules/PageNotFound.tsx&#45;&gt;lang/local.tsx -->
<g id="edge85" class="edge">
<title>modules/PageNotFound.tsx&#45;&gt;lang/local.tsx</title>
<path fill="none" stroke="#757575" d="M2288.74,-1100.87C2308.66,-1097.56 2328.8,-1091.63 2346,-1081.5 2446.13,-1022.52 2510.48,-889.96 2532.51,-838.49"/>
<polygon fill="#757575" stroke="#757575" points="2535.83,-839.63 2536.46,-829.06 2529.37,-836.93 2535.83,-839.63"/>
</g>
<!-- modules/ThingsWeDo/ThingsWeDo.scss -->
<g id="node72" class="node">
<title>modules/ThingsWeDo/ThingsWeDo.scss</title>
<path fill="none" stroke="#cfffac" d="M2324.83,-789C2324.83,-789 2059.17,-789 2059.17,-789 2055.33,-789 2051.5,-785.17 2051.5,-781.33 2051.5,-781.33 2051.5,-773.67 2051.5,-773.67 2051.5,-769.83 2055.33,-766 2059.17,-766 2059.17,-766 2324.83,-766 2324.83,-766 2328.67,-766 2332.5,-769.83 2332.5,-773.67 2332.5,-773.67 2332.5,-781.33 2332.5,-781.33 2332.5,-785.17 2328.67,-789 2324.83,-789"/>
<text text-anchor="middle" x="2192" y="-773.8" font-family="Arial" font-size="14.00" fill="#cfffac">modules/ThingsWeDo/ThingsWeDo.scss</text>
</g>
<!-- modules/ThingsWeDo/ThingsWeDoView.tsx&#45;&gt;assets/images/things/logo.png -->
<g id="edge90" class="edge">
<title>modules/ThingsWeDo/ThingsWeDoView.tsx&#45;&gt;assets/images/things/logo.png</title>
<path fill="none" stroke="#757575" d="M1948.41,-683.97C1991.28,-678.76 2042.07,-672.59 2086.07,-667.25"/>
<polygon fill="#757575" stroke="#757575" points="2086.71,-670.69 2096.22,-666.01 2085.87,-663.75 2086.71,-670.69"/>
</g>
<!-- modules/ThingsWeDo/ThingsWeDoView.tsx&#45;&gt;styles/generalStyle.tsx -->
<g id="edge92" class="edge">
<title>modules/ThingsWeDo/ThingsWeDoView.tsx&#45;&gt;styles/generalStyle.tsx</title>
<path fill="none" stroke="#757575" d="M1948.41,-707.03C1996.83,-712.91 2055.35,-720.02 2102.78,-725.78"/>
<polygon fill="#757575" stroke="#757575" points="2102.38,-729.26 2112.73,-726.99 2103.22,-722.31 2102.38,-729.26"/>
</g>
<!-- modules/ThingsWeDo/ThingsWeDoView.tsx&#45;&gt;modules/ThingsWeDo/ThingsWeDo.scss -->
<g id="edge91" class="edge">
<title>modules/ThingsWeDo/ThingsWeDoView.tsx&#45;&gt;modules/ThingsWeDo/ThingsWeDo.scss</title>
<path fill="none" stroke="#757575" d="M1882.74,-707.02C1918.73,-720.76 1981.97,-743.51 2038,-756.5 2050.7,-759.44 2064.09,-762.03 2077.45,-764.28"/>
<polygon fill="#757575" stroke="#757575" points="2077.22,-767.79 2087.65,-765.94 2078.35,-760.88 2077.22,-767.79"/>
</g>
<!-- modules/ThingsWeDo/thingsService.tsx&#45;&gt;redux/store.tsx -->
<g id="edge94" class="edge">
<title>modules/ThingsWeDo/thingsService.tsx&#45;&gt;redux/store.tsx</title>
<path fill="none" stroke="#757575" d="M1980.13,-358.86C1988.03,-355.03 1995.42,-350.3 2002,-344.5 2042.8,-308.51 2000.09,-266.53 2038,-227.5 2061.36,-203.45 2096.24,-190.53 2126.81,-183.58"/>
<polygon fill="#757575" stroke="#757575" points="2127.92,-186.92 2136.98,-181.44 2126.48,-180.07 2127.92,-186.92"/>
</g>
<!-- modules/ThingsWeDo/thingsService.tsx&#45;&gt;data/things.tsx -->
<g id="edge93" class="edge">
<title>modules/ThingsWeDo/thingsService.tsx&#45;&gt;data/things.tsx</title>
<path fill="none" stroke="#757575" d="M1976.68,-358.85C1985.72,-355.08 1994.3,-350.37 2002,-344.5 2031.73,-321.85 2007.78,-290.5 2038,-268.5 2063.57,-249.88 2098.11,-244.19 2127.89,-243.45"/>
<polygon fill="#757575" stroke="#757575" points="2128.23,-246.95 2138.21,-243.38 2128.19,-239.95 2128.23,-246.95"/>
</g>
<!-- modules/ThingsWeDo/thingsActions.tsx -->
<g id="node75" class="node">
<title>modules/ThingsWeDo/thingsActions.tsx</title>
<path fill="none" stroke="#cfffac" d="M2999.33,-105C2999.33,-105 2745.67,-105 2745.67,-105 2741.83,-105 2738,-101.17 2738,-97.33 2738,-97.33 2738,-89.67 2738,-89.67 2738,-85.83 2741.83,-82 2745.67,-82 2745.67,-82 2999.33,-82 2999.33,-82 3003.17,-82 3007,-85.83 3007,-89.67 3007,-89.67 3007,-97.33 3007,-97.33 3007,-101.17 3003.17,-105 2999.33,-105"/>
<text text-anchor="middle" x="2872.5" y="-89.8" font-family="Arial" font-size="14.00" fill="#cfffac">modules/ThingsWeDo/thingsActions.tsx</text>
</g>
<!-- modules/ThingsWeDo/thingsSlice.tsx&#45;&gt;modules/ThingsWeDo/thingsActions.tsx -->
<g id="edge95" class="edge">
<title>modules/ThingsWeDo/thingsSlice.tsx&#45;&gt;modules/ThingsWeDo/thingsActions.tsx</title>
<path fill="none" stroke="#757575" d="M2669.07,-93.5C2688.25,-93.5 2708.17,-93.5 2727.69,-93.5"/>
<polygon fill="#757575" stroke="#757575" points="2727.86,-97 2737.86,-93.5 2727.86,-90 2727.86,-97"/>
</g>
<!-- react&#45;app&#45;env.d.ts -->
<g id="node77" class="node">
<title>react&#45;app&#45;env.d.ts</title>
<path fill="none" stroke="#cfffac" d="M207.33,-1176C207.33,-1176 91.67,-1176 91.67,-1176 87.83,-1176 84,-1172.17 84,-1168.33 84,-1168.33 84,-1160.67 84,-1160.67 84,-1156.83 87.83,-1153 91.67,-1153 91.67,-1153 207.33,-1153 207.33,-1153 211.17,-1153 215,-1156.83 215,-1160.67 215,-1160.67 215,-1168.33 215,-1168.33 215,-1172.17 211.17,-1176 207.33,-1176"/>
<text text-anchor="middle" x="149.5" y="-1160.8" font-family="Arial" font-size="14.00" fill="#cfffac">react&#45;app&#45;env.d.ts</text>
</g>
<!-- redux/actions/error.action.tsx -->
<g id="node78" class="node">
<title>redux/actions/error.action.tsx</title>
<path fill="none" stroke="#cfffac" d="M2963.33,-23C2963.33,-23 2781.67,-23 2781.67,-23 2777.83,-23 2774,-19.17 2774,-15.33 2774,-15.33 2774,-7.67 2774,-7.67 2774,-3.83 2777.83,0 2781.67,0 2781.67,0 2963.33,0 2963.33,0 2967.17,0 2971,-3.83 2971,-7.67 2971,-7.67 2971,-15.33 2971,-15.33 2971,-19.17 2967.17,-23 2963.33,-23"/>
<text text-anchor="middle" x="2872.5" y="-7.8" font-family="Arial" font-size="14.00" fill="#cfffac">redux/actions/error.action.tsx</text>
</g>
<!-- redux/reducers/errorSlice.tsx&#45;&gt;core/interfaces/IError.tsx -->
<g id="edge97" class="edge">
<title>redux/reducers/errorSlice.tsx&#45;&gt;core/interfaces/IError.tsx</title>
<path fill="none" stroke="#757575" d="M2641.56,-52.5C2683.99,-52.5 2733.41,-52.5 2775.55,-52.5"/>
<polygon fill="#757575" stroke="#757575" points="2775.81,-56 2785.81,-52.5 2775.81,-49 2775.81,-56"/>
</g>
<!-- redux/reducers/errorSlice.tsx&#45;&gt;redux/actions/error.action.tsx -->
<g id="edge98" class="edge">
<title>redux/reducers/errorSlice.tsx&#45;&gt;redux/actions/error.action.tsx</title>
<path fill="none" stroke="#757575" d="M2635.38,-40.97C2677.02,-35.77 2726.33,-29.62 2769.09,-24.28"/>
<polygon fill="#757575" stroke="#757575" points="2769.76,-27.73 2779.25,-23.01 2768.89,-20.78 2769.76,-27.73"/>
</g>
<!-- routing/routes.tsx&#45;&gt;modules/Index.tsx -->
<g id="edge107" class="edge">
<title>routing/routes.tsx&#45;&gt;modules/Index.tsx</title>
<path fill="none" stroke="#757575" d="M993.18,-633.97C1027.9,-590.38 1151.45,-435.27 1195.37,-380.13"/>
<polygon fill="#757575" stroke="#757575" points="1198.21,-382.17 1201.71,-372.17 1192.74,-377.81 1198.21,-382.17"/>
</g>
<!-- setupTests.ts -->
<g id="node82" class="node">
<title>setupTests.ts</title>
<path fill="none" stroke="#cfffac" d="M193.33,-1217C193.33,-1217 105.67,-1217 105.67,-1217 101.83,-1217 98,-1213.17 98,-1209.33 98,-1209.33 98,-1201.67 98,-1201.67 98,-1197.83 101.83,-1194 105.67,-1194 105.67,-1194 193.33,-1194 193.33,-1194 197.17,-1194 201,-1197.83 201,-1201.67 201,-1201.67 201,-1209.33 201,-1209.33 201,-1213.17 197.17,-1217 193.33,-1217"/>
<text text-anchor="middle" x="149.5" y="-1201.8" font-family="Arial" font-size="14.00" fill="#cfffac">setupTests.ts</text>
</g>
</g>
</svg>
